<svg xmlns="http://www.w3.org/2000/svg" viewBox="0 0 500 500"><g id="freepik--background-complete--inject-16"><rect x="386.78" y="104.8" width="78.28" height="99.83" style="fill:#fafafa"></rect><path d="M457,180.91c-.19-.7-.59-1.91-1-3.3-.62-2.17-1.34-3.89-1.51-3.83h0c-.1-.16-1.27.55-2.84.83a5.94,5.94,0,0,1-2,0,7,7,0,0,1-.69-.18c-.07-.11-.12-.17-.15-.15a16.58,16.58,0,0,0,.92,4,20.37,20.37,0,0,0,.89,2.49,1.47,1.47,0,0,0-.47-.17,1.77,1.77,0,1,0,1.37,2.08,1.69,1.69,0,0,0-.22-1.27c-.19-.71-.58-1.91-1-3.3-.19-.68-.39-1.3-.58-1.85a4.63,4.63,0,0,0,2.68.12,4.71,4.71,0,0,0,2.32-1.2c.17.7.41,1.59.69,2.58a20,20,0,0,0,.9,2.48,2.17,2.17,0,0,0-.47-.17,1.76,1.76,0,1,0,1.15.81Zm-4.73-5.09a14.4,14.4,0,0,1-2.62.24c-.17-.48-.34-.88-.47-1.18a1.79,1.79,0,0,0,.34.17,4.13,4.13,0,0,0,2.24.16,4.82,4.82,0,0,0,2.72-1.34,5,5,0,0,0,.19,1.08A13.44,13.44,0,0,1,452.31,175.82Z" style="fill:#f5f5f5"></path><path d="M400.58,166.55c.29-.66.73-1.85,1.28-3.19.87-2.09,1.38-3.88,1.21-3.94h0c0-.19-1.34-.36-2.75-1.12a5.73,5.73,0,0,1-1.59-1.23,4.93,4.93,0,0,1-.42-.56c0-.13,0-.21,0-.22A16.79,16.79,0,0,0,396.5,160a20.37,20.37,0,0,0-.84,2.5,1.54,1.54,0,0,0-.26-.42,1.76,1.76,0,1,0-2.71,2.26,1.76,1.76,0,0,0,3.1-.92c.29-.67.73-1.86,1.28-3.19.27-.65.51-1.27.7-1.82a4.55,4.55,0,0,0,2,1.77,4.74,4.74,0,0,0,2.56.5c-.3.65-.67,1.51-1.06,2.45a19.91,19.91,0,0,0-.84,2.51,1.63,1.63,0,0,0-.27-.43,1.77,1.77,0,1,0,.4,1.34Zm-.53-6.92a16.15,16.15,0,0,1-2.21-1.44c.17-.48.29-.9.37-1.22a2.6,2.6,0,0,0,.16.35,4.21,4.21,0,0,0,1.66,1.52,4.93,4.93,0,0,0,3,.64,6.23,6.23,0,0,0-.53,1A12.94,12.94,0,0,1,400.05,159.63Z" style="fill:#f5f5f5"></path><path d="M437.05,125.21l4.41,1.84.5-1.48a.43.43,0,0,1,.55-.27.43.43,0,0,1,.27.54l-15.87,46.42a.44.44,0,0,1-.55.27.43.43,0,0,1-.26-.55l.68-2-.08,0L422,168a.42.42,0,0,1-.23-.57h0a.43.43,0,0,1,.56-.22l4.66,2h0l2.11-6.17-4.59-1.92a.43.43,0,0,1-.22-.57h0a.42.42,0,0,1,.55-.22l4.54,1.89,2.05-6-4.6-1.92a.44.44,0,0,1-.22-.58.43.43,0,0,1,.55-.22l4.55,1.9,1.48-4.32-4.5-1.87a.44.44,0,0,1-.22-.58h0a.42.42,0,0,1,.55-.22l4.45,1.86,2.17-6.35a.42.42,0,0,1-.22,0l-4.66-2a.42.42,0,0,1-.23-.57h0a.43.43,0,0,1,.56-.22l4.66,2a.42.42,0,0,1,.14.09l1.14-3.34-4.52-1.89a.42.42,0,0,1-.23-.57.43.43,0,0,1,.56-.22l4.47,1.86,1.86-5.45-.08,0-4.66-1.95a.42.42,0,0,1-.23-.57.43.43,0,0,1,.56-.22l4.66,1.95h0l1.68-4.9L436.72,126a.43.43,0,0,1-.22-.57h0A.42.42,0,0,1,437.05,125.21Z" style="fill:#e0e0e0"></path><path d="M441.17,122S423.06,175.33,419,185.81c-2.56,6.56-6.94,7.89-9.86,8a7.9,7.9,0,0,1-5.8-2.31c-7.1-7.19,2.07-21.5,2.89-28.69.39-3.36,1.85-7.38-1.09-10.15s-5.71.08-6.61,1.15a1.79,1.79,0,0,1-1.08.63c-1.36.21-1.1-1.5-1.1-1.5a40.09,40.09,0,0,1,11-16c2.84-2.67,4.37-1.27,3.16.38a2.94,2.94,0,0,0-.42,3.54c.44.91,4.89,3.55,6.53,10.15a21.7,21.7,0,0,1,.11,9.46c-1,6.13-5.33,16.2-6.9,19.7a1.4,1.4,0,0,0,.52,1.77,1.36,1.36,0,0,0,2-.62c1.64-3.8,6.3-14.53,7.35-16.61,1.28-2.55,16.15-39.71,17.62-43,0,0,1.46-3.54,4.56-4.07,2.44-.41,11.7,1.48,11.7,1.48l-.62,2s-8.26-1.27-9.58-1A2.66,2.66,0,0,0,441.17,122Z" style="fill:#e0e0e0"></path><path d="M434.58,124.33c-.4,1.06-.28,2.11.64,2.42s1.67-1.53,1.67-1.53.67-1.87-.22-2.26S435,123.27,434.58,124.33Z" style="fill:#ebebeb"></path><path d="M434.58,124.33s.09-.12.22-.35a2.55,2.55,0,0,1,.72-.81,1.18,1.18,0,0,1,.67-.2.81.81,0,0,1,.67.32,1.49,1.49,0,0,1,.12.88,4.61,4.61,0,0,1-.22,1,5.51,5.51,0,0,1-.5.89,1.47,1.47,0,0,1-.68.57.8.8,0,0,1-.71-.21,1.19,1.19,0,0,1-.37-.6,2.55,2.55,0,0,1,0-1.08,1.69,1.69,0,0,0,.07-.41,1.34,1.34,0,0,0-.18.38,2.51,2.51,0,0,0-.09,1.16,1.21,1.21,0,0,0,1.34,1,1.74,1.74,0,0,0,.83-.66,4.41,4.41,0,0,0,.54-1,5.39,5.39,0,0,0,.24-1.08,1.72,1.72,0,0,0-.18-1,1.2,1.2,0,0,0-1.67-.14,2.39,2.39,0,0,0-.71.92A1,1,0,0,0,434.58,124.33Z" style="fill:#e0e0e0"></path><path d="M432.63,129.69c-.4,1.06-.28,2.1.64,2.41s1.67-1.53,1.67-1.53.67-1.87-.22-2.25S433,128.63,432.63,129.69Z" style="fill:#ebebeb"></path><path d="M432.63,129.69s.09-.13.22-.35a2.45,2.45,0,0,1,.72-.81,1.18,1.18,0,0,1,.67-.2.81.81,0,0,1,.67.32,1.46,1.46,0,0,1,.12.88,4.4,4.4,0,0,1-.22,1,4.77,4.77,0,0,1-.5.89,1.36,1.36,0,0,1-.68.57.82.82,0,0,1-.71-.2,1.28,1.28,0,0,1-.37-.6,2.55,2.55,0,0,1,0-1.08,1.69,1.69,0,0,0,.07-.41,1,1,0,0,0-.18.38,2.47,2.47,0,0,0-.09,1.15,1.2,1.2,0,0,0,1.34,1,1.67,1.67,0,0,0,.83-.65,4.26,4.26,0,0,0,.54-1,5.15,5.15,0,0,0,.24-1.07,1.72,1.72,0,0,0-.18-1,1.2,1.2,0,0,0-1.67-.14,2.32,2.32,0,0,0-.71.92A1,1,0,0,0,432.63,129.69Z" style="fill:#e0e0e0"></path><path d="M429.94,135.91c-.41,1.06-.29,2.1.63,2.41s1.68-1.53,1.68-1.53.67-1.87-.23-2.25S430.34,134.85,429.94,135.91Z" style="fill:#ebebeb"></path><path d="M429.94,135.91s.08-.13.21-.35a2.57,2.57,0,0,1,.72-.81,1.19,1.19,0,0,1,.68-.2.79.79,0,0,1,.66.32,1.39,1.39,0,0,1,.13.88,5,5,0,0,1-.22,1,4.3,4.3,0,0,1-.51.89,1.38,1.38,0,0,1-.67.57.84.84,0,0,1-.72-.2,1.26,1.26,0,0,1-.36-.6,2.58,2.58,0,0,1,0-1.08,1.49,1.49,0,0,0,.08-.41s-.1.12-.18.38a2.23,2.23,0,0,0-.09,1.15,1.19,1.19,0,0,0,1.34,1,1.67,1.67,0,0,0,.83-.65,5.2,5.2,0,0,0,.54-1,4.55,4.55,0,0,0,.23-1.07,1.65,1.65,0,0,0-.18-1,1.2,1.2,0,0,0-1.67-.14,2.28,2.28,0,0,0-.7.92C430,135.76,429.92,135.9,429.94,135.91Z" style="fill:#e0e0e0"></path><path d="M428.21,140.5c-.4,1.06-.28,2.11.64,2.42s1.67-1.53,1.67-1.53.68-1.87-.22-2.26S428.62,139.44,428.21,140.5Z" style="fill:#ebebeb"></path><path d="M428.21,140.5s.09-.12.22-.35a2.68,2.68,0,0,1,.72-.81,1.18,1.18,0,0,1,.67-.2.79.79,0,0,1,.67.32,1.41,1.41,0,0,1,.12.88,4.61,4.61,0,0,1-.22,1,4.84,4.84,0,0,1-.5.89,1.47,1.47,0,0,1-.68.57.8.8,0,0,1-.71-.21,1.11,1.11,0,0,1-.36-.6,2.58,2.58,0,0,1,0-1.08,1.69,1.69,0,0,0,.07-.41,1.34,1.34,0,0,0-.18.38,2.51,2.51,0,0,0-.09,1.16,1.22,1.22,0,0,0,1.34,1,1.7,1.7,0,0,0,.83-.66,4.41,4.41,0,0,0,.54-.95,4.29,4.29,0,0,0,.24-1.08,1.72,1.72,0,0,0-.18-1,1.2,1.2,0,0,0-1.67-.14,2.39,2.39,0,0,0-.71.92A1.33,1.33,0,0,0,428.21,140.5Z" style="fill:#e0e0e0"></path><path d="M425.53,146.8c-.41,1.06-.29,2.1.64,2.41s1.67-1.53,1.67-1.53.67-1.87-.22-2.25S425.94,145.74,425.53,146.8Z" style="fill:#ebebeb"></path><path d="M425.53,146.8s.08-.13.22-.35a2.34,2.34,0,0,1,.72-.81,1.15,1.15,0,0,1,.67-.2.81.81,0,0,1,.67.32,1.46,1.46,0,0,1,.12.88,4.4,4.4,0,0,1-.22,1,5.21,5.21,0,0,1-.5.9,1.47,1.47,0,0,1-.68.57.82.82,0,0,1-.71-.21,1.17,1.17,0,0,1-.37-.6,2.39,2.39,0,0,1,0-1.08,1.69,1.69,0,0,0,.07-.41s-.09.12-.18.38a2.34,2.34,0,0,0-.09,1.15,1.19,1.19,0,0,0,1.34,1,1.67,1.67,0,0,0,.83-.65,4.68,4.68,0,0,0,.54-1,4.55,4.55,0,0,0,.23-1.07,1.58,1.58,0,0,0-.18-1,1.2,1.2,0,0,0-1.67-.14,2.35,2.35,0,0,0-.7.92C425.54,146.65,425.51,146.79,425.53,146.8Z" style="fill:#e0e0e0"></path><path d="M423.69,152c-.4,1.06-.28,2.11.64,2.42s1.67-1.53,1.67-1.53.67-1.87-.22-2.26S424.1,150.92,423.69,152Z" style="fill:#ebebeb"></path><path d="M423.69,152s.09-.12.22-.35a2.68,2.68,0,0,1,.72-.81,1.18,1.18,0,0,1,.67-.2.82.82,0,0,1,.67.32,1.49,1.49,0,0,1,.12.88,4.61,4.61,0,0,1-.22,1,4.54,4.54,0,0,1-.5.89,1.41,1.41,0,0,1-.68.57.8.8,0,0,1-.71-.21,1.11,1.11,0,0,1-.36-.6,2.58,2.58,0,0,1,0-1.08,1.69,1.69,0,0,0,.07-.41,1.34,1.34,0,0,0-.18.38,2.51,2.51,0,0,0-.09,1.16,1.22,1.22,0,0,0,1.34,1,1.64,1.64,0,0,0,.83-.66,4.41,4.41,0,0,0,.54-1,5.45,5.45,0,0,0,.24-1.07,1.73,1.73,0,0,0-.18-1,1.2,1.2,0,0,0-1.67-.14,2.39,2.39,0,0,0-.71.92A1.33,1.33,0,0,0,423.69,152Z" style="fill:#e0e0e0"></path><path d="M420.43,159.36c-.41,1.06-.28,2.1.64,2.41s1.67-1.53,1.67-1.53.67-1.87-.22-2.25S420.84,158.3,420.43,159.36Z" style="fill:#ebebeb"></path><path d="M420.43,159.36s.08-.13.22-.36a2.53,2.53,0,0,1,.72-.8,1.15,1.15,0,0,1,.67-.2.81.81,0,0,1,.67.32,1.44,1.44,0,0,1,.12.87,4.37,4.37,0,0,1-.22,1,4.77,4.77,0,0,1-.5.89,1.41,1.41,0,0,1-.68.57.82.82,0,0,1-.71-.2,1.21,1.21,0,0,1-.37-.6,2.39,2.39,0,0,1,0-1.08,1.69,1.69,0,0,0,.07-.41,1,1,0,0,0-.18.38,2.33,2.33,0,0,0-.09,1.15,1.19,1.19,0,0,0,1.34,1,1.67,1.67,0,0,0,.83-.65,4.68,4.68,0,0,0,.54-1,5.15,5.15,0,0,0,.24-1.07,1.72,1.72,0,0,0-.18-1,1.2,1.2,0,0,0-1.67-.14,2.37,2.37,0,0,0-.71.91A1,1,0,0,0,420.43,159.36Z" style="fill:#e0e0e0"></path><path d="M417.82,165.34c-.4,1.06-.28,2.11.64,2.42s1.67-1.53,1.67-1.53.67-1.87-.22-2.26S418.23,164.28,417.82,165.34Z" style="fill:#ebebeb"></path><path d="M417.82,165.34s.09-.12.22-.35a2.68,2.68,0,0,1,.72-.81,1.18,1.18,0,0,1,.67-.2.85.85,0,0,1,.67.32,1.49,1.49,0,0,1,.12.88,4.49,4.49,0,0,1-.22,1,5.11,5.11,0,0,1-.5.89,1.41,1.41,0,0,1-.68.57.8.8,0,0,1-.71-.21,1.11,1.11,0,0,1-.36-.6,2.42,2.42,0,0,1,0-1.08,1.69,1.69,0,0,0,.07-.41,1.34,1.34,0,0,0-.18.38,2.51,2.51,0,0,0-.09,1.16,1.22,1.22,0,0,0,1.34,1,1.64,1.64,0,0,0,.83-.66,4.41,4.41,0,0,0,.54-.95,5.45,5.45,0,0,0,.24-1.07,1.73,1.73,0,0,0-.18-1.05,1.21,1.21,0,0,0-1.67-.14,2.39,2.39,0,0,0-.71.92A1.33,1.33,0,0,0,417.82,165.34Z" style="fill:#e0e0e0"></path><path d="M397.14,152.83a4.35,4.35,0,0,0,.67-.49c.42-.33,1-.84,1.72-1.49a42.71,42.71,0,0,0,5.07-5.54,44.06,44.06,0,0,0,4-6.34c.43-.86.77-1.56,1-2.06a6.73,6.73,0,0,0,.31-.78,5.31,5.31,0,0,0-.4.74c-.24.48-.6,1.17-1.06,2a50.66,50.66,0,0,1-4.07,6.27,50,50,0,0,1-5,5.57c-.69.66-1.26,1.19-1.66,1.54A5.35,5.35,0,0,0,397.14,152.83Z" style="fill:#ebebeb"></path><path d="M411.06,143.26s.34.34.94,1a14.47,14.47,0,0,1,2.12,3,17.75,17.75,0,0,1,1.8,5.1,22.48,22.48,0,0,1,.27,6.62,33.65,33.65,0,0,1-1.45,6.49c-.63,2-1.31,3.67-1.92,5.11s-1.11,2.58-1.46,3.37c-.16.38-.3.69-.4.92a1.61,1.61,0,0,0-.12.33,1.2,1.2,0,0,0,.17-.3q.18-.34.45-.9c.38-.78.92-1.92,1.55-3.35s1.33-3.14,2-5.1a33.1,33.1,0,0,0,1.47-6.54,22.34,22.34,0,0,0-.28-6.7,17.49,17.49,0,0,0-1.88-5.14,13.61,13.61,0,0,0-2.23-3,7.14,7.14,0,0,0-.74-.67A1.82,1.82,0,0,0,411.06,143.26Z" style="fill:#fff"></path><path d="M435.14,124.35c.08,0,.18-.32.49-.56s.65-.29.66-.37-.43-.18-.83.15S435.06,124.36,435.14,124.35Z" style="fill:#fff"></path><path d="M433.37,129.64c.08,0,.22-.26.51-.46s.59-.26.6-.34-.39-.16-.76.11S433.29,129.63,433.37,129.64Z" style="fill:#fff"></path><path d="M430.6,136.14c.08,0,.16-.36.49-.65s.69-.34.69-.42-.1-.08-.27-.06a1.07,1.07,0,0,0-.61.28,1.1,1.1,0,0,0-.33.57C430.53,136,430.57,136.14,430.6,136.14Z" style="fill:#fff"></path><path d="M428.81,141c.08,0,.14-.38.45-.69s.67-.42.66-.5-.48-.11-.86.3S428.74,141,428.81,141Z" style="fill:#fff"></path><path d="M426.5,146.47c.07,0,.19-.17.39-.34s.39-.27.38-.35-.31-.09-.57.14S426.42,146.45,426.5,146.47Z" style="fill:#fff"></path><path d="M424.24,152.53c.08,0,.17-.33.52-.53s.68-.16.71-.23-.07-.11-.23-.14a.93.93,0,0,0-1,.63C424.17,152.43,424.21,152.53,424.24,152.53Z" style="fill:#fff"></path><path d="M420.8,160c.06,0,.32-.18.57-.51s.41-.63.35-.68-.32.18-.57.51S420.74,159.93,420.8,160Z" style="fill:#fff"></path><path d="M439.51,120.54a4.79,4.79,0,0,1,3.57-2.34,1.2,1.2,0,0,0-.67,0,3.64,3.64,0,0,0-2.68,1.75C439.53,120.27,439.47,120.53,439.51,120.54Z" style="fill:#fff"></path><rect x="451.55" y="117.83" width="1.7" height="4.17" rx="0.65" transform="translate(29.29 -80.15) rotate(10.46)" style="fill:#e0e0e0"></rect><path d="M409.46,132.37a13.59,13.59,0,0,0-1.61.31c-.16.32-.3.61-.43.89l-.35.8q-.1.21-.24.24a.7.7,0,0,1-.42-.06l-.35-.14c-.13,0-.25-.11-.39-.18l-.25-.16a.46.46,0,0,1-.17-.17.44.44,0,0,1-.07-.25,1.24,1.24,0,0,1,.07-.41c.19-.56.45-1.22.76-2s.65-1.54,1-2.35.73-1.6,1.11-2.39.74-1.49,1.08-2.1a1.67,1.67,0,0,1,.48-.54,1.32,1.32,0,0,1,.87-.16l.89.08c.26,0,.5.08.72.13l.6.16.55.16a.78.78,0,0,1,.49.36,1,1,0,0,1,.06.57c0,.58-.09,1.24-.12,2s-.06,1.54-.07,2.35,0,1.64,0,2.46,0,1.58,0,2.28a.43.43,0,0,1-.09.31.72.72,0,0,1-.41.08l-.58,0a2.31,2.31,0,0,1-.56-.11.92.92,0,0,1-.41-.22,1,1,0,0,1-.16-.48q0-.36-.09-.78c0-.28-.05-.59-.07-.92Zm.6-2.11c.37,0,.75-.08,1.12-.1,0-.67,0-1.34,0-2s0-1.32,0-2c-.33.6-.68,1.26-1.06,2s-.76,1.47-1.15,2.24Z" style="fill:#e0e0e0"></path><path d="M417.7,126.5a6.47,6.47,0,0,0-.88.15,1.3,1.3,0,0,1-.59,0,1,1,0,0,1-.51-.36l-.17-.26-.19-.31-.18-.34a3.27,3.27,0,0,1-.17-.31c-.07-.19-.09-.32,0-.38a.61.61,0,0,1,.31-.19c.37-.08.78-.15,1.24-.23l1.44-.19c.5,0,1-.1,1.5-.13l1.44-.09a1,1,0,0,1,.53.09.87.87,0,0,1,.31.38,3.53,3.53,0,0,1,.23.59c0,.16.09.32.14.47a1.22,1.22,0,0,1,.06.53,1,1,0,0,1-.27.53c-.86,1-1.72,2.09-2.58,3.16s-1.68,2.1-2.45,3.11a7.17,7.17,0,0,1,.9-.18l1-.13a.87.87,0,0,1,.92.33c.09.15.18.31.25.45a2,2,0,0,1,.15.43c.06.16.06.28,0,.34a.78.78,0,0,1-.42.14l-1.65.3c-.58.1-1.11.21-1.6.32a1.92,1.92,0,0,1-.42.07,1.42,1.42,0,0,1-.3,0,.85.85,0,0,1-.24-.08l-.22-.11-.39-.3-.46-.37a1.53,1.53,0,0,1-.18-.18.8.8,0,0,1-.15-.21.84.84,0,0,1-.06-.24A.51.51,0,0,1,414,133c.19-.34.45-.76.78-1.27s.7-1.08,1.12-1.68.87-1.23,1.34-1.87,1-1.25,1.42-1.84C418.33,126.41,418,126.46,417.7,126.5Z" style="fill:#e0e0e0"></path><path d="M424.57,126.5a6.08,6.08,0,0,0-.87.15,1.3,1.3,0,0,1-.59,0,1,1,0,0,1-.51-.36l-.17-.26-.19-.31c-.06-.12-.13-.23-.19-.34l-.16-.31c-.08-.19-.09-.32-.05-.38a.65.65,0,0,1,.32-.19c.36-.08.78-.15,1.24-.23l1.44-.19c.49,0,1-.1,1.5-.13l1.43-.09a1,1,0,0,1,.54.09,1,1,0,0,1,.31.38,3.4,3.4,0,0,1,.22.59c.05.16.09.32.14.47a1.1,1.1,0,0,1,.07.53,1,1,0,0,1-.27.53c-.86,1-1.72,2.09-2.58,3.16s-1.68,2.1-2.45,3.11a7.17,7.17,0,0,1,.9-.18l.94-.13a.86.86,0,0,1,.92.33,4.13,4.13,0,0,1,.25.45,2.85,2.85,0,0,1,.16.43c.06.16.06.28,0,.34a.78.78,0,0,1-.42.14l-1.65.3c-.58.1-1.12.21-1.61.32a1.85,1.85,0,0,1-.41.07,1.47,1.47,0,0,1-.31,0,.85.85,0,0,1-.24-.08l-.21-.11-.39-.3-.47-.37-.17-.18a.8.8,0,0,1-.15-.21.48.48,0,0,1-.06-.24.44.44,0,0,1,.08-.27c.19-.34.44-.76.77-1.27s.71-1.08,1.13-1.68.87-1.23,1.34-1.87,1-1.25,1.42-1.84C425.2,126.41,424.87,126.46,424.57,126.5Z" style="fill:#e0e0e0"></path><path d="M393.87,141.38a4.7,4.7,0,0,1-1.06-.68,4.37,4.37,0,0,1-.74-.83,5.84,5.84,0,0,1-.52-1,4.26,4.26,0,0,1-.41-1.46,8.24,8.24,0,0,1,.07-1.75,2.08,2.08,0,0,1,.46-1.1c.22-.24.58-.24,1.08,0,1.67.67,2.53,1.56,2.57,2.68a10.93,10.93,0,0,0,.21,1.55.69.69,0,0,0,.64.54c.3,0,.6-.23.88-.75a10.88,10.88,0,0,0,.84-2c.27-.85.53-1.82.77-2.91s.47-2.21.68-3.36.41-2.28.59-3.39.33-2.12.46-3q.14-.65.48-.78a1.63,1.63,0,0,1,1,0,13,13,0,0,1,1.42.47,9.24,9.24,0,0,1,1.41.68,5.38,5.38,0,0,1,.49.38,1,1,0,0,1,.24.33.77.77,0,0,1,.07.37,2.6,2.6,0,0,1-.08.49c-.35,2.09-.73,4-1.13,5.73a41,41,0,0,1-1.3,4.56,16.8,16.8,0,0,1-1.51,3.3A4.76,4.76,0,0,1,398,142a6.71,6.71,0,0,1-2.64-.16A6.81,6.81,0,0,1,393.87,141.38Z" style="fill:#e0e0e0"></path><path d="M436.28,183.54l2.08,1.11,1.88,1c.59.29,1.11.54,1.58.75a.61.61,0,0,1,.32.35.86.86,0,0,1-.18.56c-.14.24-.3.47-.47.71a6.89,6.89,0,0,1-.55.63,1.39,1.39,0,0,1-.63.42,1.14,1.14,0,0,1-.71-.11c-.43-.15-1-.35-1.58-.6s-1.29-.54-2-.87l-2.22-1c-.76-.36-1.51-.72-2.25-1.09l-2.08-1.06c-.65-.34-1.23-.65-1.72-.93a1.17,1.17,0,0,1-.57-.67,1.59,1.59,0,0,1,.24-.88,15.35,15.35,0,0,1,.82-1.44c.25-.38.53-.76.83-1.13a3.3,3.3,0,0,1,.54-.53,1.8,1.8,0,0,1,.52-.23,1.3,1.3,0,0,1,.52,0l.62.07.37.09.78.16,1.6.29,2.87.5c-.35-.32-.72-.68-1.12-1.08l-1.22-1.25c-.42-.43-.83-.86-1.24-1.31s-.8-.87-1.16-1.28-.78-.8-1-1.1a3.06,3.06,0,0,1-.56-.84,1.31,1.31,0,0,1-.06-.78A2.9,2.9,0,0,1,431,171c.28-.42.59-.85.93-1.31a16.81,16.81,0,0,1,1.1-1.3,1.23,1.23,0,0,1,.75-.43,1.41,1.41,0,0,1,.84.35l1.62,1.19,1.93,1.37c.68.48,1.37.95,2.07,1.43l2,1.37,1.77,1.19q.81.54,1.35.87a1.25,1.25,0,0,1,.35.42c0,.13,0,.33-.17.6s-.3.48-.47.72a4,4,0,0,1-.52.61,1.13,1.13,0,0,1-.61.36,1.08,1.08,0,0,1-.69-.18c-.32-.16-.73-.38-1.22-.66l-1.65-1-1.87-1.13c-.65-.4-1.27-.81-1.87-1.23.47.54,1,1.11,1.54,1.71s1.1,1.2,1.64,1.78,1.06,1.11,1.55,1.6.89.9,1.22,1.22a2,2,0,0,1,.25.24.47.47,0,0,1,.11.19.51.51,0,0,1,0,.24,1.25,1.25,0,0,1-.16.34,8.65,8.65,0,0,1-.7,1.07,1.66,1.66,0,0,1-.25.27.73.73,0,0,1-.28.17,1.35,1.35,0,0,1-.37.07h-.53c-.88-.05-1.88-.15-3-.29s-2.27-.34-3.45-.55C434.85,182.75,435.57,183.15,436.28,183.54Z" style="fill:#e0e0e0"></path><path d="M443.23,172.29a10.05,10.05,0,0,1-1.85-.44,16.6,16.6,0,0,1-2-.84c-.7-.33-1.4-.7-2.1-1.1s-1.4-.82-2.09-1.26-1.37-.88-2-1.33c-.3-.2-.45-.4-.46-.59a1.29,1.29,0,0,1,.36-.77,6.31,6.31,0,0,1,.71-.84,7.55,7.55,0,0,1,.86-.71,1.53,1.53,0,0,1,1.89,0c.52.38,1.08.78,1.69,1.2s1.24.84,1.88,1.25,1.26.77,1.88,1.11a15.19,15.19,0,0,0,1.71.82,4.65,4.65,0,0,0,1.34.36.79.79,0,0,0,.79-.28c.18-.28.13-.62-.14-1a6.53,6.53,0,0,0-1.25-1.35,24.55,24.55,0,0,0-2-1.53c-.78-.53-1.59-1.05-2.44-1.57s-1.67-1-2.5-1.48l-2.21-1.25c-.33-.14-.49-.33-.48-.58a1.53,1.53,0,0,1,.3-.8,5.29,5.29,0,0,1,.75-.89c.31-.3.6-.57.88-.81a2.55,2.55,0,0,1,.4-.27,1,1,0,0,1,.32-.09.73.73,0,0,1,.31.07l.35.19q2.24,1.32,4.06,2.51a37.81,37.81,0,0,1,3.19,2.29,13.63,13.63,0,0,1,2.16,2.12,4.67,4.67,0,0,1,1,2,4.78,4.78,0,0,1,0,1.31,5.35,5.35,0,0,1-.39,1.36,6.17,6.17,0,0,1-1.48,2.27,4.79,4.79,0,0,1-.82.6,3,3,0,0,1-1,.37A4.29,4.29,0,0,1,443.23,172.29Z" style="fill:#e0e0e0"></path><path d="M446.56,161a3.2,3.2,0,0,1,.19-.69,3.25,3.25,0,0,1,.33-.61,2.24,2.24,0,0,1,.45-.47,9.13,9.13,0,0,0,2-2.1,1.85,1.85,0,0,0,.39-1.57q-.07-.25-.3-.21a1.93,1.93,0,0,0-.59.27,8.9,8.9,0,0,0-.81.59c-.31.24-.63.49-1,.77l-1,.82a11,11,0,0,1-1,.7,4.7,4.7,0,0,1-1.13.54,4,4,0,0,1-1.22.22,3.86,3.86,0,0,1-1.25-.18,4.23,4.23,0,0,1-1.24-.65,5.8,5.8,0,0,1-1.1-.94,9.22,9.22,0,0,1-1-1.3,10.2,10.2,0,0,1-.81-1.49,8.92,8.92,0,0,1-.52-1.53,2.53,2.53,0,0,1-.12-.62,3.16,3.16,0,0,1,0-.8,3.91,3.91,0,0,1,.25-.88,4.23,4.23,0,0,1,.51-.92,12.76,12.76,0,0,1,1.18-1.29,6.54,6.54,0,0,1,1.31-1,3,3,0,0,1,.82-.3,2.46,2.46,0,0,1,.7,0,3.19,3.19,0,0,1,.63.12l.55.17.93.52,1,.66c.34.24.67.47,1,.71a5.84,5.84,0,0,1,.75.65,1,1,0,0,1,.29.56.84.84,0,0,1-.3.6c-1,1.36-2,1.81-2.93,1.36a5.54,5.54,0,0,1-.65-.36q-.36-.21-.72-.45l-.69-.41a2.09,2.09,0,0,0-.55-.23.28.28,0,0,0-.31.08c-.06.09-.05.26,0,.53a3.2,3.2,0,0,0,.25.79,6.46,6.46,0,0,0,.48.89,5.23,5.23,0,0,0,.66.83,3.41,3.41,0,0,0,.81.63,2.31,2.31,0,0,0,.91.29,1.62,1.62,0,0,0,1-.22,7.75,7.75,0,0,0,1.26-.79l1.2-.93c.39-.31.77-.6,1.14-.86a5.51,5.51,0,0,1,1.07-.62,1.92,1.92,0,0,1,1-.15,1.46,1.46,0,0,1,.88.49,6,6,0,0,1,.61.73,3.78,3.78,0,0,1,.49,1.07,4.77,4.77,0,0,1,.17,1.42,6.64,6.64,0,0,1-.33,1.82,7,7,0,0,1-1.39,2.48,9.32,9.32,0,0,1-2.69,2,2.11,2.11,0,0,1-1.22.45.5.5,0,0,1-.38-.48A2.34,2.34,0,0,1,446.56,161Z" style="fill:#e0e0e0"></path><path d="M442.69,142.07a1.21,1.21,0,0,1,.68.26c.45.33,1,.69,1.56,1.1s1.21.82,1.87,1.25,1.33.86,2,1.29l2,1.28,1.89,1.15,1.6.95a.6.6,0,0,1,.29.35c0,.11,0,.3-.21.57s-.35.52-.52.75a5,5,0,0,1-.55.65,1.14,1.14,0,0,1-.6.36,1.26,1.26,0,0,1-.71-.15c-.38-.16-.88-.37-1.47-.66s-1.25-.6-1.95-1-1.44-.74-2.21-1.15l-2.26-1.22c-.74-.41-1.43-.8-2.08-1.19l-1.71-1a.91.91,0,0,1-.45-.61,1.26,1.26,0,0,1,.31-.77,6.46,6.46,0,0,1,.78-1,6.62,6.62,0,0,1,.93-.86A1.6,1.6,0,0,1,442.69,142.07Z" style="fill:#e0e0e0"></path><path d="M455.49,136.43a1.68,1.68,0,0,1,.79.56,4.83,4.83,0,0,1,.85,1.15,6.56,6.56,0,0,1,.52,1.22,3.9,3.9,0,0,1,.09.66,4.84,4.84,0,0,1,0,.76,5.84,5.84,0,0,1-.14.8,4.53,4.53,0,0,1-.26.76,6.38,6.38,0,0,1-.73,1.35l-.74,1a4.08,4.08,0,0,1-.85.72,2.76,2.76,0,0,1-1.06.43,5.28,5.28,0,0,1-1.91,0,9.9,9.9,0,0,1-2.14-.58,13.27,13.27,0,0,1-2.19-1.11,14,14,0,0,1-2-1.55,12.82,12.82,0,0,1-1.73-1.88,9.85,9.85,0,0,1-1.23-2.15,4,4,0,0,1-.31-1.69,4.36,4.36,0,0,1,.33-1.41,6.94,6.94,0,0,1,.51-.91,9.7,9.7,0,0,1,.63-.87,7.26,7.26,0,0,1,.69-.76,6.12,6.12,0,0,1,.68-.61,3.57,3.57,0,0,1,.71-.35,2.61,2.61,0,0,1,.64-.16,2.56,2.56,0,0,1,.62,0l.66.15c.26.08.53.17.8.28s.54.23.8.36a7.58,7.58,0,0,1,1.37.82l.21.18a.41.41,0,0,1,.14.21.7.7,0,0,1,0,.29,2.06,2.06,0,0,1-.19.44,4.8,4.8,0,0,1-.59.83,2.54,2.54,0,0,1-.64.49,1.72,1.72,0,0,1-.7.21,2.82,2.82,0,0,1-.81,0,4.1,4.1,0,0,1-.67-.17,6.56,6.56,0,0,0-1-.28.73.73,0,0,0-.71.21c-.14.2-.1.51.12.92a8.28,8.28,0,0,0,.95,1.35,16.3,16.3,0,0,0,1.43,1.47,15.13,15.13,0,0,0,1.52,1.24,17.69,17.69,0,0,0,1.56.89,9,9,0,0,0,1.49.59,3.79,3.79,0,0,0,1.22.17.91.91,0,0,0,.76-.35c.29-.39.13-1.21-.5-2.45a2.57,2.57,0,0,1,.32-2.77C455,136.53,455.25,136.37,455.49,136.43Z" style="fill:#e0e0e0"></path><path d="M421.85,147.57a1.7,1.7,0,0,0-.49-1.31c-.3-.63-.79-1.61-1.28-2.75-.3-.7-.6-1.34-.86-1.88a2.53,2.53,0,0,0,1.61-.2c1-.44,1.36-1.29,1.27-1.32s-.56.6-1.42,1a5,5,0,0,1-1.54.37c-.27-.54-.5-.95-.64-1.18a3,3,0,0,0,1.7-.4c1-.52,1.39-1.35,1.3-1.39s-.59.61-1.47,1.07a8,8,0,0,1-1.62.6c0-.06-.07-.09-.09-.08s0,0,0,.12l0,0s0,0,0,0c.14.45.71,1.8,1.4,3.4a20,20,0,0,0,1.16,2.29,1.65,1.65,0,1,0,.94,1.62Z" style="fill:#f5f5f5"></path><path d="M456.34,131.31a1.89,1.89,0,0,0-.13-1.58c-.13-.79-.35-2-.53-3.43-.12-.85-.24-1.65-.36-2.32a3,3,0,0,0,1.83.28c1.22-.18,1.9-1,1.8-1.05a11.13,11.13,0,0,1-1.86.64,5.48,5.48,0,0,1-1.81-.08,14.82,14.82,0,0,0-.33-1.49,3.51,3.51,0,0,0,2,.1,2.66,2.66,0,0,0,1.86-1.12c-.07-.1-.84.48-1.95.71a9.14,9.14,0,0,1-2,.15c0-.08-.05-.12-.07-.12s0,0,0,.14l0,0s0,0,0,0c0,.54.21,2.19.46,4.16a24.4,24.4,0,0,0,.56,2.89,1.81,1.81,0,0,0-.6-.36,1.89,1.89,0,1,0,1.12,2.42Z" style="fill:#f5f5f5"></path><path d="M426.71,192a1.38,1.38,0,0,0-.53-1c-.31-.49-.81-1.26-1.33-2.15-.31-.55-.62-1.05-.89-1.47a2.17,2.17,0,0,0,1.31-.33c.77-.46,1-1.2.92-1.21s-.4.55-1.08,1a3.94,3.94,0,0,1-1.24.46c-.27-.41-.5-.73-.64-.91a2.56,2.56,0,0,0,1.37-.49,2,2,0,0,0,.94-1.28c-.08,0-.43.56-1.12,1a6.82,6.82,0,0,1-1.27.65s-.07-.07-.08-.06,0,0,0,.1,0,0,0,0l0,0c.16.36.77,1.42,1.49,2.67a17.85,17.85,0,0,0,1.19,1.79,1.41,1.41,0,0,0-.5-.07,1.38,1.38,0,1,0,.11,2.75A1.39,1.39,0,0,0,426.71,192Z" style="fill:#f5f5f5"></path><rect x="395.4" y="111.3" width="61.7" height="2.25" rx="0.86" style="fill:#ebebeb"></rect><rect x="395.4" y="197.27" width="61.7" height="2.25" rx="0.86" style="fill:#ebebeb"></rect><ellipse cx="255.15" cy="447.32" rx="185.48" ry="22.25" style="fill:#e0e0e0"></ellipse><path d="M252.44,464.06c-44.64,0-86.62-1.78-118.2-5-22.56-2.3-49.47-6.34-49.47-12.51s26.91-10.21,49.47-12.51c31.58-3.22,73.56-5,118.2-5s86.62,1.78,118.2,5c22.57,2.3,49.47,6.34,49.47,12.51s-26.9,10.21-49.47,12.51C339.06,462.28,297.08,464.06,252.44,464.06Zm0-34.08c-44.59,0-86.5,1.77-118,5C90.76,439.42,86,444.55,86,446.55s4.72,7.13,48.38,11.58c31.52,3.22,73.43,5,118,5s86.5-1.77,118-5c43.66-4.45,48.38-9.58,48.38-11.58s-4.72-7.13-48.38-11.58C338.94,431.75,297,430,252.44,430Z" style="fill:#fff"></path><path d="M252.44,455.17c-49.69,0-101.1-4-101.1-10.72s51.41-10.72,101.1-10.72,101.1,4,101.1,10.72S302.13,455.17,252.44,455.17Zm0-20.5c-59.71,0-99.83,5.06-99.83,9.78s40.12,9.78,99.83,9.78,99.83-5.06,99.83-9.78S312.15,434.67,252.44,434.67Z" style="fill:#fff"></path><path d="M61.71,384.56H46.32V254A7.69,7.69,0,0,1,54,246.3h0a7.7,7.7,0,0,1,7.7,7.7Z" style="fill:#e0e0e0"></path><path d="M61.41,261.38a2.72,2.72,0,0,0,3.4-1.1A9.34,9.34,0,0,0,66,256.55,6,6,0,0,1,67.49,253c1.74-1.59,4.79-.75,6.09,1.21s1.19,4.56.52,6.81a15.63,15.63,0,0,1-6.79,8.76c-2,1.22-4.49,2-6.67,1.12" style="fill:#e0e0e0"></path><path d="M48.12,295.12s-7.53-4-7.72-12.78c-.24-11.72,2-20-5.07-19.95-6.65,0-5.37,8.05-5.75,17.26S32.76,303.83,47.21,305C47.21,305,51.7,300.49,48.12,295.12Z" style="fill:#e0e0e0"></path><path d="M60.9,335.47s8.23-3.24,9.93-11.58,1.23-24.39,1.54-26.55,1.24-6,6.95-5.56,6.48,6.64,6.17,11.73,2.05,41.64-24.59,43.07C60.9,346.58,56.68,341.79,60.9,335.47Z" style="fill:#e0e0e0"></path><path d="M46.32,342.81c-.09,0-.15-15.07-.15-33.65s.06-33.65.15-33.65.15,15.06.15,33.65S46.4,342.81,46.32,342.81Z" style="fill:#ebebeb"></path><path d="M61.71,349.23c-.08,0-.15-20.31-.15-45.35s.07-45.35.15-45.35.15,20.3.15,45.35S61.79,349.23,61.71,349.23Z" style="fill:#ebebeb"></path><path d="M51,375.34c-.08,0-.15-28.63-.15-63.93s.07-63.94.15-63.94.15,28.62.15,63.94S51.06,375.34,51,375.34Z" style="fill:#ebebeb"></path><path d="M56.55,375.34c-.09,0-.16-28.63-.16-63.93s.07-63.94.16-63.94.15,28.62.15,63.94S56.63,375.34,56.55,375.34Z" style="fill:#ebebeb"></path><path d="M77,292s0,.05,0,.14l0,.4c0,.36.08.88.12,1.56.09,1.36.18,3.32.21,5.75A117.76,117.76,0,0,1,76,318.73a45.46,45.46,0,0,1-2.53,10.14,19.88,19.88,0,0,1-4.69,7.1,14.24,14.24,0,0,1-4.84,3.1,9,9,0,0,1-2,.54l.13-.05.39-.1c.18,0,.39-.11.63-.19s.53-.18.85-.31a14.76,14.76,0,0,0,4.73-3.14,20,20,0,0,0,4.58-7.05,45.3,45.3,0,0,0,2.49-10.09,126.15,126.15,0,0,0,1.45-18.87c0-2.42-.06-4.39-.11-5.74,0-.66,0-1.18-.07-1.56,0-.17,0-.3,0-.41S77,292,77,292Z" style="fill:#ebebeb"></path><path d="M81,292.13s0,.06,0,.16l0,.45c0,.4.09,1,.12,1.76.09,1.52.16,3.73.14,6.46a141.54,141.54,0,0,1-1.8,21.24,35.81,35.81,0,0,1-3.44,11.21,23.07,23.07,0,0,1-6,7.44,16,16,0,0,1-3.18,1.88,15.2,15.2,0,0,1-2.66.84l-1,.19-.74.07-.46,0h-.15l.15,0,.45-.06.74-.1,1-.22a14.29,14.29,0,0,0,2.61-.88A15.85,15.85,0,0,0,70,340.69a23.22,23.22,0,0,0,5.89-7.41,35.91,35.91,0,0,0,3.38-11.13A149.66,149.66,0,0,0,81.15,301c0-2.73,0-4.93,0-6.46,0-.74,0-1.33-.07-1.75,0-.19,0-.34,0-.46S81,292.13,81,292.13Z" style="fill:#ebebeb"></path><path d="M46.61,303l-.46-.08a9.7,9.7,0,0,1-1.3-.36,14.45,14.45,0,0,1-4.34-2.37,18.92,18.92,0,0,1-4.75-5.59,25.92,25.92,0,0,1-2.88-8.5,50.78,50.78,0,0,1-.6-9c0-2.76.17-5.24.25-7.33s.12-3.77.13-4.93c0-.57,0-1,0-1.35a2.51,2.51,0,0,1,0-.47,2.15,2.15,0,0,1,0,.47c0,.31,0,.76.06,1.34,0,1.17,0,2.86,0,4.95s-.17,4.57-.19,7.33a52,52,0,0,0,.61,8.92A26.2,26.2,0,0,0,36,294.44,19,19,0,0,0,40.64,300a15.19,15.19,0,0,0,4.24,2.43,12.37,12.37,0,0,0,1.28.41A2.54,2.54,0,0,1,46.61,303Z" style="fill:#ebebeb"></path><path d="M36.92,263.37a1.91,1.91,0,0,1,0,.39c0,.29,0,.66-.05,1.12,0,1-.11,2.42-.2,4.13a77.77,77.77,0,0,0,.4,13.6,39.51,39.51,0,0,0,1.68,7.28,16.18,16.18,0,0,0,2.85,5.34,9.15,9.15,0,0,0,3.24,2.45,14.27,14.27,0,0,0,1.42.5l-.39-.06a6.59,6.59,0,0,1-1.08-.33,9,9,0,0,1-3.35-2.42A16.08,16.08,0,0,1,38.49,290a39.21,39.21,0,0,1-1.72-7.33A71,71,0,0,1,36.46,269c.1-1.74.22-3.15.3-4.12,0-.47.08-.84.1-1.12A2,2,0,0,1,36.92,263.37Z" style="fill:#ebebeb"></path><path d="M69.12,253a2.18,2.18,0,0,1,0,.63c0,.4-.06,1-.13,1.71a17.16,17.16,0,0,1-1.41,5.51A9.06,9.06,0,0,1,63.75,265a6,6,0,0,1-1.63.59,2.31,2.31,0,0,1-.63.07,10.67,10.67,0,0,0,2.16-.84,9.42,9.42,0,0,0,3.67-4.1,19,19,0,0,0,1.47-5.4c.09-.67.16-1.24.22-1.7A3.13,3.13,0,0,1,69.12,253Z" style="fill:#ebebeb"></path><path d="M72.8,253.39a4.1,4.1,0,0,1-.07.85c-.07.54-.18,1.32-.34,2.28A22.61,22.61,0,0,1,70,263.75,12.52,12.52,0,0,1,67.4,267a9.69,9.69,0,0,1-3,1.76,8,8,0,0,1-2.27.49h-.63l-.22,0a10.61,10.61,0,0,0,3-.66,10,10,0,0,0,2.85-1.77,12.77,12.77,0,0,0,2.56-3.23,24.11,24.11,0,0,0,2.4-7.12c.18-.91.32-1.67.43-2.26A5.68,5.68,0,0,1,72.8,253.39Z" style="fill:#ebebeb"></path><path d="M72.23,373.05H35.8c-.25,1-10.18,17.48-10.18,17.48l14.9,25.93h28.6l13.29-25.93S72.48,374.05,72.23,373.05Z" style="fill:#ebebeb"></path><polygon points="25.62 390.53 82.41 390.53 69.12 416.46 40.52 416.46 25.62 390.53" style="fill:#e0e0e0"></polygon><path d="M222,53.67a1.35,1.35,0,0,1,0-.24v-.66c0-.6,0-1.45,0-2.53,0-2.22,0-5.42-.08-9.44L222,41l-48.65.1c.11-.12-.25.24.25-.25h0V53.67l-.24-.24,34.67.11,10.23.07,2.77,0h.72l.26,0h-.23l-.69,0-2.71,0-10.18.07-34.84.11h-.25V40.82h0l.25-.25,48.65.1h.15v.15c0,4.06-.06,7.29-.08,9.53,0,1.07,0,1.9,0,2.5v.63A.85.85,0,0,1,222,53.67Z" style="fill:#e0e0e0"></path><path d="M228.56,40.8a.77.77,0,0,1,0-.25c0-.18,0-.41,0-.68,0-.63,0-1.49-.05-2.58,0-2.26-.05-5.44-.09-9.36l.18.17-29.23.07.24-.24h0v6.61c0,2.15,0,4.24,0,6.24l-.24-.24,20.92.11,6.09.07,1.64,0,.59,0a3.43,3.43,0,0,1-.53,0l-1.6,0-6,.06L199.32,41h-.23V40.8c0-2,0-4.09,0-6.24V28h0c-.06.05.47-.47.25-.25l29.23.07h.18v.18c0,4-.07,7.19-.09,9.47,0,1.07,0,1.92,0,2.54S228.57,40.81,228.56,40.8Z" style="fill:#e0e0e0"></path><path d="M458.05,288.55a1,1,0,0,1,0-.23v-.66c0-.61,0-1.45,0-2.53,0-2.23-.05-5.42-.08-9.45l.15.15-48.65.1c.11-.11-.25.25.24-.25h0v12.85l-.25-.24,34.68.11,10.23.07,2.77,0,.72,0h.26l-.23,0h-.69l-2.72,0-10.18.06-34.84.12h-.24V275.7h0l.25-.25,48.65.1h.15v.15c0,4.07-.07,7.29-.09,9.54,0,1.06,0,1.9,0,2.49l0,.64A1.23,1.23,0,0,1,458.05,288.55Z" style="fill:#e0e0e0"></path><path d="M464.64,275.68s0-.09,0-.24,0-.41,0-.69c0-.63,0-1.49-.05-2.58,0-2.25-.05-5.44-.09-9.36l.17.18-29.23.07.25-.25h0v6.62c0,2.15,0,4.24,0,6.24l-.24-.23,20.91.11,6.09.06,1.65,0,.58,0a3.28,3.28,0,0,1-.53,0l-1.59,0-6,.07-21.07.11h-.23v-.24c0-2,0-4.09,0-6.24,0-1.08,0-2.17,0-3.27v-3.35h0l.25-.25,29.23.07h.18v.18c0,4-.07,7.19-.09,9.47,0,1.07,0,1.92-.05,2.54A4.88,4.88,0,0,1,464.64,275.68Z" style="fill:#e0e0e0"></path><rect x="377.21" y="51.05" width="48.65" height="12.87" style="fill:#f5f5f5"></rect><path d="M405.29,77.48a1,1,0,0,1,0-.23v-.66c0-.61,0-1.45,0-2.53,0-2.23-.05-5.42-.08-9.45l.15.15-48.65.1c.11-.11-.25.25.24-.25h0V77.48l-.25-.24,34.68.11,10.23.07,2.77,0,.72,0h.26l-.23,0h-.69l-2.72,0-10.18.06-34.84.11h-.24V64.63h0l.25-.25,48.65.1h.15v.15c0,4.07-.07,7.29-.09,9.53,0,1.07,0,1.91,0,2.5,0,.26,0,.47,0,.64A1.23,1.23,0,0,1,405.29,77.48Z" style="fill:#e0e0e0"></path><rect x="57.04" y="175.85" width="48.65" height="12.87" style="fill:#f5f5f5"></rect><path d="M85.12,202.27a2.07,2.07,0,0,1,0-.23l0-.66c0-.61,0-1.45,0-2.53,0-2.22,0-5.42-.08-9.45l.15.15-48.65.1.25-.25h0v6.53q0,3.23,0,6.33l-.24-.24,34.67.11,10.23.07,2.77,0,.73,0h.25s-.07,0-.22,0l-.7,0-2.71,0-10.18.07-34.84.11h-.24v-.25q0-3.11,0-6.33v-6.53h0l.25-.24,48.65.09h.15v.15c0,4.07-.06,7.29-.08,9.54,0,1.07,0,1.9,0,2.5,0,.26,0,.46,0,.63S85.13,202.28,85.12,202.27Z" style="fill:#e0e0e0"></path></g><g id="freepik--Floor--inject-16"><path d="M472.38,416.45c0,.15-99.57.26-222.37.26s-222.39-.11-222.39-.26,99.55-.26,222.39-.26S472.38,416.31,472.38,416.45Z" style="fill:#263238"></path></g><g id="freepik--Furniture--inject-16"><path d="M405.57,239.48a3.58,3.58,0,0,0-3.42,1.46,5.71,5.71,0,0,0-.82,3.47,5.53,5.53,0,0,0,.94,3.25,6.09,6.09,0,0,0,3.94,2.14,9,9,0,0,0,4.25-.53,11.6,11.6,0,0,0-.33-4.69,7.52,7.52,0,0,0-1.38-3.16A5.19,5.19,0,0,0,405.57,239.48Z" style="fill:#455a64"></path><path d="M436.66,236.19a3.23,3.23,0,0,1-.14.49c-.11.35-.27.8-.45,1.37-.41,1.19-1,2.92-1.63,5.06s-1.39,4.71-2.13,7.59-1.44,6.05-2.08,9.41-1.12,6.59-1.5,9.54-.62,5.6-.78,7.84-.27,4.05-.33,5.3c0,.6-.05,1.08-.07,1.44a2.37,2.37,0,0,1-.06.51,2.91,2.91,0,0,1,0-.51c0-.36,0-.84,0-1.44,0-1.26.08-3.08.21-5.32s.37-4.91.71-7.86.84-6.19,1.47-9.56,1.37-6.56,2.11-9.44,1.51-5.44,2.21-7.58,1.29-3.85,1.74-5c.22-.55.39-1,.52-1.35A2,2,0,0,1,436.66,236.19Z" style="fill:#263238"></path><path d="M408.54,246.2a2.14,2.14,0,0,1,.28.39l.71,1.15c.63,1,1.48,2.49,2.48,4.36s2.13,4.11,3.29,6.65,2.33,5.4,3.43,8.43,2,6,2.76,8.67,1.31,5.16,1.72,7.23.71,3.76.88,4.93c.07.56.14,1,.19,1.35a4.12,4.12,0,0,1,0,.47,1.46,1.46,0,0,1-.12-.46c-.06-.34-.15-.79-.25-1.34-.21-1.16-.54-2.83-1-4.9s-1-4.5-1.8-7.19-1.68-5.61-2.77-8.64-2.27-5.86-3.39-8.41-2.24-4.8-3.22-6.67-1.79-3.38-2.37-4.4l-.66-1.19A2.73,2.73,0,0,1,408.54,246.2Z" style="fill:#263238"></path><rect x="417.87" y="280.73" width="16.8" height="1.58" rx="0.59" style="fill:#9038FF"></rect><path d="M440.15,298.47c-.55-6.15-5.4-7-6.33-7.64a2.89,2.89,0,0,1-.54-.51,4.13,4.13,0,0,1-.86-2.58v-6.22H420.26v6.22a4.13,4.13,0,0,1-.86,2.58,2.89,2.89,0,0,1-.54.51c-.93.65-5.78,1.49-6.34,7.64s-2.6,20.13,1,24.6c3.35,4.12,6.62,4.37,12.07,4.38h1.44c5.45,0,8.72-.26,12.07-4.38C442.76,318.6,440.71,304.62,440.15,298.47Z" style="fill:#9038FF"></path><path d="M434.28,282.36c0,.1-3.59.18-8,.18s-8-.08-8-.18,3.58-.18,8-.18S434.28,282.26,434.28,282.36Z" style="fill:#263238"></path><path d="M444,231.46a4.33,4.33,0,0,0-3.49-2.48,8.74,8.74,0,0,0-4.38.75A6.75,6.75,0,0,0,433,232a5,5,0,0,0-.32,4.52,9,9,0,0,0,2.9,3.63,15.62,15.62,0,0,0,5.13-2.32,8.53,8.53,0,0,0,2.85-2.62A4.29,4.29,0,0,0,444,231.46Z" style="fill:#455a64"></path><path d="M404.8,262a3.4,3.4,0,0,1,0-3.37,7,7,0,0,1,2.46-2.48,5.3,5.3,0,0,1,2.88-1,3.94,3.94,0,0,1,3.05,1.83,7.15,7.15,0,0,1,1,3.5,12.41,12.41,0,0,1-3.81,2.26,6.56,6.56,0,0,1-3,.65A3.37,3.37,0,0,1,404.8,262Z" style="fill:#455a64"></path><path d="M421.32,254.38a3.4,3.4,0,0,1,0-3.37,7,7,0,0,1,2.46-2.48,5.3,5.3,0,0,1,2.88-1,3.94,3.94,0,0,1,3.05,1.83,7.15,7.15,0,0,1,1,3.5,12.41,12.41,0,0,1-3.81,2.26,6.56,6.56,0,0,1-3,.65A3.37,3.37,0,0,1,421.32,254.38Z" style="fill:#455a64"></path><path d="M443.16,253.2a3.48,3.48,0,0,0,.47-3.39,6.94,6.94,0,0,0-2.14-2.82,5.31,5.31,0,0,0-2.76-1.41,4,4,0,0,0-3.3,1.43,7.12,7.12,0,0,0-1.51,3.38,12.45,12.45,0,0,0,3.52,2.78,6.65,6.65,0,0,0,2.9,1.05A3.42,3.42,0,0,0,443.16,253.2Z" style="fill:#455a64"></path><path d="M420.36,244.61a3.15,3.15,0,0,0-2.06-2.6,4.05,4.05,0,0,0-2.91.48,4.83,4.83,0,0,0-2.26,2,7,7,0,0,0-.58,4.35,8.9,8.9,0,0,0,1.57,3.68,9.16,9.16,0,0,0,3.53-2,7.1,7.1,0,0,0,2.07-2.37A6,6,0,0,0,420.36,244.61Z" style="fill:#455a64"></path><path d="M427.7,235.91a3.57,3.57,0,0,0-3.42,1.46,5.86,5.86,0,0,0-.82,3.47,5.49,5.49,0,0,0,1,3.24,6,6,0,0,0,3.94,2.15,8.87,8.87,0,0,0,4.25-.54,11.56,11.56,0,0,0-.34-4.68,7.45,7.45,0,0,0-1.37-3.16A5.13,5.13,0,0,0,427.7,235.91Z" style="fill:#455a64"></path><path d="M414.51,246.74a12.55,12.55,0,0,1-.1,1.81,37.1,37.1,0,0,0-.07,4.36,30.43,30.43,0,0,0,.54,4.31,13.37,13.37,0,0,1,.35,1.78,6.73,6.73,0,0,1-.6-1.72,21.28,21.28,0,0,1-.65-4.36,26.2,26.2,0,0,1,.17-4.39A7.62,7.62,0,0,1,414.51,246.74Z" style="fill:#263238"></path><path d="M417.83,265.05c-.1.05-.72-1.31-1.95-2.64a10.41,10.41,0,0,0-1.73-1.52c-.48-.34-.82-.46-.81-.52s.4,0,1,.3a7.79,7.79,0,0,1,1.86,1.49A6.27,6.27,0,0,1,417.83,265.05Z" style="fill:#263238"></path><path d="M430.4,252.49A5.23,5.23,0,0,1,431,255a5.34,5.34,0,0,1-.3,2.56c-.11,0,0-1.15-.06-2.54S430.3,252.52,430.4,252.49Z" style="fill:#263238"></path><path d="M434.72,249.21a12.39,12.39,0,0,1-1.54,2.53,11.67,11.67,0,0,1-1.85,2.33,12.39,12.39,0,0,1,1.55-2.54A12,12,0,0,1,434.72,249.21Z" style="fill:#263238"></path><path d="M432.44,249a6.74,6.74,0,0,1-.07-2.19,6.65,6.65,0,0,1,.28-2.18,6.37,6.37,0,0,1,.08,2.2A6.71,6.71,0,0,1,432.44,249Z" style="fill:#263238"></path><path d="M413.79,309.3a11.71,11.71,0,0,1-.24-2.3c-.08-1.44-.11-3.42,0-5.61,0-1.09.1-2.13.24-3.08a6.06,6.06,0,0,1,.83-2.42,3.64,3.64,0,0,1,1.23-1.21,1.39,1.39,0,0,1,.59-.22,4.28,4.28,0,0,0-1.6,1.57,6.1,6.1,0,0,0-.71,2.33c-.12.92-.16,2-.22,3.05-.1,2.18-.1,4.15-.09,5.58A17,17,0,0,1,413.79,309.3Z" style="fill:#263238"></path><path d="M393.51,415.66a2.28,2.28,0,0,1-.63-.09,2.07,2.07,0,0,1-1.51-2V388.82h.55v24.72a1.57,1.57,0,0,0,2.88.86l16.78-25.73.47.3L395.26,414.7A2.06,2.06,0,0,1,393.51,415.66Z" style="fill:#263238"></path><path d="M460.17,415.66a2.06,2.06,0,0,1-1.75-1L441.63,389l.47-.3,16.78,25.73a1.57,1.57,0,0,0,2.88-.86V388.82h.55v24.72a2.08,2.08,0,0,1-1.52,2A2.27,2.27,0,0,1,460.17,415.66Z" style="fill:#263238"></path><rect x="382.1" y="324.45" width="86.19" height="66.94" style="fill:#6f4439"></rect><path d="M463.28,354.66s0-.15,0-.43,0-.7,0-1.25c0-1.1,0-2.72,0-4.81,0-4.19,0-10.27-.05-17.91l.1.1-76.37.05h0l.15-.15c0,8.48,0,16.71,0,24.4l-.14-.14,54.64.06,15.95,0,4.28,0h-4.21l-15.92,0-54.74.07h-.15V330.12h.15l76.37.05h.1v.09c0,7.66,0,13.77-.06,18,0,2.08,0,3.69,0,4.79,0,.53,0,.94,0,1.23S463.28,354.66,463.28,354.66Z" style="fill:#263238"></path><path d="M463.28,383.59s0-.15,0-.43,0-.7,0-1.25c0-1.1,0-2.72,0-4.81,0-4.19,0-10.27-.05-17.9l.1.09-76.37,0h0l.15-.14c0,8.47,0,16.7,0,24.39l-.14-.14,54.64.07,15.95,0,4.28,0h0l-4.25,0-15.92,0-54.74.07h-.15V359.05h.15l76.37.05h.1v.1c0,7.65,0,13.76-.06,18,0,2.08,0,3.69,0,4.79,0,.53,0,.95,0,1.23S463.28,383.59,463.28,383.59Z" style="fill:#263238"></path><polygon points="409.44 330.12 411.92 332.64 440.36 332.64 443.19 330.12 409.44 330.12" style="fill:#263238"></polygon><polygon points="409.55 359.05 412.03 361.57 440.47 361.57 443.3 359.05 409.55 359.05" style="fill:#263238"></polygon></g><g id="freepik--Shelf--inject-16"><rect x="36.8" y="99.29" width="97.02" height="12.3" style="fill:#ae7461"></rect><path d="M129.79,95a4.78,4.78,0,0,1,7.37-3.11A8,8,0,0,1,130,95" style="fill:#455a64"></path><path d="M130.86,96a3.41,3.41,0,0,1-.69,3.79,8.69,8.69,0,0,1-3.5,2.08,6.21,6.21,0,0,1,4.21-6.24" style="fill:#455a64"></path><path d="M127.59,90.31a5.51,5.51,0,0,1-7.22,3.35,7.59,7.59,0,0,1,2.95-3.4,3.62,3.62,0,0,1,4.24.44" style="fill:#455a64"></path><path d="M128,88.84a3.25,3.25,0,0,1,3.42-1.72,5.62,5.62,0,0,1,3.41,2.12,5,5,0,0,1-6.72-.9" style="fill:#455a64"></path><path d="M132.18,101.64a4.41,4.41,0,0,1,0,4.82,7.78,7.78,0,0,1-4,3,10.29,10.29,0,0,1,.56-5,5.25,5.25,0,0,1,3.67-3.21" style="fill:#455a64"></path><path d="M129,85.2A4,4,0,0,0,123,83.4,3.45,3.45,0,0,0,129,85" style="fill:#455a64"></path><path d="M128.38,81.05a5.18,5.18,0,0,0,7.36-2.43,11.58,11.58,0,0,0-3.05-.67,5.05,5.05,0,0,0-3,.69,2.74,2.74,0,0,0-1.31,2.41" style="fill:#455a64"></path><path d="M125.69,79.38A4.24,4.24,0,0,0,127.22,73a8.88,8.88,0,0,0-2.71,3.42,3.4,3.4,0,0,0-.36,1.59,1.5,1.5,0,0,0,.87,1.3" style="fill:#455a64"></path><path d="M118.48,87.44s0,0,0-.11,0-.18,0-.3.11-.67.22-1.18a10.6,10.6,0,0,1,1.67-4,6.42,6.42,0,0,1,2.23-2,4.59,4.59,0,0,1,3.32-.41,3.88,3.88,0,0,1,1.62.84,3.51,3.51,0,0,1,1,1.58,7,7,0,0,1-.13,4,27.34,27.34,0,0,0-1,4,6.3,6.3,0,0,0,.06,2,4.1,4.1,0,0,0,.78,1.75,6.14,6.14,0,0,0,1.39,1.18,8.1,8.1,0,0,1,1.32,1,5.39,5.39,0,0,1,1.45,2.58,5.12,5.12,0,0,1,0,2.46,5.53,5.53,0,0,1-.71,1.72,6.93,6.93,0,0,1-1,1.24l.09-.07a1.58,1.58,0,0,0,.23-.2,5.53,5.53,0,0,0,.77-.92,5.54,5.54,0,0,0,.78-4.26,5.63,5.63,0,0,0-1.48-2.67c-.76-.82-1.93-1.25-2.68-2.2a4.8,4.8,0,0,1-.79-3.59,27,27,0,0,1,1-4,7.23,7.23,0,0,0,.12-4.14,3.74,3.74,0,0,0-1.1-1.67,4.06,4.06,0,0,0-1.7-.87,4.77,4.77,0,0,0-3.45.44,6.72,6.72,0,0,0-2.27,2A9,9,0,0,0,119.19,84a13.51,13.51,0,0,0-.49,1.84c-.09.51-.15.91-.18,1.18s0,.23,0,.31A.87.87,0,0,0,118.48,87.44Z" style="fill:#263238"></path><path d="M93.68,95.52a4,4,0,0,1-.7-1.24,3.5,3.5,0,0,1-.13-1.63,3.31,3.31,0,0,1,1-1.88,3.41,3.41,0,0,1,1.06-.69,4.09,4.09,0,0,1,1.34-.26c.95,0,2,.17,3.09.05a3.58,3.58,0,0,0,1.61-.56,2.57,2.57,0,0,0,1-1.48c.32-1.17.1-2.45.58-3.59a3.18,3.18,0,0,1,1.12-1.39,4.4,4.4,0,0,1,1.6-.7,4.46,4.46,0,0,1,3.22.56,6.87,6.87,0,0,1,2.19,2.09,8.28,8.28,0,0,1,1.11,2.42,28.33,28.33,0,0,1,.7,3.82q.11.66.15,1l0,.27a.66.66,0,0,0,0,.09v-.09l0-.28c0-.26-.06-.61-.11-1a24.86,24.86,0,0,0-.65-3.85,7.89,7.89,0,0,0-1.1-2.47,7,7,0,0,0-2.23-2.17,5.24,5.24,0,0,0-1.59-.6,4.23,4.23,0,0,0-1.77,0,4.33,4.33,0,0,0-1.68.73,3.32,3.32,0,0,0-1.19,1.47c-.5,1.22-.28,2.5-.58,3.62a2.33,2.33,0,0,1-.9,1.37,3.34,3.34,0,0,1-1.52.53c-1.07.13-2.1-.08-3.08,0a4,4,0,0,0-1.39.29,3.39,3.39,0,0,0-1.1.72,3.38,3.38,0,0,0-.85,3.65,3.3,3.3,0,0,0,.51.93A1.42,1.42,0,0,0,93.68,95.52Z" style="fill:#263238"></path><path d="M102.1,85.62A3.63,3.63,0,0,1,99,86.86a3.39,3.39,0,0,1-2.46-2,3.63,3.63,0,0,1,5.63.47" style="fill:#455a64"></path><path d="M99.68,89.81a3.66,3.66,0,0,1-.57,3.32,3.38,3.38,0,0,1-3,1,3.62,3.62,0,0,1,3.33-4.55" style="fill:#455a64"></path><path d="M93.55,91a3.69,3.69,0,0,1-3.25.89,3.4,3.4,0,0,1-2.23-2.31,3.85,3.85,0,0,1,3-.78,3.78,3.78,0,0,1,2.51,1.86" style="fill:#455a64"></path><path d="M106.41,82a3.82,3.82,0,0,0,.31-3.44A3.43,3.43,0,0,0,104,76.86a3.9,3.9,0,0,0-.13,3.13,3.81,3.81,0,0,0,2.35,2.06" style="fill:#455a64"></path><path d="M128.67,69.94s0,0,0-.08l-.16-.2a8.25,8.25,0,0,0-.7-.74,9.11,9.11,0,0,0-3.12-2,6.58,6.58,0,0,0-2.54-.43,5.93,5.93,0,0,0-2.84.84,4.8,4.8,0,0,0-2.11,2.48,16,16,0,0,0-.48,3.48,6,6,0,0,1-.4,1.69,4.9,4.9,0,0,1-1,1.37c-.39.41-.8.79-1.15,1.21a5.7,5.7,0,0,0-.86,1.37,7.13,7.13,0,0,0-.61,2.9,9.3,9.3,0,0,0,.32,2.56,19.93,19.93,0,0,0,1.31,3.49l.44.91.17.31a1.66,1.66,0,0,0-.13-.33c-.1-.23-.23-.54-.41-.93a20.94,20.94,0,0,1-1.24-3.48,10,10,0,0,1-.29-2.53,7.07,7.07,0,0,1,.61-2.82,5.46,5.46,0,0,1,.84-1.32c.34-.41.75-.78,1.14-1.2a5.06,5.06,0,0,0,1-1.43,6.49,6.49,0,0,0,.42-1.75,15,15,0,0,1,.46-3.43,4.6,4.6,0,0,1,2-2.39,5.81,5.81,0,0,1,2.75-.83,6.56,6.56,0,0,1,2.48.4A9.54,9.54,0,0,1,127.71,69c.32.3.56.55.71.71Z" style="fill:#263238"></path><path d="M114.84,76.71c.25-.34.44-.17.87-.17a2.68,2.68,0,0,1,1.22.35,4.81,4.81,0,0,1,2.43,4.65A3.72,3.72,0,0,1,115,76.66" style="fill:#455a64"></path><path d="M126.4,68.65c.08-.42.32-.35.71-.53a2.53,2.53,0,0,1,1.25-.21,4.78,4.78,0,0,1,4.19,3.15,3.73,3.73,0,0,1-6.06-2.53" style="fill:#455a64"></path><path d="M113.49,85a4.3,4.3,0,0,1,6.72-.9,5.34,5.34,0,0,1-3.2,2,5.44,5.44,0,0,1-3.74-.76" style="fill:#455a64"></path><path d="M113.46,79a4.34,4.34,0,0,1-5.27-4.31,3.9,3.9,0,0,1,5.4,4.25" style="fill:#455a64"></path><path d="M116.64,71.36A4.37,4.37,0,0,1,110.23,69a3.92,3.92,0,0,1,6.52,2.21" style="fill:#455a64"></path><path d="M117.72,68.86a4.37,4.37,0,0,1,6.41,2.32A3.91,3.91,0,0,1,117.62,69" style="fill:#455a64"></path><path d="M119.27,67.33a4.36,4.36,0,0,1-3.44-5.88,3.91,3.91,0,0,1,3.59,5.87" style="fill:#455a64"></path><path d="M123.86,66.71a4.45,4.45,0,0,1-.31-3.77,4.41,4.41,0,0,1,2.76-2.59A3.92,3.92,0,0,1,124,66.82" style="fill:#455a64"></path><rect x="104.82" y="85.76" width="19.9" height="3.53" style="fill:#9038FF"></rect><polygon points="106.31 88.59 108.98 99.53 121.22 99.53 123.24 88.59 106.31 88.59" style="fill:#9038FF"></polygon><path d="M124.71,89.29s-4.49.07-10,.07-10,0-10-.07,4.49-.07,10-.07S124.71,89.26,124.71,89.29Z" style="fill:#263238"></path><polygon points="41.33 98.82 41.22 88.79 46.68 88.79 46.86 98.82 41.33 98.82" style="fill:#f5f5f5"></polygon><path d="M46.35,90.58a21,21,0,0,1-2.53.08,21.27,21.27,0,0,1-2.54-.08,18,18,0,0,1,2.54-.09A17.77,17.77,0,0,1,46.35,90.58Z" style="fill:#e0e0e0"></path><path d="M46.35,92.12a17.77,17.77,0,0,1-2.53.09,18,18,0,0,1-2.54-.09A21.27,21.27,0,0,1,43.82,92,21,21,0,0,1,46.35,92.12Z" style="fill:#e0e0e0"></path><path d="M46.35,93.67a17.77,17.77,0,0,1-2.53.09,18,18,0,0,1-2.54-.09,18,18,0,0,1,2.54-.09A17.77,17.77,0,0,1,46.35,93.67Z" style="fill:#e0e0e0"></path><path d="M46.35,95.22a18.8,18.8,0,0,1-2.53.08,19,19,0,0,1-2.54-.08,18,18,0,0,1,2.54-.09A17.77,17.77,0,0,1,46.35,95.22Z" style="fill:#e0e0e0"></path><path d="M46.35,96.77a21,21,0,0,1-2.53.08,21.27,21.27,0,0,1-2.54-.08,18,18,0,0,1,2.54-.09A17.77,17.77,0,0,1,46.35,96.77Z" style="fill:#e0e0e0"></path><path d="M40.75,88.46h60.48a28.6,28.6,0,0,1,0,10.84H41v-.74h3.68a1.74,1.74,0,0,0,1.74-1.74v-6a1.74,1.74,0,0,0-1.74-1.74H40.75Z" style="fill:#9038FF"></path><path d="M99.14,99.5S99.05,97,99.05,94s0-5.56.09-5.56.08,2.48.08,5.56S99.19,99.5,99.14,99.5Z" style="fill:#263238"></path><path d="M49.65,99.5S49.56,97,49.56,94s0-5.56.09-5.56.08,2.48.08,5.56S49.69,99.5,49.65,99.5Z" style="fill:#263238"></path><path d="M100.2,99.5s-.09-2.49-.09-5.55,0-5.56.09-5.56.09,2.48.09,5.56S100.25,99.5,100.2,99.5Z" style="fill:#263238"></path><path d="M48.66,99.5S48.57,97,48.57,94s0-5.56.09-5.56.08,2.48.08,5.56S48.7,99.5,48.66,99.5Z" style="fill:#263238"></path><rect x="58.68" y="92.21" width="34.31" height="2.92" rx="1.31" style="fill:#fff"></rect><path d="M51.58,79.62V88h7.86V79.62Z" style="fill:#ebebeb"></path><path d="M94.73,78.91c1.23,3,1,6.23,0,9.69H51.16V88h2.77a4.19,4.19,0,0,0,4.19-4.19h0a4.18,4.18,0,0,0-4.19-4.19H51v-.89Z" style="fill:#455a64"></path><path d="M56.21,80.26s8.73.08,19.49.08,19.49,0,19.49-.08-8.73-.09-19.49-.09S56.21,80.21,56.21,80.26Z" style="fill:#fff"></path><path d="M55.84,87.54s8.77.08,19.59.08,19.6,0,19.6-.08-8.78-.09-19.6-.09S55.84,87.49,55.84,87.54Z" style="fill:#fff"></path><path d="M51.58,83.92a29.63,29.63,0,0,0,3.27.09,29.78,29.78,0,0,0,3.27-.09,29.78,29.78,0,0,0-3.27-.09A29.63,29.63,0,0,0,51.58,83.92Z" style="fill:#e0e0e0"></path><path d="M51.58,85.81a29.42,29.42,0,0,0,3,.08,29.3,29.3,0,0,0,3-.08,24.75,24.75,0,0,0-3-.09A24.86,24.86,0,0,0,51.58,85.81Z" style="fill:#e0e0e0"></path><path d="M51.54,87.53a13.18,13.18,0,0,0,2.18.09,13.1,13.1,0,0,0,2.17-.09,15.5,15.5,0,0,0-2.17-.08A15.59,15.59,0,0,0,51.54,87.53Z" style="fill:#e0e0e0"></path><path d="M51.52,82.22a27.56,27.56,0,0,0,3.15.09,27.45,27.45,0,0,0,3.14-.09s-1.41-.08-3.14-.08S51.52,82.18,51.52,82.22Z" style="fill:#e0e0e0"></path><path d="M51.58,80.53a17.41,17.41,0,0,0,2.43.08,17.29,17.29,0,0,0,2.43-.08A16.34,16.34,0,0,0,54,80.44,16.46,16.46,0,0,0,51.58,80.53Z" style="fill:#e0e0e0"></path><path d="M47.22,69.88v8.38H63.43V69.88Z" style="fill:#ebebeb"></path><path d="M99.57,74.15a1.62,1.62,0,0,0,0,.22,4.8,4.8,0,0,1-4.82,4.5H46.46v-.61H57.92a4.19,4.19,0,0,0,4.19-4.19h0a4.19,4.19,0,0,0-4.19-4.19H46.46V69l48.29.17A4.83,4.83,0,0,1,99.57,74.15Z" style="fill:#9038FF"></path><path d="M47.22,74.18s3.33.09,7.44.09,7.45,0,7.45-.09-3.34-.08-7.45-.08S47.22,74.14,47.22,74.18Z" style="fill:#e0e0e0"></path><path d="M47.46,76.07c0,.05,3.15.09,7,.09s7,0,7-.09-3.15-.08-7-.08S47.46,76,47.46,76.07Z" style="fill:#e0e0e0"></path><path d="M47.22,77.8s2.84.08,6.33.08,6.33,0,6.33-.08-2.83-.09-6.33-.09S47.22,77.75,47.22,77.8Z" style="fill:#e0e0e0"></path><path d="M47.22,72.49c0,.05,3.26.08,7.29.08s7.29,0,7.29-.08-3.26-.09-7.29-.09S47.22,72.44,47.22,72.49Z" style="fill:#e0e0e0"></path><path d="M47.46,70.79s2.9.09,6.48.09,6.49,0,6.49-.09-2.9-.08-6.49-.08S47.46,70.74,47.46,70.79Z" style="fill:#e0e0e0"></path><rect x="61.7" y="82.9" width="27.47" height="1.52" rx="0.68" transform="translate(150.87 167.33) rotate(180)" style="fill:#fff"></rect><rect x="67.19" y="73.34" width="27.47" height="1.52" rx="0.68" transform="translate(161.86 148.2) rotate(180)" style="fill:#fff"></rect><path d="M129.48,100.39a2.69,2.69,0,0,1-.15.23l-.46.64-.75,1c-.3.41-.65.88-1.08,1.38a51,51,0,0,1-8,7.78,57,57,0,0,1-6.35,4.35l-1.86,1c-.31.18-.63.35-1,.52l-1,.47-2,1-2.14.86a53.07,53.07,0,0,1-19.84,3.58A58.5,58.5,0,0,1,74.49,122a57.37,57.37,0,0,1-9.35-2.83L63,118.27c-.71-.29-1.36-.66-2-1-1.34-.62-2.55-1.39-3.76-2.07-.6-.35-1.15-.75-1.71-1.11s-1.12-.71-1.63-1.11l-1.51-1.13-.72-.56-.68-.58c-.89-.77-1.77-1.48-2.51-2.24s-1.49-1.42-2.1-2.14-1.21-1.33-1.72-1.95l-1.35-1.73a15.15,15.15,0,0,1-1-1.42l-.71-1.06-.43-.66A2.44,2.44,0,0,1,41,99.3s.07.06.17.21l.46.63c.21.29.46.64.74,1s.63.89,1.05,1.39l1.37,1.7c.52.61,1.12,1.24,1.74,1.93s1.36,1.36,2.11,2.1,1.62,1.45,2.51,2.21l.68.57.73.55,1.51,1.12c.5.4,1.07.72,1.62,1.09s1.11.75,1.71,1.1c1.2.67,2.41,1.42,3.75,2,.66.31,1.31.68,2,1l2.11.9a58.23,58.23,0,0,0,9.29,2.79,58.87,58.87,0,0,0,10.36,1.17,53.45,53.45,0,0,0,19.7-3.53l2.13-.85,2-.94,1-.46,1-.51,1.85-1a59.13,59.13,0,0,0,6.34-4.29,52.94,52.94,0,0,0,8-7.67c.44-.48.8-.94,1.11-1.35l.78-1,.49-.61A1.32,1.32,0,0,1,129.48,100.39Z" style="fill:#263238"></path><path d="M58.08,114.15a2.46,2.46,0,1,1-2.46-2.46A2.46,2.46,0,0,1,58.08,114.15Z" style="fill:#9038FF"></path><path d="M58.08,114.15s0-.22-.15-.58a2.43,2.43,0,0,0-.9-1.26,2.29,2.29,0,1,0-2.18,4A2.36,2.36,0,0,0,57,116a2.43,2.43,0,0,0,.9-1.26c.11-.36.11-.58.15-.58a1.08,1.08,0,0,1,0,.62,2.44,2.44,0,0,1-.88,1.44,2.56,2.56,0,0,1-2.46.41,2.63,2.63,0,0,1,0-5,2.58,2.58,0,0,1,2.46.42,2.41,2.41,0,0,1,.88,1.44A1.08,1.08,0,0,1,58.08,114.15Z" style="fill:#263238"></path><circle cx="69.98" cy="120.69" r="2.45" style="fill:#455a64"></circle><path d="M72.44,120.69s0-.22-.15-.59a2.46,2.46,0,0,0-.9-1.26,2.34,2.34,0,0,0-2.18-.29,2.27,2.27,0,0,0,0,4.27,2.34,2.34,0,0,0,2.18-.29,2.46,2.46,0,0,0,.9-1.26c.11-.37.11-.59.15-.58a1,1,0,0,1,0,.61,2.46,2.46,0,0,1-.88,1.45,2.58,2.58,0,0,1-2.46.41,2.63,2.63,0,0,1,0-5,2.58,2.58,0,0,1,2.46.42,2.41,2.41,0,0,1,.88,1.44A1.08,1.08,0,0,1,72.44,120.69Z" style="fill:#263238"></path><path d="M88.67,123a2.46,2.46,0,1,1-2.46-2.46A2.46,2.46,0,0,1,88.67,123Z" style="fill:#e0e0e0"></path><path d="M88.67,123s0-.22-.15-.58a2.47,2.47,0,0,0-.91-1.27,2.29,2.29,0,1,0,0,3.69,2.49,2.49,0,0,0,.91-1.26c.11-.37.11-.59.15-.58a1.3,1.3,0,0,1,0,.61,2.46,2.46,0,0,1-.88,1.45,2.6,2.6,0,0,1-2.47.41,2.63,2.63,0,0,1,0-4.95,2.6,2.6,0,0,1,2.47.42,2.41,2.41,0,0,1,.88,1.44A1.35,1.35,0,0,1,88.67,123Z" style="fill:#263238"></path><path d="M105.6,120a2.46,2.46,0,1,1-2.46-2.46A2.46,2.46,0,0,1,105.6,120Z" style="fill:#9038FF"></path><path d="M105.6,120s0-.22-.15-.58a2.47,2.47,0,0,0-.91-1.27,2.29,2.29,0,1,0,0,3.69,2.49,2.49,0,0,0,.91-1.26c.11-.36.11-.58.15-.58a1.32,1.32,0,0,1,0,.61,2.46,2.46,0,0,1-.88,1.45,2.6,2.6,0,0,1-2.47.41,2.63,2.63,0,0,1,0-5,2.6,2.6,0,0,1,2.47.42,2.41,2.41,0,0,1,.88,1.44A1.35,1.35,0,0,1,105.6,120Z" style="fill:#263238"></path><path d="M121.23,111.69a2.46,2.46,0,1,1-2.45-2.45A2.46,2.46,0,0,1,121.23,111.69Z" style="fill:#455a64"></path><path d="M121.23,111.69s0-.22-.15-.58a2.46,2.46,0,0,0-.9-1.26,2.33,2.33,0,0,0-2.18-.29,2.28,2.28,0,0,0,0,4.27,2.33,2.33,0,0,0,2.18-.29,2.44,2.44,0,0,0,.9-1.27c.11-.36.12-.58.15-.58a1.12,1.12,0,0,1,0,.62,2.41,2.41,0,0,1-.88,1.44,2.6,2.6,0,0,1-2.47.42,2.63,2.63,0,0,1,0-5,2.6,2.6,0,0,1,2.47.41,2.46,2.46,0,0,1,.88,1.45A1.09,1.09,0,0,1,121.23,111.69Z" style="fill:#263238"></path></g><g id="freepik--Device--inject-16"><rect x="191.87" y="109.12" width="182.14" height="323.32" rx="16.79" style="fill:#263238"></rect><path d="M191.91,404.09H374a0,0,0,0,1,0,0v11.83a16.46,16.46,0,0,1-16.46,16.46H209a17,17,0,0,1-17-17V404.09A0,0,0,0,1,191.91,404.09Z" style="fill:#455a64"></path><path d="M208.71,109.12H357.38A16.64,16.64,0,0,1,374,125.76v4.6a0,0,0,0,1,0,0H191.91a0,0,0,0,1,0,0v-4.43A16.8,16.8,0,0,1,208.71,109.12Z" style="fill:#455a64"></path><circle cx="283.38" cy="120.93" r="4.33" style="fill:#fff"></circle><path d="M343.75,139.64h0a25.73,25.73,0,0,1,25.72,25.73V404.08H199V142.61Z" style="fill:#ebebeb"></path><g style="opacity:0.30000000000000004"><path d="M194.63,424.56H305a33.66,33.66,0,0,0,33.65-33.65V168.54s.73-21.94,10-26.57l-56.3,9.26L297,396.15l-105,19.18S192,421.43,194.63,424.56Z"></path></g><path d="M164.82,181.9V420.08H294.39c20.27,0,36.71-11.87,36.71-44.62v-235H198.93C180.09,140.44,164.82,159,164.82,181.9Z" style="fill:#f5f5f5"></path><path d="M164.82,369.87s0-.24,0-.72,0-1.21,0-2.13c0-1.89,0-4.64-.05-8.18,0-7.12-.05-17.39-.08-30.08,0-25.41,0-60.5-.08-99.24v-28.3q0-6.84,0-13.45c0-4.38-.14-8.72.53-12.9A45.34,45.34,0,0,1,174.22,153a37.14,37.14,0,0,1,7.89-7.4,23,23,0,0,1,2.21-1.36l1.1-.64c.37-.2.76-.35,1.14-.53.77-.33,1.52-.68,2.28-1l2.31-.72a14.43,14.43,0,0,1,2.3-.53c.77-.12,1.52-.32,2.28-.38,1.52-.07,3-.23,4.43-.18l8.08,0,12.94,0,8.17,0,2.13,0,.73,0-.73,0-2.13,0-8.17,0-12.94.05-8.08,0c-1.44,0-2.89.13-4.39.2-.75.06-1.49.26-2.25.38a13.13,13.13,0,0,0-2.27.54l-2.28.72c-.75.3-1.49.65-2.24,1-.38.18-.77.32-1.13.53l-1.09.63a23.61,23.61,0,0,0-2.17,1.35,36.34,36.34,0,0,0-7.78,7.34,44.83,44.83,0,0,0-9,21.65c-.67,4.13-.48,8.45-.51,12.84v13.45c0,9.14,0,18.61,0,28.3,0,38.74-.06,73.83-.08,99.24,0,12.69-.06,23-.08,30.08,0,3.54,0,6.29,0,8.18,0,.92,0,1.63,0,2.13S164.82,369.87,164.82,369.87Z" style="fill:#263238"></path><circle cx="200.9" cy="198.3" r="14.86" style="fill:#9038FF"></circle><polygon points="200.03 205.28 192.35 199.35 194.42 196.67 199.57 200.65 206.89 192.22 209.45 194.44 200.03 205.28" style="fill:#fff"></polygon><path d="M351.28,140.84c-10.49,3.61-20.24,11.65-20.21,26.62v25.07H319.66V140.2l26.32-.5A14.08,14.08,0,0,1,351.28,140.84Z" style="fill:#f5f5f5"></path><rect x="227.89" y="190.65" width="73.84" height="8.67" style="fill:#e0e0e0"></rect><rect x="227.89" y="209.77" width="45.07" height="8.67" style="fill:#e0e0e0"></rect><circle cx="200.9" cy="253.93" r="14.86" style="fill:#9038FF"></circle><rect x="227.89" y="246.28" width="73.84" height="8.67" style="fill:#e0e0e0"></rect><rect x="227.89" y="265.41" width="45.07" height="8.67" style="fill:#e0e0e0"></rect><path d="M200.9,324.93a15.36,15.36,0,1,1,15.36-15.36A15.38,15.38,0,0,1,200.9,324.93Zm0-29.72a14.36,14.36,0,1,0,14.36,14.36A14.37,14.37,0,0,0,200.9,295.21Z" style="fill:#9038FF"></path><rect x="227.89" y="301.92" width="73.84" height="8.67" style="fill:#e0e0e0"></rect><rect x="227.89" y="321.05" width="45.07" height="8.67" style="fill:#e0e0e0"></rect><path d="M200.9,380.57a15.36,15.36,0,1,1,15.36-15.36A15.38,15.38,0,0,1,200.9,380.57Zm0-29.72a14.36,14.36,0,1,0,14.36,14.36A14.37,14.37,0,0,0,200.9,350.85Z" style="fill:#9038FF"></path><rect x="227.89" y="357.56" width="73.84" height="8.67" style="fill:#e0e0e0"></rect><rect x="227.89" y="376.68" width="45.07" height="8.67" style="fill:#e0e0e0"></rect><g style="opacity:0.30000000000000004"><path d="M288.83,380.07H274l-7.73,15.47c0,.34,20.16,24.54,20.16,24.54h11.72C277.12,412.88,288.83,380.07,288.83,380.07Z"></path></g><path d="M115.82,369.87c0,1.17-4.32,44,24,50.21H298.16S268.29,410,275,369.87Z" style="fill:#ebebeb"></path><polygon points="200.03 261.48 192.35 255.55 194.42 252.87 199.57 256.85 206.89 248.42 209.45 250.64 200.03 261.48" style="fill:#fff"></polygon><path d="M294.39,420.08l.79-.05,2.34-.12c1,0,2.29-.26,3.79-.42.75-.08,1.53-.31,2.38-.47a18.46,18.46,0,0,0,2.67-.69,30.33,30.33,0,0,0,12.28-6.87,35.17,35.17,0,0,0,9.58-15.92,60.14,60.14,0,0,0,2.13-10.73c.1-.95.19-1.9.29-2.87s.08-1.95.13-2.94c.07-2,.14-4,.11-6.06,0-8.23,0-17,0-26.29,0-18.51,0-38.87,0-60.23,0-42.74.05-81.43.06-109.44,0-3.51,0-6.83,0-10a30,30,0,0,1,1.59-8.78,25.37,25.37,0,0,1,3.66-6.84,29.58,29.58,0,0,1,4.46-4.77,28.7,28.7,0,0,1,7.67-4.71,21.91,21.91,0,0,1,3-1l-.75.28c-.5.17-1.24.44-2.18.85a29.54,29.54,0,0,0-7.58,4.77,28.91,28.91,0,0,0-4.39,4.77,25.08,25.08,0,0,0-3.59,6.79,30,30,0,0,0-1.53,8.69c-.05,3.15,0,6.49,0,10,0,28,.05,66.7.09,109.44,0,21.36,0,41.72,0,60.23,0,9.26,0,18.06,0,26.29,0,2.06-.05,4.08-.12,6.07-.05,1,0,2-.14,3l-.3,2.89a59.63,59.63,0,0,1-2.18,10.78,35.31,35.31,0,0,1-9.73,16,30.49,30.49,0,0,1-12.42,6.86,20.2,20.2,0,0,1-2.69.66c-.86.16-1.65.38-2.4.45-1.5.15-2.77.36-3.8.38l-2.35.06Z" style="fill:#263238"></path><path d="M139.79,420.08s-.36-.07-1.07-.25l-1.31-.34c-.52-.15-1.1-.39-1.77-.62a25.2,25.2,0,0,1-10-7c-3.53-4-6.54-9.91-8.25-17.15a83.65,83.65,0,0,1-1.79-24.86v-.21h.2l79.25-.05,79.9.05h.25l0,.25c-1.5,8.94-1.25,17.39.7,24.44a38.87,38.87,0,0,0,18.44,23.86,31.83,31.83,0,0,0,2.84,1.44c.65.29,1,.43,1,.43a8.14,8.14,0,0,1-1-.37,28,28,0,0,1-2.87-1.38,38.15,38.15,0,0,1-9.55-7.44,39.12,39.12,0,0,1-9.16-16.45c-2-7.1-2.28-15.61-.79-24.6l.21.25-79.9,0-79.25,0,.22-.22a83.83,83.83,0,0,0,1.7,24.78c1.67,7.2,4.63,13.1,8.1,17.07a25.4,25.4,0,0,0,9.85,7c.66.24,1.23.49,1.75.65l1.3.37Z" style="fill:#263238"></path><path d="M307.68,125.29c.46-5.29,4.78-9.4,9.21-12.33a7.5,7.5,0,0,0,1.94-1.6,2.34,2.34,0,0,0,.36-2.37c-.51-1-1.79-1.22-2.89-1.34l-5.33-.57,1-7.48a38.38,38.38,0,0,1,9.06,1.56,13.07,13.07,0,0,1,7.21,5.43,7.94,7.94,0,0,1-.25,8.68c-1.41,1.81-3.7,2.76-5.16,4.52a7,7,0,0,0-.9,7.28c.82,1.69,2.36,3.14,2.41,5,.07,2.57-2.74,4.31-5.3,4.53a10.46,10.46,0,0,1-11.34-11.33Z" style="fill:#9038FF"></path><path d="M311.1,109.71a17.24,17.24,0,0,0,1.48-16A19,19,0,0,0,300.34,83a21.18,21.18,0,0,0-16.2,2.17,45.23,45.23,0,0,1-5.5,3.2c-2,.79-9,1.83-10.72.6l-9.15,19.21,4.27,1.16Z" style="fill:#9038FF"></path><path d="M238.72,100.7s-5.47-4.57-5.29-6c.3-2.44,7.27-2.85,7.27-2.85s.1-2.14,3.79-4.93,5.63-2.78,5.63-2.78,1.8-8.6,4.38-8.5,6.22,9.29,6.22,9.29,7.52,1,8.33,8.12-1.26,14-5.32,14.89-19.72,5.25-22.8-2" style="fill:#9038FF"></path><path d="M251.28,100l.26,0A.58.58,0,0,0,251.28,100Z" style="fill:#455a64"></path><polygon points="251.54 99.92 251.54 99.92 251.55 99.91 251.54 99.92" style="fill:#455a64"></polygon><g style="opacity:0.30000000000000004"><path d="M252.23,84.21a21.12,21.12,0,0,1,5.88.44q-1-2.58-1.9-5.18c-.19-.5-.63-1.24-1.16-1.24a1.31,1.31,0,0,0-1,.68,18.86,18.86,0,0,0-1.71,5.16"></path></g><g style="opacity:0.30000000000000004"><path d="M294.72,97.48a31.18,31.18,0,0,0-3.17-5.55,7.56,7.56,0,0,0-3.2,8,8.07,8.07,0,0,0-6.08,3,5.2,5.2,0,0,0,.22,6.46l8.78-1.21a6.27,6.27,0,0,0,4.09-4.54A10.3,10.3,0,0,0,294.72,97.48Z"></path></g><path d="M297.06,88.82c-8.08-.5-8.69,8.29-5.37,13.3a10.83,10.83,0,0,0-7,1.07,5.34,5.34,0,0,0-2.39,2.21c-.49,1,.17,3.54,1,4.31h24" style="fill:#9038FF"></path><path d="M307.25,109.71a2.84,2.84,0,0,1-.47,0l-1.36,0-5.05,0-17.08.05h-.07l0-.05a4.89,4.89,0,0,1-1-2.14,3.82,3.82,0,0,1,.05-2.43,5.22,5.22,0,0,1,2-2,10.45,10.45,0,0,1,2.46-1.06,10.83,10.83,0,0,1,5-.26l-.15.22a11.78,11.78,0,0,1-1.86-7.08A6.87,6.87,0,0,1,292.17,90a6.63,6.63,0,0,1,3.54-1.23h1l.34,0-.35,0-1,0a6.8,6.8,0,0,0-3.44,1.28,6.68,6.68,0,0,0-2.32,5,11.64,11.64,0,0,0,1.85,6.9l.18.28-.33-.06a10.74,10.74,0,0,0-4.89.27,10.13,10.13,0,0,0-2.39,1,4.81,4.81,0,0,0-1.86,1.83,3.54,3.54,0,0,0,0,2.21,4.79,4.79,0,0,0,.91,2l-.11,0,17.08,0,5.05,0,1.36,0A2.42,2.42,0,0,1,307.25,109.71Z" style="fill:#263238"></path><path d="M313,94.82a7.25,7.25,0,0,1,.45,1.67,19,19,0,0,1,.31,4.16,19.35,19.35,0,0,1-.62,4.13,6.46,6.46,0,0,1-.58,1.63,13.91,13.91,0,0,1,.37-1.68,25.31,25.31,0,0,0,.52-4.09,24.32,24.32,0,0,0-.22-4.11A15.45,15.45,0,0,1,313,94.82Z" style="fill:#263238"></path><g style="opacity:0.30000000000000004"><path d="M262.61,109.74a8.84,8.84,0,0,1,4.11-7.45,6.23,6.23,0,0,1,1.06-6.15c.12,1.82,1.59,3.27,2.09,5a6.41,6.41,0,0,1-.69,4.74,15.64,15.64,0,0,1-3.12,3.77,5.61,5.61,0,0,1-1.48,1.09,2,2,0,0,1-1.78,0"></path></g><path d="M268.17,95.55a6.46,6.46,0,0,0,.29,6.64,1.81,1.81,0,0,1,.42.87c0,.55-.47,1-.91,1.3a22.36,22.36,0,0,0-5.59,6.16s-4.34,7.2.1,10.34,7.5-4.43,9.31-6.48a39.14,39.14,0,0,1,6-4.78c3.63-1.79,3.62-3.77,3.42-5.25a10.53,10.53,0,0,0-1.7-4.13,42,42,0,0,1-2.39-3.82" style="fill:#9038FF"></path><path d="M277.12,96.4a1.63,1.63,0,0,1,.15.25l.44.73c.38.63,1,1.51,1.78,2.66a10.49,10.49,0,0,1,1.87,4.62,4,4,0,0,1-.77,3,7.76,7.76,0,0,1-2.74,2.08h0c-1,.68-2.07,1.43-3.12,2.24a19.22,19.22,0,0,0-3,2.77c-.85,1.12-1.57,2.43-2.46,3.65a8.64,8.64,0,0,1-3.4,3.13,3.45,3.45,0,0,1-1.74.23c-.28-.06-.56-.17-.84-.25s-.5-.27-.75-.41a4.78,4.78,0,0,1-1.95-2.65,9.57,9.57,0,0,1,.76-6.1,17.55,17.55,0,0,1,3-4.72,22.65,22.65,0,0,1,3.56-3.32,2.75,2.75,0,0,0,.75-.73.82.82,0,0,0,0-.88,7.94,7.94,0,0,1-.9-1.66,6.61,6.61,0,0,1-.39-3,6.08,6.08,0,0,1,.49-1.86,3.53,3.53,0,0,1,.32-.59,7.13,7.13,0,0,0-.69,2.46,6.6,6.6,0,0,0,.43,2.93,8.52,8.52,0,0,0,.92,1.64,1,1,0,0,1,0,1.08,3.12,3.12,0,0,1-.79.79,22.45,22.45,0,0,0-3.5,3.32,17.1,17.1,0,0,0-2.93,4.66,9.31,9.31,0,0,0-.74,5.9,4.53,4.53,0,0,0,1.83,2.48,3.11,3.11,0,0,0,3,.4,8.48,8.48,0,0,0,3.27-3c.89-1.21,1.59-2.5,2.47-3.66a19.74,19.74,0,0,1,3.09-2.81c1.07-.81,2.12-1.55,3.15-2.23h0a7.77,7.77,0,0,0,2.67-2,3.77,3.77,0,0,0,.74-2.82,10.22,10.22,0,0,0-1.79-4.55c-.74-1.17-1.35-2.07-1.71-2.71A9.67,9.67,0,0,1,277.12,96.4Z" style="fill:#263238"></path><g style="opacity:0.4"><path d="M246.66,97.28l.33-.63a3.45,3.45,0,0,1,.47-1l-4.75-7.08a13.91,13.91,0,0,1,3.57-2.88,28,28,0,0,0,3.4,8.25,3.61,3.61,0,0,1,1-.18,4.06,4.06,0,0,1,2.87,7.09,4.14,4.14,0,0,1-6.87-3.56Z" style="fill:#fff"></path></g><path d="M249.88,94.24a4.11,4.11,0,0,0-2.24,1.7.31.31,0,0,0,.13.55l1.58.3a.31.31,0,0,0,.35-.21l.66-2A.31.31,0,0,0,249.88,94.24Z" style="fill:#263238"></path><path d="M249.46,96.65s0,.1.12.25a2.85,2.85,0,0,0,.47.6,2.81,2.81,0,0,0,.94.63,2.72,2.72,0,0,0,1.38.16,2.24,2.24,0,0,0,1.86-1.54,1.82,1.82,0,0,0,.09-.75,1,1,0,0,0,0-.28,2.66,2.66,0,0,1-.13,1,2.12,2.12,0,0,1-.6.9,2.3,2.3,0,0,1-1.19.54A2.47,2.47,0,0,1,251,98a2.78,2.78,0,0,1-.93-.57A4.62,4.62,0,0,1,249.46,96.65Z" style="fill:#263238"></path><path d="M247.22,100.38a.72.72,0,0,0,.24.1,3.87,3.87,0,0,0,.68.2,2,2,0,0,0,1.05-.05,1.74,1.74,0,0,0,.93-.9,2.34,2.34,0,0,0,.2-1.28,3.46,3.46,0,0,0-.32-1,4.09,4.09,0,0,0-.36-.61,1,1,0,0,0-.16-.2s.19.31.44.85a3.47,3.47,0,0,1,.27,1,2.13,2.13,0,0,1-.19,1.2,1.58,1.58,0,0,1-.85.84,2,2,0,0,1-1,.08C247.58,100.49,247.23,100.35,247.22,100.38Z" style="fill:#263238"></path><path d="M250.45,100.22a1,1,0,0,0,.43.1,1.89,1.89,0,0,0,1-.26,1.86,1.86,0,0,0,.71-.8c.11-.25.12-.42.1-.42s-.06.15-.19.38a1.93,1.93,0,0,1-1.65,1C250.62,100.23,250.46,100.2,250.45,100.22Z" style="fill:#263238"></path><path d="M248.78,85.35a7.66,7.66,0,0,1,2.84-2,2,2,0,0,0-.44,1.19,10.72,10.72,0,0,1,5.22-1l-.79,1L251.47,87Z" style="fill:#9038FF"></path><path d="M246.56,96.21a3.63,3.63,0,1,1-5-1.34A3.63,3.63,0,0,1,246.56,96.21Z" style="fill:#fff"></path><path d="M246.56,96.21a4.61,4.61,0,0,0-.55-.69,3.61,3.61,0,0,0-2.14-1,3.58,3.58,0,0,0-3.18,1.25,3.1,3.1,0,0,0-.54.87,3.27,3.27,0,0,0-.28,1,3.57,3.57,0,0,0,.45,2.17,3.52,3.52,0,0,0,1.65,1.48,3.25,3.25,0,0,0,1,.29,3.54,3.54,0,0,0,1,0,3.59,3.59,0,0,0,2.85-4.49,4.51,4.51,0,0,0-.32-.84s0,0,0,.05l.08.15a1.62,1.62,0,0,1,.12.26,2.12,2.12,0,0,1,.13.36,3.44,3.44,0,0,1,.15,1,3.6,3.6,0,0,1-.28,1.37,3.66,3.66,0,0,1-1,1.38,3.7,3.7,0,0,1-1.76.83,3.75,3.75,0,0,1-1.06,0,3.41,3.41,0,0,1-1.07-.29,3.62,3.62,0,0,1-1.71-1.53,3.72,3.72,0,0,1-.47-2.26,3.53,3.53,0,0,1,.29-1.07,3.59,3.59,0,0,1,.56-.9,3.65,3.65,0,0,1,3.3-1.26,3.54,3.54,0,0,1,1.32.45,3.28,3.28,0,0,1,.83.65,2.09,2.09,0,0,1,.25.3,1.38,1.38,0,0,1,.16.23l.09.15S246.57,96.21,246.56,96.21Z" style="fill:#263238"></path><path d="M241,100.25c-.92-1-1.23-2.16-.69-2.68s1.74-.18,2.66.78,1.24,2.16.69,2.69S241.94,101.21,241,100.25Z" style="fill:#9038FF"></path><path d="M242.93,97.6c.12.06,0,.5-.23,1s-.55.81-.67.75,0-.51.22-1S242.8,97.53,242.93,97.6Z" style="fill:#fff"></path><path d="M257.57,89.27a3.63,3.63,0,1,1-5-1.34A3.63,3.63,0,0,1,257.57,89.27Z" style="fill:#fff"></path><path d="M257.57,89.27a8.38,8.38,0,0,0-.56-.69,3.61,3.61,0,0,0-2.13-1,3.61,3.61,0,0,0-3.19,1.25,3.35,3.35,0,0,0-.54.87,3.27,3.27,0,0,0-.28,1A3.56,3.56,0,0,0,254,94.63a3.48,3.48,0,0,0,1,0,3.62,3.62,0,0,0,1.71-.8,3.51,3.51,0,0,0,1-1.33,3.62,3.62,0,0,0,.17-2.36,7.5,7.5,0,0,0-.32-.84l0,0,.08.15a1.06,1.06,0,0,1,.12.26,1.51,1.51,0,0,1,.13.36,3.2,3.2,0,0,1,.15,1,3.42,3.42,0,0,1-.28,1.37,3.66,3.66,0,0,1-1,1.38,3.7,3.7,0,0,1-1.76.83,3.13,3.13,0,0,1-1.06,0,3.22,3.22,0,0,1-1.07-.29,3.66,3.66,0,0,1-1.71-1.53,3.72,3.72,0,0,1-.47-2.26A3.53,3.53,0,0,1,251,89.6a3.75,3.75,0,0,1,2.17-2,3.69,3.69,0,0,1,1.69-.16,3.48,3.48,0,0,1,1.32.45,3.52,3.52,0,0,1,.83.65,2.09,2.09,0,0,1,.25.3,1.38,1.38,0,0,1,.16.23l.09.15Z" style="fill:#263238"></path><path d="M252.09,93.11c-.86-1-1.1-2.24-.52-2.73s1.74-.06,2.6,1,1.1,2.23.53,2.72S253,94.12,252.09,93.11Z" style="fill:#9038FF"></path><path d="M254.24,90.58c.11.08-.05.5-.36.94s-.66.73-.77.65,0-.5.36-.94S254.13,90.49,254.24,90.58Z" style="fill:#fff"></path><path d="M253,95.8s4-2.29,8.85-5.17,8.81-5.25,8.79-5.29-4,2.29-8.85,5.17S252.94,95.77,253,95.8Z" style="fill:#263238"></path><path d="M252.91,96.51s.06,0,.17-.06l.45-.19,1.67-.74c1.4-.64,3.32-1.55,5.41-2.63s3.95-2.1,5.29-2.87c.67-.38,1.2-.69,1.57-.92l.42-.26c.1-.06.15-.09.15-.1l-.16.08-.44.24-1.59.88c-1.34.75-3.21,1.76-5.3,2.84s-4,2-5.39,2.66l-1.65.77-.45.22Z" style="fill:#263238"></path><path d="M237.15,108.51s2.61-2.11,5.77-4.78,5.7-4.85,5.68-4.88-2.6,2.11-5.77,4.78S237.13,108.48,237.15,108.51Z" style="fill:#263238"></path><path d="M240.73,108.89s1.78-2,3.91-4.44,3.83-4.51,3.8-4.53-1.77,2-3.9,4.44S240.7,108.86,240.73,108.89Z" style="fill:#263238"></path><path d="M248.18,95.63s.36-.29.83-.6.9-.49.89-.52a2.29,2.29,0,0,0-1,.41A2.22,2.22,0,0,0,248.18,95.63Z" style="fill:#fff"></path><g style="opacity:0.30000000000000004"><path d="M314.81,101.19a1.67,1.67,0,0,0-1.15-1.36,70,70,0,0,1-1,7.3c1.18-.66,1.74-2.76,2-4.08A4.91,4.91,0,0,0,314.81,101.19Z"></path></g></g><g id="freepik--Character--inject-16"><path d="M156.32,260.72s6.64,28.35,6.92,46,.57,45.67-3.1,76.6-6.8,44.57-6.8,44.57l-13-2s-.4-18.69-1.71-34.26c-1.46-17.29,1.26-23.75-.41-42.83s-8.09-31.26-10.87-37c0,0-7.69-9.14-8.25-21.68s2.46-29.32,2.46-29.32Z" style="fill:#ffbf9d"></path><path d="M136.89,299.19c-.31.95-4.68,23-8.71,40.19s-6.7,33.14-10.49,46.58c-5.57,19.75-10.38,39.78-10.38,39.78l-14.07,1.32c.92-.65,0-29.66,4.9-52.64,4.89-22.82,6.82-51.74,6.2-60.31s-1.23-18.16.94-30.17,5.92-16.17,5.92-16.17L128,267Z" style="fill:#ffbf9d"></path><path d="M100.15,327.14l30.24,3.92.83-5.65,1.38,5.11,32.33-.42c-.67-17.77-1.45-34.89-3.54-44.33l-57.89-3.42s-1.59,13.27-2,20.14C100.94,311.18,100.15,327.14,100.15,327.14Z" style="fill:#9038FF"></path><path d="M132.2,330.28a11.8,11.8,0,0,1-.21-1.56,38.72,38.72,0,0,0-.76-4.19,40.81,40.81,0,0,0-5.64-12.79c-1.5-2.31-3-4.46-4.2-6.56a23.33,23.33,0,0,1-2.44-5.91,14,14,0,0,1-.41-4.29,8.5,8.5,0,0,1,.16-1.16,1.32,1.32,0,0,1,.11-.39,16.51,16.51,0,0,0,.5,5.75,23.43,23.43,0,0,0,2.5,5.76c1.18,2.06,2.71,4.19,4.22,6.52a38.65,38.65,0,0,1,5.56,13,28.91,28.91,0,0,1,.6,4.26c0,.51,0,.9,0,1.17A1.18,1.18,0,0,1,132.2,330.28Z" style="fill:#263238"></path><path d="M140.13,418.85c.15,1.6.37,8.35-.17,10.24a35.2,35.2,0,0,0-1.29,5.66c-.27,2-.3,4.15,1.14,5.42,2.06,1.81,5.05.87,7.68.66,6.89-.55,11.33,3.48,18,1.67a6.61,6.61,0,0,0,3.62-2.27,4.46,4.46,0,0,0,.65-4.32c-1-2.38-4-2.66-6.37-3.07-5-.84-6-2.24-9.19-6.43l1.66-12.27Z" style="fill:#ffbf9d"></path><path d="M93.9,415.57c.15,1.6-.39,11.63-.93,13.52a35.2,35.2,0,0,0-1.29,5.66c-.27,2-.3,4.15,1.14,5.42,2.06,1.81,5.05.87,7.68.66,6.89-.55,11.33,3.48,18,1.67a6.61,6.61,0,0,0,3.62-2.27,4.46,4.46,0,0,0,.65-4.32c-1-2.38-4-2.66-6.37-3.07-5-.84-6-2.24-9.19-6.43l1.66-12.27Z" style="fill:#ffbf9d"></path><path d="M115.24,147a11.48,11.48,0,0,1,8.85.91,6.83,6.83,0,0,1,11.79,1.8,5.78,5.78,0,0,1,5.81,9.85,7.43,7.43,0,0,1,3.1,11.3c2.23,1.08,2.61,4.09,2.28,6.54s-1,5.08.06,7.29c.85,1.71,2.6,2.77,3.8,4.26s1.62,4.05,0,5.06a5.16,5.16,0,1,1-1.87,10.14,6.35,6.35,0,0,1-.68,6.08,10.2,10.2,0,0,1-5.08,3.7,15.15,15.15,0,0,1-16.57-4.68l-18.28-56.5A11.48,11.48,0,0,1,115.24,147Z" style="fill:#263238"></path><path d="M106.55,162.64l-.25-3L124.43,155c5.61-.93,12.07,4.36,12.77,10,.77,6.28,1.47,14,1,18.73-.93,9.54-8.11,11.18-8.11,11.18l.52,9.39-20.89,1.52Z" style="fill:#ffbf9d"></path><path d="M135,174a1.21,1.21,0,0,1-1.1,1.29,1.16,1.16,0,0,1-1.31-1,1.22,1.22,0,0,1,1.09-1.3A1.17,1.17,0,0,1,135,174Z" style="fill:#263238"></path><path d="M135.44,169.15c-.14.17-1.1-.46-2.41-.37s-2.22.79-2.37.64.06-.36.46-.69A3.28,3.28,0,0,1,133,168a3.1,3.1,0,0,1,1.92.5C135.35,168.8,135.51,169.08,135.44,169.15Z" style="fill:#263238"></path><path d="M123.54,174.73a1.21,1.21,0,0,1-1.1,1.29,1.17,1.17,0,0,1-1.32-1,1.21,1.21,0,0,1,1.1-1.29A1.17,1.17,0,0,1,123.54,174.73Z" style="fill:#263238"></path><path d="M122.62,170.17c-.14.16-1.1-.46-2.4-.38s-2.22.79-2.37.64.06-.36.46-.69a3.39,3.39,0,0,1,1.88-.71,3.25,3.25,0,0,1,1.93.5C122.54,169.81,122.69,170.09,122.62,170.17Z" style="fill:#263238"></path><path d="M127.94,179.56a9.22,9.22,0,0,1,2.1-.51c.33-.05.64-.14.68-.37a1.58,1.58,0,0,0-.28-1c-.36-.79-.74-1.62-1.14-2.48a44.16,44.16,0,0,1-2.61-6.51,42.48,42.48,0,0,1,3.13,6.28l1.1,2.5a1.93,1.93,0,0,1,.25,1.3.84.84,0,0,1-.52.52,2.62,2.62,0,0,1-.56.11A8.72,8.72,0,0,1,127.94,179.56Z" style="fill:#263238"></path><path d="M130.1,195a25.09,25.09,0,0,1-13.19-2.62s3.59,6.43,13.32,5Z" style="fill:#ff9a6c"></path><path d="M122.32,165.66c-.13.36-1.43.19-3,.37s-2.78.61-3,.29c-.09-.15.12-.49.62-.83a4.9,4.9,0,0,1,2.21-.77,4.82,4.82,0,0,1,2.32.27C122.1,165.21,122.38,165.49,122.32,165.66Z" style="fill:#263238"></path><path d="M135.12,165.92c-.21.31-1.13.07-2.21.13s-2,.33-2.21,0,0-.45.4-.76a3.21,3.21,0,0,1,3.56-.14C135.07,165.47,135.21,165.77,135.12,165.92Z" style="fill:#263238"></path><path d="M127,182.73a2.28,2.28,0,0,0-2-1,2.12,2.12,0,0,0-1.49.7,1.35,1.35,0,0,0-.18,1.52,1.55,1.55,0,0,0,1.66.51,4.86,4.86,0,0,0,1.68-.89,1.69,1.69,0,0,0,.39-.36.44.44,0,0,0,0-.48" style="fill:#ff9a6c"></path><path d="M123.88,180.37c.21,0,.14,1.38,1.28,2.43s2.63,1,2.63,1.16-.34.25-1,.24a3.44,3.44,0,0,1-2.19-.89,3,3,0,0,1-1-2C123.62,180.69,123.79,180.35,123.88,180.37Z" style="fill:#263238"></path><path d="M101.63,211.69l-.91-1.61s-5.79,7.18-6.42,11.72c-.52,3.76-3.34,24.12-4.78,33.71a13.71,13.71,0,0,0,3,11c2.5,2.9,6.27,4.94,11.37,1.51,3.5-2.36,12.47-12,12.47-12Z" style="fill:#ffbf9d"></path><path d="M111.24,257l-25.09-4s5-27.22,6.7-30.53a92.84,92.84,0,0,1,4.84-8.07L110,240.77Z" style="fill:#e0e0e0"></path><path d="M165,297.21s-1-10.06-3-21.39c-2.39-13.81-10.29-37.63-10.29-37.63l-42.49,19.57.77,8.77s-9,17-9.78,30.86C119.5,303.88,142.39,302.73,165,297.21Z" style="fill:#e0e0e0"></path><path d="M97.86,208.33l35.61-5.69s9.88,16.05,13.58,32.91,5.15,28.91,5.15,28.91l-28.92,4.39c-3.43.39-8.09,4.5-11.51,4l-3.42-.48,2.81-10.71A203.86,203.86,0,0,1,101,234C96.58,217.41,97.86,208.33,97.86,208.33Z" style="fill:#e0e0e0"></path><path d="M182.44,213.84c-.11.31-13.95,19.26-13.95,19.26s-12.92-13.41-16.85-18.34l-6.72,21.58s13.31,13.3,19.21,15.51,10.48-1.17,13-3.59,13.22-27.1,13.22-27.1Z" style="fill:#ffbf9d"></path><path d="M130.12,203.17a11.81,11.81,0,0,1,11.21.19C147,206.71,169,229.21,169,229.21L155.11,247l-21.42-20.75-1.35-12.48Z" style="fill:#e0e0e0"></path><path d="M168.83,241.8a40.26,40.26,0,0,0-.13-8.31,21.56,21.56,0,0,0-.15,4.16A20.36,20.36,0,0,0,168.83,241.8Z" style="fill:#ff9a6c"></path><g style="opacity:0.30000000000000004"><path d="M148.44,240.49c-3.67-.5-7.19-1.24-9.62-3.81A14,14,0,0,1,135,227.3C139.87,231.73,144.21,236.5,148.44,240.49Z"></path></g><path d="M169,229.21s-.06.14-.22.37l-.74,1-2.8,3.79-9.62,12.69-.18.24-.22-.21-3.09-2.94L138.43,231l-4.11-4-1.1-1.12c-.24-.25-.37-.4-.35-.41a2.64,2.64,0,0,1,.43.35l1.17,1,4.22,3.93,13.81,13.09,3.08,2.95-.4,0L165,234.21l2.93-3.69.81-1A1.87,1.87,0,0,1,169,229.21Z" style="fill:#263238"></path><path d="M109.5,265.77a12.05,12.05,0,0,1-.13-2.08c0-1.43-.05-3.3-.09-5.5v.08c-1-2.53-2.1-5.5-3.32-8.7-1.65-4.37-3.11-8.33-4.15-11.21l-1.2-3.41a6.92,6.92,0,0,1-.37-1.28,7.18,7.18,0,0,1,.56,1.21l1.36,3.35c1.12,2.85,2.64,6.79,4.28,11.16l3.25,8.72v.08c0,2.21-.06,4.07-.09,5.5A12.92,12.92,0,0,1,109.5,265.77Z" style="fill:#263238"></path><path d="M198.72,199.16s0-2.74-2.61-1.12-11.44,10.53-14.18,15.48l-4.87,7.87,9.74,7.76,2.78-6.79s7.64-4.46,8.68-5.18,2.74-4.49-.83-3.88c0,0,1.42-3.74-2.15-3.58,0,0,1-2.82-2.47-3.37Z" style="fill:#ffbf9d"></path><g style="opacity:0.30000000000000004"><path d="M99.15,209.22l22.51-4.69c.81,1.87-.64,7-2.62,7.56a7.2,7.2,0,0,1-5.71,10.74,6.63,6.63,0,0,0-1.78.22c-1.23.44-1.82,1.8-2.56,2.88a6.73,6.73,0,0,1-4.15,2.88,4.94,4.94,0,0,1-4.68-1.56c-1.09-1.32-1.27-3.16-1.35-4.87A86.31,86.31,0,0,1,99.15,209.22Z"></path></g><path d="M107.2,138.79c-2.15-2.63-5.59-2.56-7.76-1.79a6.18,6.18,0,0,0-4,5.16,6.47,6.47,0,0,0-5.68,11.59A5.34,5.34,0,0,0,99.22,158l9.23-10.48A8.09,8.09,0,0,0,107.2,138.79Z" style="fill:#263238"></path><path d="M110.33,147.41a3,3,0,0,0-2.49-.6,9.34,9.34,0,0,0-2.45,1,3,3,0,0,0-1,.72,1,1,0,0,0-.16,1.15,2.84,2.84,0,1,0-.77,5.26l-1.21.39a10.89,10.89,0,0,0,7-2.68A5.36,5.36,0,0,0,111,150.2,2.77,2.77,0,0,0,110.33,147.41Z" style="fill:#9038FF"></path><path d="M136.79,160.87a1,1,0,0,0,.31.13,2.82,2.82,0,0,0,1,.07,3.93,3.93,0,0,0,2.93-2,3.79,3.79,0,0,0,.41-2.5A5.13,5.13,0,0,0,140.1,154a5.52,5.52,0,0,0-2.78-1.59,7.41,7.41,0,0,0-3.44,0,9.08,9.08,0,0,0-1.88.67l.29.12a7.92,7.92,0,0,0-4-4.19,7.68,7.68,0,0,0-7.56.79,4.82,4.82,0,0,0-.65.54c-.13.14-.2.22-.19.23s.32-.25.93-.64a7.8,7.8,0,0,1,2.85-1.11,7.24,7.24,0,0,1,4.45.55,7.62,7.62,0,0,1,3.82,4l.09.22.21-.1a8.63,8.63,0,0,1,1.79-.64,7.1,7.1,0,0,1,3.24,0,5.24,5.24,0,0,1,2.59,1.45,4.87,4.87,0,0,1,1.26,2.37,3.5,3.5,0,0,1-.32,2.29,3.8,3.8,0,0,1-2.68,2A4.75,4.75,0,0,1,136.79,160.87Z" style="fill:#455a64"></path><path d="M91,174.43s-.17-.4-.37-1.14a7.69,7.69,0,0,1-.17-3.24,7,7,0,0,1,2.27-4.18,7.32,7.32,0,0,1,5.54-1.8l.33,0-.09-.31a8.87,8.87,0,0,1,1.77-8.24,8.68,8.68,0,0,1,4.66-2.79,9.34,9.34,0,0,1,3.72-.11c.88.16,1.34.34,1.36.3s-.11-.07-.33-.16a6.24,6.24,0,0,0-1-.31,8.92,8.92,0,0,0-3.83,0,8.83,8.83,0,0,0-4.9,2.83,9.32,9.32,0,0,0-2.24,6.53,8.78,8.78,0,0,0,.36,2.09l.23-.28a7.68,7.68,0,0,0-5.85,2,7.16,7.16,0,0,0-2.3,4.43,7.39,7.39,0,0,0,.3,3.33,5.55,5.55,0,0,0,.36.83C90.91,174.35,91,174.44,91,174.43Z" style="fill:#455a64"></path><path d="M137.16,158.21a15.92,15.92,0,0,0-8.63-5.7l-15.31,1.93-1.31,0c-.28-1-1.91-1.47-1.91-1.47-1.44-1.11-6.42-1.17-9.9,2.46-1.25,1.31-2.14,4.61-2.17,6.42,0,.69.72,1.63.15,2A15.81,15.81,0,0,1,96,164c-3.89.86-6.33,4.31-5.62,9.47a2.59,2.59,0,0,1,.08.78,2.14,2.14,0,0,1-.68,1,6.78,6.78,0,0,0-1.07,7.53,7.91,7.91,0,0,1,1,2.25c.24,1.47-.84,2.79-1.67,4-2.5,3.71-3,9.1-.11,12.48.42.48.91.94,1.3,1.44a18.32,18.32,0,0,0-.9,5.91c.12,4.37,2.79,9,7,9.91a4.69,4.69,0,0,0,1.91,5.92,6.21,6.21,0,0,0,6.49-.43,9.38,9.38,0,0,0,3.63-5.64,5.91,5.91,0,0,0,8.15-7.33,3.8,3.8,0,0,0,4.51-2.05,6.26,6.26,0,0,0-.21-5.26,17.39,17.39,0,0,0-3-4.15,6.28,6.28,0,0,0,1-4.92c-.42-2.19-2.17-3.34-2.69-5.16-.23-.79.43-4.83-.46-6.36-.7-1.22-1.92-2.08-2.52-3.35-.87-1.85-.2-4,.18-6a20,20,0,0,0-1.26-11.37,10.56,10.56,0,0,1-.1-1.14c0-2.32,2.91-1.08,5.11-.34a5.46,5.46,0,0,0,1.65.3,5.88,5.88,0,0,0,4.73-2.24,8.45,8.45,0,0,0,8.34,2.28,23.31,23.31,0,0,0,4,4.61,7.74,7.74,0,0,0,5.61,1.92A15.93,15.93,0,0,0,137.16,158.21Z" style="fill:#263238"></path></g></svg>
