<svg width="32" height="32" viewBox="0 0 32 32" fill="none" xmlns="http://www.w3.org/2000/svg">
<path opacity="0.4" d="M31.0437 15.0771L30.074 25.6813C29.7455 28.8094 28.463 32 21.5813 32H9.66331C2.78156 32 1.49905 28.8094 1.18624 25.697L0.232178 15.5151C0.247818 15.5307 0.263459 15.5464 0.294739 15.562C0.826512 15.9061 1.34264 16.2502 1.9057 16.563C2.12466 16.7037 2.35927 16.8289 2.59387 16.954C4.36123 17.9237 6.25372 18.6901 8.20876 19.2218C8.99078 19.4564 9.78844 19.6285 10.6017 19.7693C10.9145 22.2717 13.0573 24.2111 15.6379 24.2111C18.2499 24.2111 20.4083 22.2248 20.6898 19.6754V19.6598C21.4874 19.5034 22.2851 19.3 23.0671 19.0654C25.0222 18.4555 26.9146 17.6422 28.682 16.6099C28.7758 16.563 28.854 16.5161 28.9166 16.4691C29.6361 16.0781 30.3242 15.6246 30.9811 15.1554C31.0124 15.1397 31.0281 15.1084 31.0437 15.0771Z" fill="#3EAEFF"/>
<path d="M29.853 8.14863C28.5235 6.67843 26.3183 5.94334 23.0807 5.94334H22.7053V5.88077C22.7053 3.25319 22.7053 0 16.8246 0H14.4472C8.56639 0 8.56639 3.25319 8.56639 5.88077V5.94334H8.19102C4.95347 5.94334 2.73254 6.67843 1.41875 8.14863C-0.129647 9.88471 -0.0827254 12.1838 0.0736782 13.7635L0.0893185 13.873L0.230082 15.5152C0.245722 15.5308 0.277003 15.5465 0.308283 15.5621C0.840055 15.9062 1.35619 16.2503 1.91924 16.5631C2.1382 16.7039 2.37281 16.829 2.60742 16.9541C4.37478 17.9238 6.26726 18.6902 8.20666 19.222C8.25358 23.2728 11.5693 26.5573 15.6359 26.5573C19.7337 26.5573 23.0651 23.2259 23.0651 19.1281V19.0656C25.0357 18.4712 26.9282 17.6423 28.6956 16.61C28.7894 16.5631 28.852 16.5162 28.9302 16.4693C29.6497 16.0783 30.3378 15.6247 30.9947 15.1555C31.0104 15.1398 31.0416 15.1086 31.0573 15.0773L31.1198 14.5142L31.198 13.7791C31.2137 13.6853 31.2137 13.6071 31.2293 13.4976C31.3545 11.9336 31.3232 9.77522 29.853 8.14863ZM10.803 5.88077C10.803 3.22191 10.803 2.22093 14.4472 2.22093H16.8246C20.4688 2.22093 20.4688 3.22191 20.4688 5.88077V5.94334H10.803V5.88077ZM15.6359 24.2112C13.0552 24.2112 10.9124 22.2718 10.5996 19.7694C10.5684 19.5661 10.5527 19.3471 10.5527 19.1281C10.5527 16.3285 12.8363 14.045 15.6359 14.045C18.4355 14.045 20.719 16.3285 20.719 19.1281C20.719 19.3158 20.7034 19.4879 20.6877 19.6599V19.6755C20.4062 22.2249 18.2478 24.2112 15.6359 24.2112Z" fill="#3EAEFF"/>
<path d="M14.7472 22.3033C14.4501 22.3033 14.1529 22.1938 13.9183 21.9592L12.3698 20.4264C11.9163 19.9729 11.9163 19.2221 12.3698 18.7686C12.8235 18.315 13.5742 18.315 14.0278 18.7686L14.7785 19.5193L17.2966 17.2045C17.7658 16.7666 18.5166 16.7979 18.9545 17.2671C19.3924 17.7363 19.3611 18.487 18.8919 18.925L15.5605 22.0061C15.3103 22.1938 15.0288 22.3033 14.7472 22.3033Z" fill="#3EAEFF"/>
</svg>
