<svg width="199" height="58" viewBox="0 0 199 58" fill="none" xmlns="http://www.w3.org/2000/svg">
<path d="M72.08 31.08C73 31.08 73.66 31.28 74.06 31.68C74.5 32.08 74.72 32.6 74.72 33.24C74.72 34.28 74.4 35.2 73.76 36C73.16 36.8 72.2 37.22 70.88 37.26C67.72 37.3 64.88 37.06 62.36 36.54C59.56 42.5 56.18 47.46 52.22 51.42C48.3 55.34 44.42 57.3 40.58 57.3C37.06 57.3 34.42 55.44 32.66 51.72C30.9 47.96 29.9 42.94 29.66 36.66C27.26 43.62 24.54 48.8 21.5 52.2C18.5 55.6 15.3 57.3 11.9 57.3C8.06 57.3 5.16 54.92 3.2 50.16C1.24 45.36 0.26 38.92 0.26 30.84C0.26 24.96 0.78 18.5 1.82 11.46C2.1 9.46 2.6 8.08 3.32 7.32C4.08 6.52 5.26 6.12 6.86 6.12C8.06 6.12 8.98 6.38 9.62 6.9C10.3 7.42 10.64 8.38 10.64 9.78C10.64 10.06 10.6 10.6 10.52 11.4C9.32 19.6 8.72 26.58 8.72 32.34C8.72 37.7 9.18 41.84 10.1 44.76C11.02 47.68 12.26 49.14 13.82 49.14C15.22 49.14 16.9 47.68 18.86 44.76C20.86 41.8 22.84 37.44 24.8 31.68C26.76 25.88 28.42 18.98 29.78 10.98C30.1 9.14 30.68 7.88 31.52 7.2C32.4 6.48 33.58 6.12 35.06 6.12C36.3 6.12 37.2 6.4 37.76 6.96C38.36 7.48 38.66 8.28 38.66 9.36C38.66 10 38.62 10.5 38.54 10.86C37.42 17.38 36.86 23.9 36.86 30.42C36.86 34.86 37 38.4 37.28 41.04C37.6 43.68 38.18 45.7 39.02 47.1C39.9 48.46 41.16 49.14 42.8 49.14C44.72 49.14 46.86 47.7 49.22 44.82C51.58 41.9 53.74 38.28 55.7 33.96C53.26 32.44 51.42 30.48 50.18 28.08C48.94 25.64 48.32 22.84 48.32 19.68C48.32 16.52 48.8 13.86 49.76 11.7C50.76 9.5 52.1 7.86 53.78 6.78C55.5 5.7 57.4 5.16 59.48 5.16C62.04 5.16 64.06 6.08 65.54 7.92C67.06 9.76 67.82 12.28 67.82 15.48C67.82 20 66.84 25.02 64.88 30.54C66.92 30.9 69.32 31.08 72.08 31.08ZM54.38 19.26C54.38 23.18 55.64 26.08 58.16 27.96C59.72 23.48 60.5 19.78 60.5 16.86C60.5 15.18 60.28 13.96 59.84 13.2C59.4 12.4 58.8 12 58.04 12C56.96 12 56.08 12.64 55.4 13.92C54.72 15.16 54.38 16.94 54.38 19.26ZM119.228 7.26C120.348 7.42 121.108 7.76 121.508 8.28C121.948 8.8 122.168 9.48 122.168 10.32C122.168 13.08 120.688 14.36 117.728 14.16L115.628 13.98C113.268 13.78 110.908 13.62 108.548 13.5C106.228 13.38 103.788 13.32 101.228 13.32H98.5278C98.0478 19.24 97.5478 24.64 97.0278 29.52L107.348 29.34C108.828 29.34 109.808 29.6 110.288 30.12C110.808 30.64 111.068 31.34 111.068 32.22C111.068 33.58 110.668 34.66 109.868 35.46C109.068 36.22 107.928 36.6 106.448 36.6H96.1878L95.8278 39.18C94.9878 45.78 93.1878 50.48 90.4278 53.28C87.7078 56.08 83.9478 57.48 79.1478 57.48C76.4278 57.48 73.9278 56.9 71.6478 55.74C69.3678 54.54 67.6878 53.1 66.6078 51.42C66.1678 50.74 65.9478 49.92 65.9478 48.96C65.9478 48 66.1678 47.16 66.6078 46.44C67.0878 45.72 67.6678 45.36 68.3478 45.36C68.8278 45.36 69.2878 45.52 69.7278 45.84C70.2078 46.16 70.8078 46.78 71.5278 47.7C73.4478 50.22 75.8278 51.48 78.6678 51.48C80.9478 51.48 82.8478 50.56 84.3678 48.72C85.9278 46.84 86.9278 43.9 87.3678 39.9L87.7278 36.6H84.8478C83.9278 36.6 83.1278 36.34 82.4478 35.82C81.8078 35.3 81.4878 34.56 81.4878 33.6C81.4878 32.36 81.8078 31.42 82.4478 30.78C83.0878 30.1 84.0278 29.76 85.2678 29.76C86.3878 29.76 87.4878 29.74 88.5678 29.7C89.0478 25.3 89.5678 19.96 90.1278 13.68C85.8078 14.08 82.7678 14.78 81.0078 15.78C79.2478 16.78 78.3678 18.26 78.3678 20.22C78.3678 21.58 78.7678 22.88 79.5678 24.12C79.8078 24.48 79.9278 24.84 79.9278 25.2C79.9278 25.92 79.5278 26.56 78.7278 27.12C77.9278 27.64 77.0278 27.9 76.0278 27.9C74.9478 27.9 74.0278 27.58 73.2678 26.94C72.7878 26.54 72.3278 25.72 71.8878 24.48C71.4478 23.24 71.2278 21.86 71.2278 20.34C71.2278 15.38 73.7678 11.78 78.8478 9.54C83.9678 7.3 91.4278 6.18 101.228 6.18C108.028 6.18 114.028 6.54 119.228 7.26ZM134.343 43.62C134.863 43.62 135.263 43.86 135.543 44.34C135.863 44.82 136.023 45.48 136.023 46.32C136.023 47.92 135.643 49.16 134.883 50.04C133.163 52.16 131.283 53.9 129.243 55.26C127.243 56.62 124.963 57.3 122.403 57.3C118.883 57.3 116.263 55.7 114.543 52.5C112.863 49.3 112.023 45.16 112.023 40.08C112.023 35.2 112.643 29.64 113.883 23.4C115.163 17.16 117.023 11.8 119.463 7.32C121.943 2.84 124.883 0.599997 128.283 0.599997C130.203 0.599997 131.703 1.5 132.783 3.3C133.903 5.06 134.463 7.6 134.463 10.92C134.463 15.68 133.143 21.2 130.503 27.48C127.863 33.76 124.283 39.98 119.763 46.14C120.043 47.78 120.503 48.96 121.143 49.68C121.783 50.36 122.623 50.7 123.663 50.7C125.303 50.7 126.743 50.24 127.983 49.32C129.223 48.36 130.803 46.74 132.723 44.46C133.203 43.9 133.743 43.62 134.343 43.62ZM126.963 6.54C126.043 6.54 125.003 8.2 123.843 11.52C122.683 14.84 121.663 18.96 120.783 23.88C119.903 28.8 119.423 33.52 119.343 38.04C122.183 33.36 124.443 28.68 126.123 24C127.803 19.28 128.643 14.98 128.643 11.1C128.643 8.06 128.083 6.54 126.963 6.54ZM161.773 38.58C162.293 38.58 162.693 38.84 162.973 39.36C163.253 39.88 163.393 40.54 163.393 41.34C163.393 43.26 162.813 44.4 161.653 44.76C159.253 45.6 156.613 46.08 153.733 46.2C152.973 49.56 151.473 52.26 149.233 54.3C146.993 56.3 144.453 57.3 141.613 57.3C139.213 57.3 137.153 56.72 135.433 55.56C133.753 54.4 132.473 52.86 131.593 50.94C130.713 49.02 130.273 46.94 130.273 44.7C130.273 41.66 130.853 38.96 132.013 36.6C133.173 34.2 134.773 32.34 136.813 31.02C138.853 29.66 141.113 28.98 143.593 28.98C146.633 28.98 149.073 30.04 150.913 32.16C152.793 34.24 153.893 36.82 154.213 39.9C156.093 39.78 158.333 39.38 160.933 38.7C161.253 38.62 161.533 38.58 161.773 38.58ZM142.093 50.94C143.373 50.94 144.473 50.42 145.393 49.38C146.353 48.34 146.993 46.84 147.313 44.88C146.073 44.04 145.113 42.94 144.433 41.58C143.793 40.22 143.473 38.78 143.473 37.26C143.473 36.62 143.533 35.98 143.653 35.34H143.353C141.753 35.34 140.413 36.12 139.333 37.68C138.293 39.2 137.773 41.36 137.773 44.16C137.773 46.36 138.193 48.04 139.033 49.2C139.913 50.36 140.933 50.94 142.093 50.94ZM194.769 28.98C196.969 28.98 198.069 29.68 198.069 31.08C198.069 31.56 197.909 32.22 197.589 33.06C194.349 40.62 191.289 46.72 188.409 51.36C186.969 53.64 185.669 55.2 184.509 56.04C183.349 56.88 182.029 57.3 180.549 57.3C178.949 57.3 177.749 56.68 176.949 55.44C176.189 54.2 175.709 52.16 175.509 49.32C175.429 48.28 175.349 46.72 175.269 44.64C174.029 48.08 172.889 50.72 171.849 52.56C170.849 54.36 169.849 55.6 168.849 56.28C167.889 56.96 166.729 57.3 165.369 57.3C163.729 57.3 162.429 56.66 161.469 55.38C160.549 54.1 159.969 52.08 159.729 49.32C159.249 43.72 159.009 38.82 159.009 34.62V32.52C159.049 31.16 159.389 30.24 160.029 29.76C160.669 29.24 161.709 28.98 163.149 28.98C164.189 28.98 164.949 29.22 165.429 29.7C165.949 30.14 166.209 30.9 166.209 31.98C166.209 36.58 166.489 42.56 167.049 49.92C168.369 47.12 169.589 44.44 170.709 41.88C171.829 39.32 173.129 36.04 174.609 32.04C175.049 30.84 175.569 30.04 176.169 29.64C176.809 29.2 177.549 28.98 178.389 28.98C179.509 28.98 180.349 29.22 180.909 29.7C181.469 30.14 181.749 30.9 181.749 31.98V41.28C181.749 45.28 181.769 48.16 181.809 49.92C183.649 46.72 185.149 43.94 186.309 41.58C187.509 39.22 188.849 36.04 190.329 32.04C190.769 30.84 191.349 30.04 192.069 29.64C192.789 29.2 193.689 28.98 194.769 28.98Z" fill="url(#paint0_linear_13_570)"/>
<defs>
<linearGradient id="paint0_linear_13_570" x1="-7" y1="26.5" x2="204" y2="31" gradientUnits="userSpaceOnUse">
<stop stop-color="#00B9E1"/>
<stop offset="1" stop-color="#8500EE"/>
</linearGradient>
</defs>
</svg>
