<svg width="20" height="20" viewBox="0 0 20 20" fill="none" xmlns="http://www.w3.org/2000/svg">
<path opacity="0.4" d="M10 20C15.5228 20 20 15.5229 20 10C20 4.47715 15.5228 0 10 0C4.47715 0 0 4.47715 0 10C0 15.5229 4.47715 20 10 20Z" fill="#009220"/>
<path d="M12.2602 10.1001L10.7502 9.5701V6.1801H11.1102C11.9202 6.1801 12.5802 6.8901 12.5802 7.7601C12.5802 8.1701 12.9202 8.5101 13.3302 8.5101C13.7402 8.5101 14.0802 8.1701 14.0802 7.7601C14.0802 6.0601 12.7502 4.6801 11.1102 4.6801H10.7502V4.1001C10.7502 3.6901 10.4102 3.3501 10.0002 3.3501C9.5902 3.3501 9.2502 3.6901 9.2502 4.1001V4.6801H8.6002C7.12016 4.6801 5.91016 5.9301 5.91016 7.4601C5.91016 9.2501 6.95016 9.8201 7.74016 10.1001L9.2502 10.6301V14.0101H8.8902C8.0802 14.0101 7.42016 13.3001 7.42016 12.4301C7.42016 12.0201 7.08016 11.6801 6.67016 11.6801C6.26016 11.6801 5.92016 12.0201 5.92016 12.4301C5.92016 14.1301 7.25016 15.5101 8.8902 15.5101H9.2502V16.1001C9.2502 16.5101 9.5902 16.8501 10.0002 16.8501C10.4102 16.8501 10.7502 16.5101 10.7502 16.1001V15.5201H11.4002C12.8802 15.5201 14.0902 14.2701 14.0902 12.7401C14.0802 10.9401 13.0402 10.3701 12.2602 10.1001ZM8.2402 8.6901C7.73016 8.5101 7.42016 8.3401 7.42016 7.4701C7.42016 6.7601 7.95016 6.1901 8.6102 6.1901H9.2602V9.0501L8.2402 8.6901ZM11.4002 14.0201H10.7502V11.1601L11.7602 11.5101C12.2702 11.6901 12.5802 11.8601 12.5802 12.7301C12.5802 13.4401 12.0502 14.0201 11.4002 14.0201Z" fill="#009220"/>
</svg>
