<svg width="24" height="21" viewBox="0 0 24 21" fill="none" xmlns="http://www.w3.org/2000/svg">
<path d="M21.75 16.9102V19.9102H1.75V16.9102C1.75 16.3602 2.2 15.9102 2.75 15.9102H20.75C21.3 15.9102 21.75 16.3602 21.75 16.9102Z" fill="#9038FF" stroke="#9038FF" stroke-width="1.5" stroke-miterlimit="10" stroke-linecap="round" stroke-linejoin="round"/>
<path opacity="0.6" d="M7.75 8.91016H3.75V15.9102H7.75V8.91016Z" fill="#9038FF"/>
<path opacity="0.4" d="M11.75 8.91016H7.75V15.9102H11.75V8.91016Z" fill="#9038FF"/>
<path opacity="0.6" d="M15.75 8.91016H11.75V15.9102H15.75V8.91016Z" fill="#9038FF"/>
<path opacity="0.4" d="M19.75 8.91016H15.75V15.9102H19.75V8.91016Z" fill="#9038FF"/>
<path d="M22.75 20.6602H0.75C0.34 20.6602 0 20.3202 0 19.9102C0 19.5002 0.34 19.1602 0.75 19.1602H22.75C23.16 19.1602 23.5 19.5002 23.5 19.9102C23.5 20.3202 23.16 20.6602 22.75 20.6602Z" fill="#9038FF"/>
<path d="M21.12 3.65998L12.12 0.06C11.92 -0.02 11.58 -0.02 11.38 0.06L2.38 3.65998C2.03 3.79998 1.75 4.20997 1.75 4.58997V7.90998C1.75 8.45996 2.2 8.90996 2.75 8.90996H20.75C21.3 8.90996 21.75 8.45996 21.75 7.90998V4.58997C21.75 4.20997 21.47 3.79998 21.12 3.65998ZM11.75 6.40998C10.92 6.40998 10.25 5.73998 10.25 4.90998C10.25 4.07998 10.92 3.40998 11.75 3.40998C12.58 3.40998 13.25 4.07998 13.25 4.90998C13.25 5.73998 12.58 6.40998 11.75 6.40998Z" fill="#9038FF"/>
</svg>
