<svg width="18" height="20" viewBox="0 0 18 20" fill="none" xmlns="http://www.w3.org/2000/svg">
<path opacity="0.4" d="M13.5 0H3.86C1.74 0 0 1.74 0 3.86V17.95C0 19.75 1.29 20.51 2.87 19.64L7.74999 16.93C8.26999 16.64 9.10999 16.64 9.61999 16.93L14.5 19.64C16.08 20.52 17.37 19.76 17.37 17.95V3.86C17.36 1.74 15.63 0 13.5 0Z" fill="#9038FF"/>
<path d="M7.76898 11.3397C7.57898 11.3397 7.38898 11.2697 7.23898 11.1197L5.73898 9.61974C5.44898 9.32974 5.44898 8.84975 5.73898 8.55975C6.02898 8.26975 6.50898 8.26975 6.79898 8.55975L7.76898 9.52975L11.239 6.05979C11.529 5.76979 12.009 5.76979 12.299 6.05979C12.589 6.34979 12.589 6.82978 12.299 7.11978L8.29898 11.1197C8.14898 11.2697 7.95898 11.3397 7.76898 11.3397Z" fill="#9038FF"/>
</svg>
