<svg width="87" height="62" viewBox="0 0 87 62" fill="none" xmlns="http://www.w3.org/2000/svg">
<path d="M33.8765 45.1805L43.6767 11.9316L51.7405 11.8778C52.1672 11.875 52.5318 12.0005 52.8343 12.2545C53.1369 12.5085 53.378 12.9335 53.5577 13.5297L58.5447 30.0402C58.7907 30.7852 59.0152 31.5197 59.2182 32.2437C59.3998 32.9678 59.571 33.7026 59.7317 34.4482C59.8697 33.7006 60.029 32.9529 60.2097 32.205C60.369 31.4573 60.5603 30.7094 60.7837 29.9612L65.3335 13.4511C65.6366 12.3398 66.3322 11.7805 67.4202 11.7732L75.1 11.722L85.9073 44.8335L77.9715 44.8864C77.2675 44.8911 76.6783 44.7244 76.2038 44.3862C75.7083 44.0695 75.3715 43.6664 75.1934 43.177L71.6396 28.3209C71.3451 27.1922 71.0831 26.0953 70.8536 25.0302C70.6244 23.9864 70.4164 22.9318 70.2296 21.8664C69.9684 22.9348 69.6965 23.9926 69.4137 25.0398C69.1099 26.1084 68.7852 27.2093 68.4397 28.3422L64.5061 43.2802C64.3429 43.772 64.029 44.1794 63.5645 44.5025C63.1004 44.8469 62.5483 45.0213 61.9084 45.0255L57.4925 45.055C56.7885 45.0597 56.1992 44.8929 55.7247 44.5548C55.2292 44.2381 54.8924 43.835 54.7143 43.3455L50.5201 28.4617C50.1829 27.3333 49.8569 26.2368 49.5421 25.1723C49.2059 24.1079 48.9016 23.0326 48.6291 21.9464C48.4746 23.0141 48.2881 24.082 48.0696 25.1501C47.8512 26.2182 47.6013 27.3292 47.3202 28.4831L44.026 43.3848C43.8628 43.8766 43.549 44.284 43.0845 44.6071C42.6204 44.9515 42.0683 45.1258 41.4283 45.1301L33.8765 45.1805Z" fill="url(#paint0_linear_909_896)"/>
<path d="M52.7421 17.1833L41.9038 50.2901L33.84 50.233C33.4134 50.23 33.0528 50.0994 32.7582 49.8413C32.4637 49.5832 32.2359 49.155 32.0749 48.5565L27.6055 31.9811C27.3829 31.2329 27.1814 30.4955 27.0011 29.7689C26.8421 29.0424 26.694 28.3054 26.5567 27.5578C26.3953 28.3033 26.2126 29.0486 26.0086 29.7938C25.8259 30.5392 25.6112 31.2843 25.3645 32.0293L20.2992 48.4731C19.9613 49.5801 19.2484 50.1297 18.1604 50.122L10.4806 50.0676L0.711429 16.8149L8.64723 16.8711C9.35121 16.8761 9.93512 17.0509 10.3989 17.3955C10.8844 17.719 11.2086 18.1266 11.3713 18.6184L14.4595 33.52C14.7186 34.6525 14.9463 35.7528 15.1424 36.8208C15.3389 37.8675 15.5139 38.9247 15.6674 39.9925C15.9619 38.9279 16.2669 37.8741 16.5824 36.831C16.9196 35.7667 17.2786 34.6706 17.6595 33.5427L22.0596 18.6621C22.2381 18.1727 22.5647 17.7697 23.0391 17.453C23.514 17.1151 24.0714 16.9483 24.7113 16.9529L29.1272 16.9841C29.8312 16.9891 30.4151 17.1639 30.8789 17.5085C31.3644 17.832 31.6886 18.2396 31.8513 18.7314L35.579 33.6695C35.8808 34.8023 36.1724 35.903 36.4539 36.9717C36.7567 38.0405 37.0273 39.1197 37.2658 40.2094C37.4536 39.1441 37.6735 38.079 37.9253 37.0141C38.1772 35.9492 38.4617 34.8419 38.7789 33.6922L42.5385 18.8391C42.7171 18.3497 43.0436 17.9466 43.5181 17.63C43.9929 17.292 44.5503 17.1253 45.1903 17.1299L52.7421 17.1833Z" fill="url(#paint1_linear_909_896)"/>
<defs>
<linearGradient id="paint0_linear_909_896" x1="59.8238" y1="61.8232" x2="59.4834" y2="10.78" gradientUnits="userSpaceOnUse">
<stop stop-color="#082332"/>
<stop offset="1" stop-color="#2F89BC" stop-opacity="0"/>
</linearGradient>
<linearGradient id="paint1_linear_909_896" x1="27.3208" y1="0.187604" x2="26.9594" y2="51.2308" gradientUnits="userSpaceOnUse">
<stop stop-color="#082332"/>
<stop offset="1" stop-color="#2F89BC" stop-opacity="0"/>
</linearGradient>
</defs>
</svg>
