<svg width="22" height="22" viewBox="0 0 22 22" fill="none" xmlns="http://www.w3.org/2000/svg">
<path opacity="0.4" d="M17.3797 3.65995L11.0897 0.27C10.4297 -0.09 9.6297 -0.09 8.9597 0.27L2.66971 3.65995C2.20971 3.90995 1.92969 4.39998 1.92969 4.93998C1.92969 5.47998 2.20971 5.96995 2.66971 6.21995L8.9597 9.61C9.2897 9.79 9.6597 9.88 10.0197 9.88C10.3797 9.88 10.7497 9.79 11.0797 9.61L17.3697 6.21995C17.8297 5.96995 18.1097 5.47998 18.1097 4.93998C18.1297 4.39998 17.8397 3.90995 17.3797 3.65995Z" fill="#9038FF"/>
<path opacity="0.4" d="M7.93 10.7899L2.07999 7.85989C1.62999 7.62989 1.11 7.65989 0.68 7.91989C0.25 8.1799 0 8.6399 0 9.1399V14.6699C0 15.6299 0.52999 16.4899 1.38999 16.9199L7.23999 19.8399C7.43999 19.9399 7.66001 19.9899 7.88001 19.9899C8.14 19.9899 8.4 19.9199 8.63 19.7699C9.06 19.5099 9.31 19.0499 9.31 18.5499V13.0199C9.32 12.0799 8.79 11.2199 7.93 10.7899Z" fill="#9038FF"/>
<path opacity="0.4" d="M20.0602 9.1502V13.7401C20.0502 13.7301 20.0402 13.7101 20.0302 13.7001C20.0302 13.6901 20.0203 13.6801 20.0103 13.6701C19.9703 13.6101 19.9202 13.5501 19.8702 13.5001C19.8602 13.4901 19.8502 13.4702 19.8402 13.4602C19.0302 12.5602 17.8402 12.0001 16.5302 12.0001C15.2702 12.0001 14.1202 12.5201 13.3002 13.3601C12.5102 14.1701 12.0302 15.2801 12.0302 16.5001C12.0302 17.3401 12.2702 18.1401 12.6802 18.8201C12.8502 19.1101 13.0603 19.3701 13.2903 19.6101L12.8203 19.8501C12.6203 19.9501 12.4002 20.0001 12.1802 20.0001C11.9202 20.0001 11.6603 19.9302 11.4203 19.7802C11.0003 19.5202 10.7402 19.0601 10.7402 18.5601V13.0401C10.7402 12.0801 11.2703 11.2201 12.1303 10.7901L17.9803 7.87013C18.4303 7.64013 18.9503 7.66012 19.3803 7.93012C19.8003 8.1901 20.0602 8.6502 20.0602 9.1502Z" fill="#9038FF"/>
<path d="M20.0093 13.67C19.1893 12.66 17.9393 12.02 16.5293 12.02C15.4693 12.02 14.4893 12.39 13.7193 13.01C12.6793 13.83 12.0293 15.1 12.0293 16.52C12.0293 17.36 12.2693 18.16 12.6793 18.84C12.9493 19.29 13.2893 19.68 13.6893 20H13.6993C14.4693 20.64 15.4593 21.02 16.5293 21.02C17.6693 21.02 18.6993 20.6 19.4893 19.9C19.8393 19.6 20.1393 19.24 20.3793 18.84C20.7893 18.16 21.0293 17.36 21.0293 16.52C21.0293 15.44 20.6493 14.44 20.0093 13.67ZM18.7893 15.96L16.3893 18.18C16.2493 18.31 16.0593 18.38 15.8793 18.38C15.6893 18.38 15.4993 18.31 15.3493 18.16L14.2393 17.05C13.9493 16.76 13.9493 16.28 14.2393 15.99C14.5293 15.7 15.0093 15.7 15.2993 15.99L15.8993 16.59L17.7693 14.86C18.0693 14.58 18.5493 14.6 18.8293 14.9C19.1193 15.21 19.0993 15.68 18.7893 15.96Z" fill="#9038FF"/>
</svg>
