<svg width="32" height="32" viewBox="0 0 32 32" fill="none" xmlns="http://www.w3.org/2000/svg">
<path d="M6.09525 19.8095C2.72762 19.8095 0 22.5371 0 25.9047C0 27.0476 0.320001 28.1295 0.883811 29.0438C1.421 29.9466 2.18406 30.694 3.09785 31.2124C4.01164 31.7307 5.04467 32.0022 6.09525 32C8.32001 32 10.2553 30.8114 11.3067 29.0438C11.8705 28.1295 12.1905 27.0476 12.1905 25.9047C12.1905 22.5371 9.46287 19.8095 6.09525 19.8095ZM9.09716 25.4019L5.85144 28.4038C5.6381 28.6019 5.34858 28.7086 5.07429 28.7086C4.78477 28.7086 4.49524 28.6019 4.26667 28.3733L2.7581 26.8647C2.54556 26.6497 2.42636 26.3595 2.42636 26.0571C2.42636 25.7547 2.54556 25.4646 2.7581 25.2495C3.2 24.8076 3.93143 24.8076 4.37334 25.2495L5.10477 25.9809L7.54287 23.7257C8.00001 23.299 8.73144 23.3295 9.15811 23.7866C9.58478 24.2438 9.5543 24.9752 9.09716 25.4019ZM25.5254 7.69519C25.1597 7.63424 24.7787 7.619 24.3825 7.619H9.14439C8.71773 7.619 8.3063 7.64947 7.91011 7.71043C8.12344 7.28376 8.4282 6.88757 8.79392 6.52185L13.7463 1.55423C14.752 0.558536 16.1101 0 17.5254 0C18.9406 0 20.2987 0.558536 21.3044 1.55423L23.9711 4.25137C24.9463 5.21138 25.4644 6.43042 25.5254 7.69519Z" fill="#9038FF"/>
<path opacity="0.4" d="M32 15.2381V22.8572C32 27.4286 28.9524 30.4763 24.381 30.4763H10.1029C10.5752 30.0801 10.9867 29.5924 11.3067 29.0439C11.8705 28.1296 12.1905 27.0477 12.1905 25.9048C12.1905 22.5372 9.46286 19.8096 6.09524 19.8096C4.26666 19.8096 2.63619 20.6172 1.5238 21.882V15.2381C1.5238 11.0934 4.02286 8.19813 7.90857 7.71051C8.30477 7.64956 8.71619 7.61908 9.14286 7.61908H24.381C24.7772 7.61908 25.1581 7.63432 25.5238 7.69527C29.4553 8.15241 32 11.0629 32 15.2381Z" fill="#9038FF"/>
<path d="M32 16H27.4286C25.7524 16 24.381 17.3714 24.381 19.0476C24.381 20.7238 25.7524 22.0952 27.4286 22.0952H32" fill="#9038FF"/>
</svg>
