<svg width="18" height="21" viewBox="0 0 18 21" fill="none" xmlns="http://www.w3.org/2000/svg">
<path d="M13.8203 0.910156H4.18031C2.06031 0.910156 0.320312 2.65016 0.320312 4.77016V18.8602C0.320312 20.6602 1.61031 21.4202 3.19031 20.5502L8.0703 17.8402C8.5903 17.5502 9.4303 17.5502 9.9403 17.8402L14.8203 20.5502C16.4003 21.4302 17.6903 20.6702 17.6903 18.8602V4.77016C17.6803 2.65016 15.9503 0.910156 13.8203 0.910156ZM12.6203 8.03016L8.6203 12.0302C8.4703 12.1802 8.2803 12.2502 8.0903 12.2502C7.9003 12.2502 7.7103 12.1802 7.5603 12.0302L6.06031 10.5302C5.77031 10.2402 5.77031 9.7602 6.06031 9.4702C6.35031 9.1802 6.83031 9.1802 7.1203 9.4702L8.0903 10.4402L11.5603 6.97016C11.8503 6.68016 12.3303 6.68016 12.6203 6.97016C12.9103 7.26016 12.9103 7.74016 12.6203 8.03016Z" fill="#292D32"/>
</svg>
