<svg width="32" height="32" viewBox="0 0 32 32" fill="none" xmlns="http://www.w3.org/2000/svg">
<path d="M28.1908 4.63108L18.5018 0.455909C17.0798 -0.15197 14.9304 -0.15197 13.5084 0.455909L3.81941 4.63108C1.37236 5.68687 1.00861 7.12658 1.00861 7.89443C1.00861 8.66227 1.37236 10.102 3.81941 11.1578L13.5084 15.3329C14.2194 15.6369 15.1123 15.7968 16.0051 15.7968C16.8979 15.7968 17.7908 15.6369 18.5018 15.3329L28.1908 11.1578C30.6378 10.102 31.0016 8.66227 31.0016 7.89443C31.0016 7.12658 30.6544 5.68687 28.1908 4.63108Z" fill="#3EAEFF"/>
<path opacity="0.4" d="M16.0051 24.0656C15.3768 24.0656 14.7485 23.9377 14.1698 23.6977L3.02575 18.8987C1.32273 18.1628 0 16.1952 0 14.3876C0 13.7317 0.545628 13.2038 1.22353 13.2038C1.90143 13.2038 2.44706 13.7317 2.44706 14.3876C2.44706 15.2514 3.19109 16.3712 4.0178 16.7231L15.1618 21.5221C15.6909 21.7461 16.3027 21.7461 16.8318 21.5221L27.9758 16.7231C28.8025 16.3712 29.5466 15.2674 29.5466 14.3876C29.5466 13.7317 30.0922 13.2038 30.7701 13.2038C31.448 13.2038 31.9936 13.7317 31.9936 14.3876C31.9936 16.1792 30.6709 18.1628 28.9679 18.8987L17.8238 23.6977C17.2617 23.9377 16.6334 24.0656 16.0051 24.0656Z" fill="#3EAEFF"/>
<path opacity="0.4" d="M16.0051 32C15.3768 32 14.7485 31.872 14.1698 31.6321L3.02575 26.833C2.12453 26.4448 1.35903 25.8119 0.821987 25.0113C0.284949 24.2106 -0.000577574 23.2764 8.77178e-07 22.3219C8.77178e-07 21.6661 0.545628 21.1382 1.22353 21.1382C1.90143 21.1382 2.44706 21.6661 2.44706 22.3219C2.44706 23.3297 3.05882 24.2416 4.0178 24.6575L15.1618 29.4565C15.6909 29.6805 16.3027 29.6805 16.8318 29.4565L27.9758 24.6575C28.9183 24.2576 29.5466 23.3297 29.5466 22.3219C29.5466 21.6661 30.0922 21.1382 30.7701 21.1382C31.448 21.1382 31.9936 21.6661 31.9936 22.3219C31.9936 24.2736 30.8032 26.0332 28.9679 26.833L17.8238 31.6321C17.2617 31.872 16.6334 32 16.0051 32Z" fill="#3EAEFF"/>
</svg>
