<svg width="59" height="61" viewBox="0 0 59 61" fill="none" xmlns="http://www.w3.org/2000/svg">
<rect width="59" height="61" rx="12" fill="#3EAEFF" fill-opacity="0.22"/>
<path d="M42.748 13.681C42.5657 13.681 42.3835 13.635 42.224 13.543C37.8498 11.266 34.0679 10.3 29.5342 10.3C25.0233 10.3 20.7401 11.381 16.8444 13.543C16.2976 13.842 15.6141 13.635 15.2951 13.083C14.999 12.531 15.204 11.818 15.7508 11.519C19.9883 9.19599 24.6359 8 29.5342 8C34.3869 8 38.6244 9.081 43.272 11.496C43.8415 11.795 44.0466 12.485 43.7504 13.037C43.5454 13.451 43.158 13.681 42.748 13.681ZM10.1463 25.756C9.9185 25.756 9.69067 25.687 9.48563 25.549C8.96163 25.181 8.84772 24.468 9.21224 23.939C11.4677 20.719 14.3383 18.189 17.7557 16.418C24.9093 12.692 34.0679 12.669 41.2443 16.395C44.6617 18.166 47.5323 20.673 49.7877 23.87C50.1523 24.376 50.0384 25.112 49.5143 25.48C48.9904 25.848 48.2841 25.733 47.9196 25.204C45.8692 22.306 43.272 20.029 40.1964 18.442C33.6578 15.061 25.2967 15.061 18.7809 18.465C15.6824 20.075 13.0853 22.375 11.0348 25.273C10.8526 25.595 10.5108 25.756 10.1463 25.756ZM24.3853 53.517C24.0891 53.517 23.793 53.4019 23.588 53.172C21.6059 51.171 20.5351 49.8829 19.0087 47.1C17.4367 44.271 16.6165 40.821 16.6165 37.118C16.6165 30.287 22.4033 24.721 29.5114 24.721C36.6195 24.721 42.4062 30.287 42.4062 37.118C42.4062 37.762 41.9051 38.268 41.2671 38.268C40.6292 38.268 40.128 37.762 40.128 37.118C40.128 31.552 35.3665 27.021 29.5114 27.021C23.6563 27.021 18.8947 31.552 18.8947 37.118C18.8947 40.43 19.6238 43.489 21.0135 45.973C22.4716 48.618 23.474 49.7449 25.2283 51.5389C25.6611 51.999 25.6611 52.7119 25.2283 53.172C24.9777 53.4019 24.6815 53.517 24.3853 53.517ZM40.7204 49.2619C38.0093 49.2619 35.6171 48.5719 33.6578 47.215C30.2632 44.892 28.2356 41.12 28.2356 37.118C28.2356 36.474 28.7368 35.968 29.3747 35.968C30.0126 35.968 30.5138 36.474 30.5138 37.118C30.5138 40.361 32.1541 43.42 34.9336 45.306C36.5512 46.41 38.4421 46.939 40.7204 46.939C41.2671 46.939 42.1785 46.87 43.0897 46.709C43.7048 46.594 44.2972 47.008 44.4111 47.652C44.525 48.273 44.1149 48.871 43.4771 48.9859C42.1785 49.239 41.0393 49.2619 40.7204 49.2619ZM36.1411 54C36.0499 54 35.936 53.977 35.8449 53.9539C32.2225 52.942 29.8531 51.585 27.3698 49.124C24.1803 45.927 22.4261 41.672 22.4261 37.118C22.4261 33.392 25.5701 30.356 29.443 30.356C33.316 30.356 36.46 33.392 36.46 37.118C36.46 39.579 38.5788 41.58 41.1988 41.58C43.8188 41.58 45.9376 39.579 45.9376 37.118C45.9376 28.447 38.5332 21.409 29.4202 21.409C22.95 21.409 17.0266 25.043 14.3611 30.678C13.4726 32.541 13.0169 34.726 13.0169 37.118C13.0169 38.912 13.1764 41.741 14.5433 45.421C14.7712 46.019 14.475 46.686 13.8826 46.893C13.2903 47.123 12.6296 46.801 12.4246 46.226C11.3082 43.213 10.7614 40.223 10.7614 37.118C10.7614 34.358 11.2854 31.851 12.3107 29.666C15.3407 23.249 22.0615 19.086 29.4202 19.086C39.7863 19.086 48.2157 27.159 48.2157 37.095C48.2157 40.821 45.0718 43.857 41.1988 43.857C37.3258 43.857 34.1818 40.821 34.1818 37.095C34.1818 34.634 32.0631 32.633 29.443 32.633C26.823 32.633 24.7043 34.634 24.7043 37.095C24.7043 41.028 26.2079 44.708 28.9646 47.4679C31.1289 49.63 33.2021 50.826 36.4145 51.723C37.0296 51.8839 37.3713 52.528 37.2118 53.1259C37.0979 53.655 36.6195 54 36.1411 54Z" fill="white"/>
</svg>
