<svg width="20" height="20" viewBox="0 0 20 20" fill="none" xmlns="http://www.w3.org/2000/svg">
<path opacity="0.4" d="M11.9134 0.882094L7.22343 0.142094C3.31343 -0.467906 1.50343 0.852094 0.883429 4.76209L0.143429 9.45209C-0.256571 12.0121 0.163429 13.6721 1.61343 14.6821C2.37343 15.2221 3.41343 15.5821 4.76343 15.7921L9.45344 16.5321C13.3634 17.1421 15.1734 15.8221 15.7934 11.9121L16.5234 7.22209C16.6434 6.45209 16.6934 5.76209 16.6534 5.15209C16.5234 2.65209 15.0534 1.37209 11.9134 0.882094ZM6.26343 7.35209C5.09343 7.35209 4.14343 6.40209 4.14343 5.24209C4.14343 4.07209 5.09343 3.12209 6.26343 3.12209C7.42343 3.12209 8.37344 4.07209 8.37344 5.24209C8.37344 6.40209 7.42343 7.35209 6.26343 7.35209Z" fill="#9038FF"/>
<path d="M18.5232 11.4721L17.0232 15.9821C15.7732 19.7421 13.7732 20.7421 10.0132 19.4921L5.50328 17.9921C3.23328 17.2421 1.97328 16.2021 1.61328 14.6821C2.37328 15.2221 3.41328 15.5821 4.76328 15.7921L9.45324 16.5321C13.3632 17.1421 15.1732 15.8221 15.7932 11.9121L16.5232 7.2221C16.6432 6.4521 16.6932 5.7621 16.6532 5.1521C19.0432 6.4221 19.5632 8.3421 18.5232 11.4721Z" fill="#9038FF"/>
<path d="M8.37254 5.24231C8.37254 6.40231 7.42258 7.35231 6.26258 7.35231C5.09258 7.35231 4.14258 6.40231 4.14258 5.24231C4.14258 4.07231 5.09258 3.12231 6.26258 3.12231C7.42258 3.12231 8.37254 4.07231 8.37254 5.24231Z" fill="#9038FF"/>
</svg>
