<!DOCTYPE svg PUBLIC "-//W3C//DTD SVG 1.1//EN" "http://www.w3.org/Graphics/SVG/1.1/DTD/svg11.dtd">
<!-- Uploaded to: SVG Repo, www.svgrepo.com, Transformed by: SVG Repo Mixer Tools -->
<svg height="800px" width="800px" version="1.1" id="Capa_1" xmlns="http://www.w3.org/2000/svg" xmlns:xlink="http://www.w3.org/1999/xlink" viewBox="0 0 296.108 296.108" xml:space="preserve" fill="#000000">
<g id="SVGRepo_bgCarrier" stroke-width="0"/>
<g id="SVGRepo_tracerCarrier" stroke-linecap="round" stroke-linejoin="round"/>
<g id="SVGRepo_iconCarrier"> <g> <path style="fill:#1E88E5FF;" d="M29.506,279.807c12.869,13.315,25.928,16.301,35.038,16.301c0.468,0,0.925-0.011,1.376-0.022 c21.147-0.702,36.192-16.508,39.205-19.923l170.02-172.288l0.778-1.213c0.859-1.354,20.641-33.516-18.591-73.335 C238.262,9.97,220.547,0.103,204.431,0c-9.752,0-17.144,3.862-20.832,7.511L33.928,155.769 c-8.534,8.458-11.172,19.635-5.885,24.971c5.287,5.336,16.491,2.807,25.031-5.651L202.027,27.538 c3.1-1.338,15.218-0.152,35.925,20.87c20.549,20.859,16.714,35.419,15.382,38.851L85.463,257.371l-0.647,0.702 c-2.551,2.937-11.096,10.601-19.902,10.835c-5.167,0.076-10.514-2.475-15.849-7.995c-5.075-5.254-7.571-10.421-7.413-15.354 c0.261-8.284,7.413-14.925,7.408-14.925l122.303-126.91c2.388-2.181,6.298-3.579,11.547,1.675c1.235,1.229,3.296,3.291-0.544,7.424 l-94.118,94.123c-8.496,8.496-11.079,19.689-5.765,24.998c5.314,5.309,16.502,2.725,24.998-5.771l94.123-94.118 c9.333-9.328,17.177-29.251,0.555-45.879c-18.553-18.564-39.901-11.351-49.729-1.969L30.61,210.65 c-3.04,2.817-15.371,15.344-16.132,33.624C14.119,253.009,16.425,266.264,29.506,279.807z"/> </g> </g>
</svg>