<svg width="20" height="20" viewBox="0 0 20 20" fill="none" xmlns="http://www.w3.org/2000/svg">
<path opacity="0.4" d="M10 20C15.5228 20 20 15.5228 20 10C20 4.47715 15.5228 0 10 0C4.47715 0 0 4.47715 0 10C0 15.5228 4.47715 20 10 20Z" fill="#9038FF"/>
<path d="M13.7106 13.93C13.5806 13.93 13.4506 13.9 13.3306 13.82L10.2306 11.97C9.46063 11.51 8.89062 10.5 8.89062 9.61V5.51001C8.89062 5.10001 9.23063 4.76001 9.64062 4.76001C10.0506 4.76001 10.3906 5.10001 10.3906 5.51001V9.61C10.3906 9.97 10.6906 10.5 11.0006 10.68L14.1006 12.53C14.4606 12.74 14.5706 13.2 14.3606 13.56C14.2106 13.8 13.9606 13.93 13.7106 13.93Z" fill="#9038FF"/>
</svg>
