<svg width="22" height="22" viewBox="0 0 22 22" fill="none" xmlns="http://www.w3.org/2000/svg">
<path d="M20.75 21.5H3.75C1.68 21.5 0 19.82 0 17.75V0.75C0 0.34 0.34 0 0.75 0C1.16 0 1.5 0.34 1.5 0.75V17.75C1.5 18.99 2.51 20 3.75 20H20.75C21.16 20 21.5 20.34 21.5 20.75C21.5 21.16 21.16 21.5 20.75 21.5Z" fill="#9038FF"/>
<path opacity="0.4" d="M3.74982 16.4998C3.57982 16.4998 3.39982 16.4398 3.25982 16.3198C2.94982 16.0498 2.90982 15.5798 3.17982 15.2598L7.76982 9.8998C8.26982 9.3198 8.9898 8.9698 9.7498 8.9398C10.5098 8.9198 11.2598 9.1998 11.7998 9.7398L12.7498 10.6898C12.9998 10.9398 13.3198 11.0598 13.6798 11.0598C14.0298 11.0498 14.3498 10.8898 14.5798 10.6198L19.1698 5.25983C19.4398 4.94983 19.9098 4.90981 20.2298 5.17981C20.5398 5.44981 20.5798 5.91981 20.3098 6.23981L15.7198 11.5998C15.2198 12.1798 14.4998 12.5298 13.7398 12.5598C12.9698 12.5798 12.2298 12.2998 11.6898 11.7598L10.7498 10.8098C10.4998 10.5598 10.1698 10.4298 9.8198 10.4398C9.4698 10.4498 9.1498 10.6098 8.9198 10.8798L4.32982 16.2398C4.16982 16.4098 3.95982 16.4998 3.74982 16.4998Z" fill="#9038FF"/>
</svg>
