<svg width="20" height="20" viewBox="0 0 20 20" fill="none" xmlns="http://www.w3.org/2000/svg">
<path opacity="0.4" d="M14.19 0H5.81C2.17 0 0 2.17 0 5.81V14.18C0 17.83 2.17 20 5.81 20H14.18C17.82 20 19.99 17.83 19.99 14.19V5.81C20 2.17 17.83 0 14.19 0Z" fill="#9038FF"/>
<path d="M4.88086 16.9001C4.47086 16.9001 4.13086 16.5601 4.13086 16.1501V14.0801C4.13086 13.6701 4.47086 13.3301 4.88086 13.3301C5.29086 13.3301 5.63086 13.6701 5.63086 14.0801V16.1501C5.63086 16.5701 5.29086 16.9001 4.88086 16.9001Z" fill="#9038FF"/>
<path d="M10 16.9C9.59 16.9 9.25 16.56 9.25 16.15V12C9.25 11.59 9.59 11.25 10 11.25C10.41 11.25 10.75 11.59 10.75 12V16.15C10.75 16.57 10.41 16.9 10 16.9Z" fill="#9038FF"/>
<path d="M15.1191 16.9002C14.7091 16.9002 14.3691 16.5602 14.3691 16.1502V9.93021C14.3691 9.52021 14.7091 9.18021 15.1191 9.18021C15.5291 9.18021 15.8691 9.52021 15.8691 9.93021V16.1502C15.8691 16.5702 15.5391 16.9002 15.1191 16.9002Z" fill="#9038FF"/>
<path d="M15.871 3.8201C15.871 3.7701 15.851 3.7101 15.841 3.6601C15.831 3.6201 15.821 3.5701 15.811 3.5301C15.791 3.4901 15.761 3.4601 15.741 3.4201C15.711 3.3801 15.681 3.3301 15.641 3.3001C15.631 3.2901 15.631 3.2801 15.621 3.2801C15.591 3.2601 15.561 3.2501 15.531 3.2301C15.491 3.2001 15.441 3.1701 15.391 3.1501C15.341 3.1301 15.291 3.1301 15.241 3.1201C15.201 3.1101 15.171 3.1001 15.131 3.1001H12.201C11.791 3.1001 11.451 3.4401 11.451 3.8501C11.451 4.2601 11.791 4.6001 12.201 4.6001H13.451C11.071 7.1001 8.071 8.8601 4.70096 9.7101C4.30096 9.8101 4.05096 10.2201 4.15096 10.6201C4.23096 10.9601 4.54096 11.1901 4.88096 11.1901C4.94096 11.1901 5.00096 11.1801 5.06096 11.1701C8.631 10.2801 11.821 8.4301 14.371 5.8101V6.7801C14.371 7.1901 14.711 7.5301 15.121 7.5301C15.531 7.5301 15.871 7.1901 15.871 6.7801V3.8501C15.871 3.8401 15.871 3.8301 15.871 3.8201Z" fill="#9038FF"/>
</svg>
