<svg width="22" height="12" viewBox="0 0 22 12" fill="none" xmlns="http://www.w3.org/2000/svg">
<path fill-rule="evenodd" clip-rule="evenodd" d="M0.60603 0.08062C1.11366 -0.13693 1.70154 0.0982204 1.9191 0.60585L0.999951 0.99977C1.9191 0.60585 1.91924 0.60618 1.9191 0.60585L1.91858 0.60465C1.91851 0.60447 1.9183 0.604 1.91858 0.60465L1.9225 0.61351C1.92651 0.62253 1.93339 0.63785 1.94319 0.65905C1.96278 0.70147 1.99397 0.76735 2.03696 0.85334C2.12302 1.02546 2.25594 1.27722 2.43737 1.58203C2.80137 2.19355 3.35439 3.00801 4.10775 3.81932C4.28532 4.0105 4.47324 4.2009 4.67173 4.3878C4.68003 4.3954 4.68823 4.4031 4.69633 4.4109C6.18102 5.8012 8.25227 6.9998 11 6.9998C12.2089 6.9998 13.2783 6.769 14.2209 6.398C15.4469 5.9154 16.4745 5.1889 17.3156 4.3995C18.2652 3.50815 18.9627 2.54981 19.4232 1.81076C19.6526 1.44268 19.8207 1.13295 19.9299 0.91886C19.9844 0.81192 20.0241 0.72919 20.0491 0.67538C20.0617 0.64848 20.0706 0.62884 20.0758 0.61704L20.0808 0.60585C20.2985 0.0985004 20.8864 -0.13688 21.3939 0.08062C21.9015 0.29818 22.1367 0.88606 21.9191 1.39369L21 0.99977C21.9191 1.39369 21.9192 1.39346 21.9191 1.39369L21.9169 1.39871L21.9134 1.40693L21.9019 1.43278C21.8924 1.4541 21.879 1.48354 21.8618 1.52048C21.8274 1.59434 21.7774 1.69831 21.7115 1.8275C21.5799 2.08566 21.384 2.44584 21.1206 2.86844C20.718 3.5146 20.152 4.316 19.4096 5.1241L20.2071 5.9215C20.5976 6.312 20.5976 6.9452 20.2071 7.3357C19.8165 7.7262 19.1834 7.7262 18.7928 7.3357L17.9527 6.4955C17.3884 6.9513 16.757 7.3811 16.0558 7.752L16.8381 8.9544C17.1393 9.4173 17.0083 10.0367 16.5453 10.338C16.0824 10.6392 15.463 10.5081 15.1618 10.0452L14.1763 8.5306C13.4973 8.7388 12.772 8.8863 12 8.9554V10.4998C12 11.0521 11.5522 11.4998 11 11.4998C10.4477 11.4998 10 11.0521 10 10.4998V8.9556C9.2253 8.8864 8.50014 8.7386 7.82334 8.531L6.83814 10.0452C6.53693 10.5081 5.91748 10.6392 5.45457 10.338C4.99165 10.0367 4.86056 9.4173 5.16177 8.9544L5.94417 7.7519C5.24405 7.3814 4.61245 6.9515 4.04746 6.4953L3.20706 7.3357C2.81654 7.7262 2.18337 7.7262 1.79285 7.3357C1.40232 6.9452 1.40232 6.312 1.79285 5.9215L2.59029 5.1241C1.74529 4.2043 1.12772 3.292 0.718791 2.605C0.509601 2.25356 0.353451 1.95845 0.248101 1.74776C0.195391 1.64234 0.15529 1.55783 0.12752 1.49771C0.11363 1.46765 0.10282 1.44366 0.0950504 1.42618L0.0856605 1.4049L0.0826704 1.39801L0.0816004 1.39553L0.0811704 1.39453C0.0809804 1.39409 0.0808105 1.39369 0.999951 0.99977L0.0811704 1.39453C-0.136387 0.8869 0.0984005 0.29818 0.60603 0.08062Z" fill="#8D8D8D"/>
</svg>
