<svg width="20" height="20" viewBox="0 0 20 20" fill="none" xmlns="http://www.w3.org/2000/svg">
<path opacity="0.4" d="M5.81 0H14.18C17.83 0 20 2.17 20 5.81V14.18C20 17.82 17.83 19.99 14.19 19.99H5.81C2.17 20 0 17.83 0 14.19V5.81C0 2.17 2.17 0 5.81 0Z" fill="#9038FF"/>
<path d="M10 16.5801C6.83 16.5801 4.25 14.0001 4.25 10.8301C4.25 7.72012 6.73 5.19012 9.81 5.08012L9.44 4.65012C9.17 4.34012 9.2 3.86012 9.51 3.59012C9.82 3.32012 10.3 3.35012 10.57 3.66012L12.23 5.56012C12.25 5.58012 12.26 5.60012 12.28 5.62012C12.32 5.68012 12.36 5.75012 12.38 5.82012C12.39 5.86012 12.4 5.90012 12.41 5.94012C12.43 6.03012 12.42 6.13012 12.4 6.22012C12.38 6.30012 12.35 6.38012 12.31 6.46012C12.3 6.48012 12.28 6.50012 12.27 6.52012C12.23 6.58012 12.17 6.63012 12.11 6.67012C12.11 6.67012 12.1 6.67012 12.1 6.68012L10.16 8.1001C9.82 8.3401 9.36 8.2701 9.11 7.94012C8.87 7.61012 8.94 7.14012 9.27 6.89012L9.68 6.59012C7.48 6.75012 5.74 8.5901 5.74 10.8301C5.74 13.1701 7.65 15.0801 9.99 15.0801C12.33 15.0801 14.24 13.1701 14.24 10.8301C14.24 9.9901 13.99 9.1701 13.53 8.4701C13.3 8.1301 13.39 7.66012 13.74 7.43012C14.09 7.20012 14.55 7.29012 14.78 7.64012C15.41 8.5901 15.75 9.6901 15.75 10.8301C15.75 14.0001 13.17 16.5801 10 16.5801Z" fill="#9038FF"/>
</svg>
