<svg width="80" height="80" viewBox="0 0 80 80" fill="none" xmlns="http://www.w3.org/2000/svg">
<rect width="80" height="80" rx="8" fill="#9038FF"/>
<path d="M22.616 51.096C22.616 51.096 22.728 46.024 22.952 35.88C22.952 31.848 22.712 29.256 22.232 28.104L19.88 24.456L20.024 23.736C22.296 23.224 25.56 22.968 29.816 22.968C30.424 23.896 30.728 25.624 30.728 28.152C30.728 30.648 30.568 34.024 30.248 38.28C29.928 42.504 29.768 45.768 29.768 48.072C29.768 50.376 30.312 51.528 31.4 51.528C32.04 51.528 32.968 51.016 34.184 49.992C35.4 48.936 36.44 47.8 37.304 46.584C38.008 39.352 38.36 34.472 38.36 31.944C38.36 29.416 38.008 27.064 37.304 24.888C39 24.024 41.784 23.368 45.656 22.92C46.008 24.072 46.184 25.704 46.184 27.816C46.184 29.896 45.848 33.528 45.176 38.712C44.536 43.896 44.216 47.336 44.216 49.032C44.216 50.696 44.696 51.528 45.656 51.528C46.648 51.528 47.976 50.6 49.64 48.744C51.304 46.888 52.824 44.584 54.2 41.832C55.608 39.048 56.392 36.536 56.552 34.296L51.464 31.32C51.688 29.4 52.136 27.752 52.808 26.376C53.512 24.968 54.152 24.04 54.728 23.592L55.592 22.92C57.544 22.92 59.032 23.432 60.056 24.456C61.112 25.448 61.64 26.632 61.64 28.008C61.64 30.6 60.984 33.624 59.672 37.08C58.392 40.536 56.792 43.768 54.872 46.776C52.984 49.784 50.824 52.344 48.392 54.456C45.96 56.536 43.72 57.576 41.672 57.576C40.456 57.576 39.368 57 38.408 55.848C37.48 54.696 37 53.224 36.968 51.432C35.56 53.352 34.072 54.856 32.504 55.944C30.936 57.032 29.432 57.576 27.992 57.576C26.552 57.576 25.288 56.984 24.2 55.8C23.144 54.584 22.616 53.016 22.616 51.096Z" fill="white"/>
</svg>
