<svg width="32" height="32" viewBox="0 0 32 32" fill="none" xmlns="http://www.w3.org/2000/svg">
<rect width="32" height="32" rx="8" fill="#1B76FF"/>
<path d="M7.808 22.048C7.808 22.048 7.864 19.512 7.976 14.44C7.976 12.424 7.856 11.128 7.616 10.552L6.44 8.728L6.512 8.368C7.648 8.112 9.28 7.984 11.408 7.984C11.712 8.448 11.864 9.312 11.864 10.576C11.864 11.824 11.784 13.512 11.624 15.64C11.464 17.752 11.384 19.384 11.384 20.536C11.384 21.688 11.656 22.264 12.2 22.264C12.52 22.264 12.984 22.008 13.592 21.496C14.2 20.968 14.72 20.4 15.152 19.792C15.504 16.176 15.68 13.736 15.68 12.472C15.68 11.208 15.504 10.032 15.152 8.944C16 8.512 17.392 8.184 19.328 7.96C19.504 8.536 19.592 9.352 19.592 10.408C19.592 11.448 19.424 13.264 19.088 15.856C18.768 18.448 18.608 20.168 18.608 21.016C18.608 21.848 18.848 22.264 19.328 22.264C19.824 22.264 20.488 21.8 21.32 20.872C22.152 19.944 22.912 18.792 23.6 17.416C24.304 16.024 24.696 14.768 24.776 13.648L22.232 12.16C22.344 11.2 22.568 10.376 22.904 9.688C23.256 8.984 23.576 8.52 23.864 8.296L24.296 7.96C25.272 7.96 26.016 8.216 26.528 8.728C27.056 9.224 27.32 9.816 27.32 10.504C27.32 11.8 26.992 13.312 26.336 15.04C25.696 16.768 24.896 18.384 23.936 19.888C22.992 21.392 21.912 22.672 20.696 23.728C19.48 24.768 18.36 25.288 17.336 25.288C16.728 25.288 16.184 25 15.704 24.424C15.24 23.848 15 23.112 14.984 22.216C14.28 23.176 13.536 23.928 12.752 24.472C11.968 25.016 11.216 25.288 10.496 25.288C9.776 25.288 9.144 24.992 8.6 24.4C8.072 23.792 7.808 23.008 7.808 22.048Z" fill="white"/>
</svg>
