<svg width="32" height="32" viewBox="0 0 32 32" fill="none" xmlns="http://www.w3.org/2000/svg">
<path d="M32 14.24V3.36C32 0.96 30.9221 0 28.2442 0H21.44C18.7621 0 17.6842 0.96 17.6842 3.36V14.24C17.6842 16.64 18.7621 17.6 21.44 17.6H28.2442C30.9221 17.6 32 16.64 32 14.24ZM14.3158 17.76V28.64C14.3158 31.04 13.2379 32 10.56 32H3.75579C1.07789 32 0 31.04 0 28.64V17.76C0 15.36 1.07789 14.4 3.75579 14.4H10.56C13.2379 14.4 14.3158 15.36 14.3158 17.76Z" fill="#00A3FF"/>
<path opacity="0.4" d="M32 28.64V24.16C32 21.76 30.9221 20.8 28.2442 20.8H21.44C18.7621 20.8 17.6842 21.76 17.6842 24.16V28.64C17.6842 31.04 18.7621 32 21.44 32H28.2442C30.9221 32 32 31.04 32 28.64ZM14.3158 7.84V3.36C14.3158 0.96 13.2379 0 10.56 0H3.75579C1.07789 0 0 0.96 0 3.36V7.84C0 10.24 1.07789 11.2 3.75579 11.2H10.56C13.2379 11.2 14.3158 10.24 14.3158 7.84Z" fill="#00A3FF"/>
</svg>
