<svg width="20" height="20" viewBox="0 0 20 20" fill="none" xmlns="http://www.w3.org/2000/svg">
<path opacity="0.4" d="M14.19 0H5.81C2.17 0 0 2.17 0 5.81V14.18C0 17.83 2.17 20 5.81 20H14.18C17.82 20 19.99 17.83 19.99 14.19V5.81C20 2.17 17.83 0 14.19 0Z" fill="#4CAF50"/>
<path d="M12.2602 10L10.7502 9.47V6.08H11.1102C11.9202 6.08 12.5802 6.79 12.5802 7.66C12.5802 8.07 12.9202 8.41 13.3302 8.41C13.7402 8.41 14.0802 8.07 14.0802 7.66C14.0802 5.96 12.7502 4.58 11.1102 4.58H10.7502V4C10.7502 3.59 10.4102 3.25 10.0002 3.25C9.5902 3.25 9.2502 3.59 9.2502 4V4.58H8.6002C7.12016 4.58 5.91016 5.83 5.91016 7.36C5.91016 9.15 6.95016 9.72 7.74016 10L9.2502 10.53V13.91H8.8902C8.0802 13.91 7.42016 13.2 7.42016 12.33C7.42016 11.92 7.08016 11.58 6.67016 11.58C6.26016 11.58 5.92016 11.92 5.92016 12.33C5.92016 14.03 7.25016 15.41 8.8902 15.41H9.2502V16C9.2502 16.41 9.5902 16.75 10.0002 16.75C10.4102 16.75 10.7502 16.41 10.7502 16V15.42H11.4002C12.8802 15.42 14.0902 14.17 14.0902 12.64C14.0802 10.84 13.0402 10.27 12.2602 10ZM8.2402 8.59C7.73016 8.41 7.42016 8.24 7.42016 7.37C7.42016 6.66 7.95016 6.09 8.6102 6.09H9.2602V8.95L8.2402 8.59ZM11.4002 13.92H10.7502V11.06L11.7602 11.41C12.2702 11.59 12.5802 11.76 12.5802 12.63C12.5802 13.34 12.0502 13.92 11.4002 13.92Z" fill="#4CAF50"/>
</svg>
