<!DOCTYPE svg PUBLIC "-//W3C//DTD SVG 1.1//EN" "http://www.w3.org/Graphics/SVG/1.1/DTD/svg11.dtd">
<!-- Uploaded to: SVG Repo, www.svgrepo.com, Transformed by: SVG Repo Mixer Tools -->
<svg width="800px" height="800px" viewBox="0 0 8.4666669 8.4666669" id="svg8" version="1.1" xmlns="http://www.w3.org/2000/svg" xmlns:cc="http://creativecommons.org/ns#" xmlns:dc="http://purl.org/dc/elements/1.1/" xmlns:inkscape="http://www.inkscape.org/namespaces/inkscape" xmlns:rdf="http://www.w3.org/1999/02/22-rdf-syntax-ns#" xmlns:sodipodi="http://sodipodi.sourceforge.net/DTD/sodipodi-0.dtd" xmlns:svg="http://www.w3.org/2000/svg" fill="#000000" stroke="#000000">
<g id="SVGRepo_bgCarrier" stroke-width="0"/>
<g id="SVGRepo_tracerCarrier" stroke-linecap="round" stroke-linejoin="round"/>
<g id="SVGRepo_iconCarrier"> <defs id="defs2"/> <g id="layer1" transform="translate(0,-288.53332)"> <path d="m 15.996094,1.0039062 c -4.414704,0 -7.9941409,3.5794635 -7.9941409,7.9941407 V 15 c 0,4.414715 3.5794369,8.001953 7.9941409,8.001953 4.414703,0 8.001953,-3.587238 8.001953,-8.001953 V 8.9980469 c 0,-4.4146772 -3.58725,-7.9941406 -8.001953,-7.9941407 z" id="rect917" style="color:#1E88E5FF;font-style:normal;font-variant:normal;font-weight:normal;font-stretch:normal;font-size:medium;line-height:normal;font-family:sans-serif;font-variant-ligatures:normal;font-variant-position:normal;font-variant-caps:normal;font-variant-numeric:normal;font-variant-alternates:normal;font-feature-settings:normal;text-indent:0;text-align:start;text-decoration:none;text-decoration-line:none;text-decoration-style:solid;text-decoration-color:#1E88E5FF;letter-spacing:normal;word-spacing:normal;text-transform:none;writing-mode:lr-tb;direction:ltr;text-orientation:mixed;dominant-baseline:auto;baseline-shift:baseline;text-anchor:start;white-space:normal;shape-padding:0;clip-rule:nonzero;display:inline;overflow:visible;visibility:visible;opacity:1;isolation:auto;mix-blend-mode:normal;color-interpolation:sRGB;color-interpolation-filters:linearRGB;solid-color:#1E88E5FF;solid-opacity:1;vector-effect:none;fill:#1E88E5FF;fill-opacity:1;fill-rule:nonzero;stroke:none;stroke-width:1.99999988;stroke-linecap:round;stroke-linejoin:round;stroke-miterlimit:4;stroke-dasharray:none;stroke-dashoffset:0;stroke-opacity:1;paint-order:stroke fill markers;color-rendering:auto;image-rendering:auto;shape-rendering:auto;text-rendering:auto;enable-background:accumulate" transform="matrix(0.26458333,0,0,0.26458333,0,288.53332)"/> <path d="M 4.9980469 11 A 1.0000999 1.0000999 0 0 0 3.9980469 12 L 3.9980469 15 C 3.9980469 21.238262 8.8838223 26.432029 15 26.947266 L 15 29.003906 L 11.900391 29.003906 C 10.566722 29.072694 10.670238 31.072807 12.003906 31.003906 L 19.998047 31.003906 C 21.331716 31.003906 21.331716 29.003906 19.998047 29.003906 L 17 29.003906 L 17 26.947266 C 23.113041 26.428815 28.003906 21.241049 28.003906 15 L 28.003906 12 A 1.0000999 1.0000999 0 0 0 27.003906 11 L 25.001953 11 L 25.001953 13 L 26.003906 13 L 26.003906 15 C 26.003906 20.477367 21.469572 24.998047 15.996094 24.998047 C 10.523174 24.998047 5.9980469 20.472945 5.9980469 15 L 5.9980469 13 L 6.9980469 13 L 6.9980469 11 L 4.9980469 11 z " id="rect919" style="color:#1E88E5FF;font-style:normal;font-variant:normal;font-weight:normal;font-stretch:normal;font-size:medium;line-height:normal;font-family:sans-serif;font-variant-ligatures:normal;font-variant-position:normal;font-variant-caps:normal;font-variant-numeric:normal;font-variant-alternates:normal;font-feature-settings:normal;text-indent:0;text-align:start;text-decoration:none;text-decoration-line:none;text-decoration-style:solid;text-decoration-color:#1E88E5FF;letter-spacing:normal;word-spacing:normal;text-transform:none;writing-mode:lr-tb;direction:ltr;text-orientation:mixed;dominant-baseline:auto;baseline-shift:baseline;text-anchor:start;white-space:normal;shape-padding:0;clip-rule:nonzero;display:inline;overflow:visible;visibility:visible;opacity:1;isolation:auto;mix-blend-mode:normal;color-interpolation:sRGB;color-interpolation-filters:linearRGB;solid-color:#1E88E5FF;solid-opacity:1;vector-effect:none;fill:#1E88E5FF;fill-opacity:1;fill-rule:nonzero;stroke:none;stroke-width:1.99999988;stroke-linecap:round;stroke-linejoin:round;stroke-miterlimit:4;stroke-dasharray:none;stroke-dashoffset:0;stroke-opacity:1;paint-order:stroke fill markers;color-rendering:auto;image-rendering:auto;shape-rendering:auto;text-rendering:auto;enable-background:accumulate" transform="matrix(0.26458333,0,0,0.26458333,0,288.53332)"/> </g> </g>
</svg>