<svg width="32" height="32" viewBox="0 0 32 32" fill="none" xmlns="http://www.w3.org/2000/svg">
<path opacity="0.4" d="M22.7153 0H9.31664C3.47373 0 0 3.47373 0 9.30063V22.6993C0 28.5262 3.47373 31.9999 9.30063 31.9999H22.6993C28.5262 31.9999 31.9999 28.5262 31.9999 22.6993V9.30063C32.016 3.47373 28.5422 0 22.7153 0Z" fill="#9038FF"/>
<path d="M24.5737 11.2853L20.8278 23.3553C19.9314 26.2207 15.9134 26.2688 14.9689 23.4193L13.8485 20.1057C13.5444 19.1932 12.8238 18.4569 11.9115 18.1687L8.58181 17.0482C5.7484 16.1037 5.79642 12.0537 8.66185 11.1892L20.7319 7.42735C23.1011 6.70699 25.3261 8.9321 24.5737 11.2853Z" fill="#9038FF"/>
</svg>
