<svg width="22" height="22" viewBox="0 0 22 22" fill="none" xmlns="http://www.w3.org/2000/svg">
<path d="M11 21.75C5.07 21.75 0.25 16.93 0.25 11C0.25 5.07 5.07 0.25 11 0.25C16.93 0.25 21.75 5.07 21.75 11C21.75 16.93 16.93 21.75 11 21.75ZM11 1.75C5.9 1.75 1.75 5.9 1.75 11C1.75 16.1 5.9 20.25 11 20.25C16.1 20.25 20.25 16.1 20.25 11C20.25 5.9 16.1 1.75 11 1.75Z" fill="#1E88E5FF"/>
<path d="M13.5 11.75H7.5C7.09 11.75 6.75 11.41 6.75 11C6.75 10.59 7.09 10.25 7.5 10.25H13.5C13.91 10.25 14.25 10.59 14.25 11C14.25 11.41 13.91 11.75 13.5 11.75Z" fill="#1E88E5FF"/>
<path d="M11.4995 14.7499C11.3095 14.7499 11.1195 14.6799 10.9695 14.5299C10.6795 14.2399 10.6795 13.7599 10.9695 13.4699L13.4395 10.9999L10.9695 8.52994C10.6795 8.23994 10.6795 7.75994 10.9695 7.46994C11.2595 7.17994 11.7395 7.17994 12.0295 7.46994L15.0295 10.4699C15.3195 10.7599 15.3195 11.2399 15.0295 11.5299L12.0295 14.5299C11.8795 14.6799 11.6895 14.7499 11.4995 14.7499Z" fill="#1E88E5FF"/>
</svg>
