<svg width="100" height="100" viewBox="0 0 100 100" fill="none" xmlns="http://www.w3.org/2000/svg">
<path opacity="0.4" d="M50 100C77.614 100 100 77.6145 100 50C100 22.3858 77.614 0 50 0C22.3858 0 0 22.3858 0 50C0 77.6145 22.3858 100 50 100Z" fill="white"/>
<path d="M50 24.6497C39.65 24.6497 31.25 33.0497 31.25 43.3995C31.25 53.5495 39.2 61.7995 49.75 62.0995C49.9 62.0995 50.1 62.0995 50.2 62.0995C50.3 62.0995 50.45 62.0995 50.55 62.0995C50.6 62.0995 50.65 62.0995 50.65 62.0995C60.75 61.7495 68.7 53.5495 68.75 43.3995C68.75 33.0497 60.35 24.6497 50 24.6497Z" fill="white"/>
<path d="M83.9036 86.75C75.0036 94.95 63.1035 100 50.0035 100C36.9035 100 25.0035 94.95 16.1035 86.75C17.3035 82.2 20.5535 78.05 25.3035 74.85C38.9535 65.75 61.1535 65.75 74.7035 74.85C79.5036 78.05 82.7036 82.2 83.9036 86.75Z" fill="white"/>
</svg>
