<svg width="22" height="22" viewBox="0 0 22 22" fill="none" xmlns="http://www.w3.org/2000/svg">
<path d="M16.2 21.5C15.07 21.5 13.88 21.23 12.65 20.71C11.45 20.2 10.24 19.5 9.06 18.65C7.89 17.79 6.76 16.83 5.69 15.78C4.63 14.71 3.67 13.58 2.82 12.42C1.96 11.22 1.27 10.02 0.78 8.86C0.26 7.62 0 6.42 0 5.29C0 4.51 0.14 3.77 0.41 3.08C0.69 2.37 1.14 1.71 1.75 1.14C2.52 0.38 3.4 0 4.34 0C4.73 0 5.13 0.09 5.47 0.25C5.86 0.43 6.19 0.7 6.43 1.06L8.75 4.33C8.96 4.62 9.12 4.9 9.23 5.18C9.36 5.48 9.43 5.78 9.43 6.07C9.43 6.45 9.32 6.82 9.11 7.17C8.92621 7.48238 8.70081 7.76833 8.44 8.02L7.76 8.73C7.77 8.76 7.78 8.78 7.79 8.8C7.91 9.01 8.15 9.37 8.61 9.91C9.1 10.47 9.56 10.98 10.02 11.45C10.61 12.03 11.1 12.49 11.56 12.87C12.13 13.35 12.5 13.59 12.72 13.7L12.7 13.75L13.43 13.03C13.74 12.72 14.04 12.49 14.33 12.34C14.88 12 15.58 11.94 16.28 12.23C16.54 12.34 16.82 12.49 17.12 12.7L20.44 15.06C20.81 15.31 21.08 15.63 21.24 16.01C21.39 16.39 21.46 16.74 21.46 17.09C21.46 17.57 21.35 18.05 21.14 18.5C20.93 18.95 20.67 19.34 20.34 19.7C19.77 20.33 19.15 20.78 18.43 21.07C17.74 21.35 16.99 21.5 16.2 21.5ZM4.34 1.5C3.79 1.5 3.28 1.74 2.79 2.22C2.33 2.65 2.01 3.12 1.81 3.63C1.6 4.15 1.5 4.7 1.5 5.29C1.5 6.22 1.72 7.23 2.16 8.27C2.61 9.33 3.24 10.43 4.04 11.53C4.84 12.63 5.75 13.7 6.75 14.71C7.75 15.7 8.83 16.62 9.94 17.43C11.02 18.22 12.13 18.86 13.23 19.32C14.94 20.05 16.54 20.22 17.86 19.67C18.37 19.46 18.82 19.14 19.23 18.68C19.46 18.43 19.64 18.16 19.79 17.84C19.91 17.59 19.97 17.33 19.97 17.07C19.97 16.91 19.94 16.75 19.86 16.57C19.7961 16.4461 19.6992 16.3423 19.58 16.27L16.26 13.91C16.06 13.77 15.88 13.67 15.71 13.6C15.49 13.51 15.4 13.42 15.06 13.63C14.86 13.73 14.68 13.88 14.48 14.08L13.72 14.83C13.33 15.21 12.73 15.3 12.27 15.13L12 15.01C11.59 14.79 11.11 14.45 10.58 14C10.1 13.59 9.58 13.11 8.95 12.49C8.46 11.99 7.97 11.46 7.46 10.87C6.99 10.32 6.65 9.85 6.44 9.46L6.32 9.16C6.26 8.93 6.24 8.8 6.24 8.66C6.24 8.3 6.37 7.98 6.62 7.73L7.37 6.95C7.57 6.75 7.72 6.56 7.82 6.39C7.9 6.26 7.93 6.15 7.93 6.05C7.93 5.97 7.9 5.85 7.85 5.73C7.78 5.57 7.67 5.39 7.53 5.2L5.21 1.92C5.11638 1.78564 4.98867 1.67864 4.84 1.61C4.68 1.54 4.51 1.5 4.34 1.5ZM12.7 13.76L12.54 14.44L12.81 13.74C12.76 13.73 12.72 13.74 12.7 13.76Z" fill="#6B71FF"/>
<path d="M10.05 13.95L8.2 15.8C7.81 16.19 7.19 16.19 6.79 15.81C6.68 15.7 6.57 15.6 6.46 15.49C5.44877 14.472 4.5161 13.3789 3.67 12.22C2.85 11.08 2.19 9.94 1.71 8.81C1.24 7.67 1 6.58 1 5.54C1 4.86 1.12 4.21 1.36 3.61C1.6 3 1.98 2.44 2.51 1.94C3.15 1.31 3.85 1 4.59 1C4.87 1 5.15 1.06 5.4 1.18C5.66 1.3 5.89 1.48 6.07 1.74L8.39 5.01C8.57 5.26 8.7 5.49 8.79 5.71C8.88 5.92 8.93 6.13 8.93 6.32C8.93 6.56 8.86 6.8 8.72 7.03C8.59 7.26 8.4 7.5 8.16 7.74L7.4 8.53C7.29 8.64 7.24 8.77 7.24 8.93C7.24 9.01 7.25 9.08 7.27 9.16C7.3 9.24 7.33 9.3 7.35 9.36C7.53 9.69 7.84 10.12 8.28 10.64C8.73 11.16 9.21 11.69 9.73 12.22C9.83 12.32 9.94 12.42 10.04 12.52C10.44 12.91 10.45 13.55 10.05 13.95ZM20.97 17.33C20.9687 17.7074 20.8833 18.0798 20.72 18.42C20.55 18.78 20.33 19.12 20.04 19.44C19.55 19.98 19.01 20.37 18.4 20.62C18.39 20.62 18.38 20.63 18.37 20.63C17.78 20.87 17.14 21 16.45 21C15.43 21 14.34 20.76 13.19 20.27C12.04 19.78 10.89 19.12 9.75 18.29C9.36 18 8.97 17.71 8.6 17.4L11.87 14.13C12.15 14.34 12.4 14.5 12.61 14.61C12.66 14.63 12.72 14.66 12.79 14.69C12.87 14.72 12.95 14.73 13.04 14.73C13.21 14.73 13.34 14.67 13.45 14.56L14.21 13.81C14.46 13.56 14.7 13.37 14.93 13.25C15.16 13.11 15.39 13.04 15.64 13.04C15.83 13.04 16.03 13.08 16.25 13.17C16.47 13.26 16.7 13.39 16.95 13.56L20.26 15.91C20.52 16.09 20.7 16.3 20.81 16.55C20.91 16.8 20.97 17.05 20.97 17.33Z" fill="#6B71FF"/>
<circle cx="9.5" cy="14.5" r="2.5" fill="#6B71FF"/>
</svg>
