<svg width="20" height="20" viewBox="0 0 20 20" fill="none" xmlns="http://www.w3.org/2000/svg">
<path opacity="0.4" d="M14.19 0H5.81C2.17 0 0 2.17 0 5.81V14.18C0 17.83 2.17 20 5.81 20H14.18C17.82 20 19.99 17.83 19.99 14.19V5.81C20 2.17 17.83 0 14.19 0Z" fill="#FF5C38"/>
<path d="M10.0002 12.9098C9.8102 12.9098 9.6202 12.8398 9.4702 12.6898L5.94016 9.15981C5.65016 8.86981 5.65016 8.38981 5.94016 8.09981C6.23016 7.80983 6.71016 7.80983 7.00016 8.09981L10.0002 11.0998L13.0002 8.09981C13.2902 7.80983 13.7702 7.80983 14.0602 8.09981C14.3502 8.38981 14.3502 8.86981 14.0602 9.15981L10.5302 12.6898C10.3802 12.8398 10.1902 12.9098 10.0002 12.9098Z" fill="#FF5C38"/>
</svg>
