<svg xmlns="http://www.w3.org/2000/svg" viewBox="0 0 500 500"><g id="freepik--Floor--inject-2"><path d="M89.92,407.24c90.13,47.08,236.26,47.08,326.39,0s90.13-123.43,0-170.51-236.26-47.09-326.4,0S-.22,360.15,89.92,407.24Z" style="fill:#fafafa"></path></g><g id="freepik--Shadow--inject-2"><ellipse cx="184.59" cy="397.97" rx="28.03" ry="13.36" style="fill:#ebebeb"></ellipse></g><g id="freepik--Plants--inject-2"><path d="M91.75,253.91l4.62-1.17a113,113,0,0,0,2.87-18.58c1.19-15-4.64-26.32-11.9-31-8.62-5.55-13.14-.48-12.62,3.51.55,4.21,5.1,10.16,7.27,14.27C85.13,226.89,89.89,235.91,91.75,253.91Z" style="fill:#407BFF"></path><path d="M91.75,253.91l4.62-1.17a113,113,0,0,0,2.87-18.58c1.19-15-4.64-26.32-11.9-31-8.62-5.55-13.14-.48-12.62,3.51.55,4.21,5.1,10.16,7.27,14.27C85.13,226.89,89.89,235.91,91.75,253.91Z" style="opacity:0.2"></path><path d="M94,253.69h-.07a.34.34,0,0,1-.27-.4c5.52-26.69-5.82-45.72-12.83-49.53a.34.34,0,0,1-.13-.46.33.33,0,0,1,.46-.14c7.38,4,18.82,22.89,13.17,50.27A.35.35,0,0,1,94,253.69Z" style="fill:#fff"></path><path d="M91.75,253.91a38.52,38.52,0,0,0-1.91-14.78c-2.62-7.35-6.73-14.16-15-16.68s-14.7,3.46-10.63,8.94,19.22,8.89,22.17,26.08Z" style="fill:#407BFF"></path><path d="M89.4,255.82h0a.35.35,0,0,1-.31-.37c1.24-13.84-8.1-27.57-20.38-30a.34.34,0,0,1-.27-.4.33.33,0,0,1,.4-.27c12.61,2.48,22.19,16.54,20.93,30.71A.33.33,0,0,1,89.4,255.82Z" style="fill:#fff"></path><path d="M391.22,365.6s1.57-14.84,10.82-24.81,19.14-9.88,23-6.3-.11,9.15-8.7,14.58c-7.36,4.65-17.09,15.2-20.08,22.32Z" style="fill:#407BFF"></path><path d="M391.22,365.6s1.57-14.84,10.82-24.81,19.14-9.88,23-6.3-.11,9.15-8.7,14.58c-7.36,4.65-17.09,15.2-20.08,22.32Z" style="opacity:0.2"></path><path d="M393.35,368.4h-.09A.34.34,0,0,1,393,368c3.93-15.14,17.13-30.39,28.25-32.63a.34.34,0,1,1,.14.67c-10.89,2.2-23.85,17.22-27.73,32.14A.34.34,0,0,1,393.35,368.4Z" style="fill:#fff"></path><path d="M392.82,400.38s6.83,1.94,11.76-1.45c4.21-2.9,3.16-6,3.65-8.37s2.55-3.67,6-4.12c4.24-.55,8.2-1.22,8.94-5.7.66-3.95-5.86-6.08-3.92-9.94,1.47-2.91,4.77-4.85,7.49-7s1.1-6.85-5.4-6.86c-8.06,0-9.74,3-13.33,3.47s-5.6-1.6-9.53-1.08c-4.35.57-6.48,4.73-6.58,9.92Z" style="fill:#407BFF"></path><path d="M392.37,385.57l-.11,0a.34.34,0,0,1-.21-.44C395.64,375,415,360.9,423.11,359.46a.34.34,0,0,1,.4.28.34.34,0,0,1-.28.4c-8,1.42-27,15.26-30.53,25.2A.36.36,0,0,1,392.37,385.57Z" style="fill:#fff"></path><path d="M418.83,379.63a.32.32,0,0,1-.16,0c-5-2.59-13.56-4.48-20.12-3.07a.35.35,0,0,1-.15-.68c6.72-1.44,15.44.49,20.59,3.14a.34.34,0,0,1,.15.46A.37.37,0,0,1,418.83,379.63Z" style="fill:#fff"></path><path d="M402,373h0a.34.34,0,0,1-.34-.34c0-6.05-2-9-2.05-9a.34.34,0,1,1,.56-.4c.09.12,2.19,3.13,2.18,9.42A.35.35,0,0,1,402,373Z" style="fill:#fff"></path></g><g id="freepik--Resume--inject-2"><path d="M149.23,33.18l.6-.35a3.83,3.83,0,0,1,3.46,0l98.09,56.64a3.83,3.83,0,0,1,1.73,3V229.18a3.85,3.85,0,0,1-1.73,3l-.6.34a3.77,3.77,0,0,1-3.46,0l-98.09-56.63a3.81,3.81,0,0,1-1.73-3V36.18A3.82,3.82,0,0,1,149.23,33.18Z" style="fill:#fafafa"></path><path d="M253.11,160.82V92.47a3.45,3.45,0,0,0-.51-1.71L247,94V232.35l.31.17a3.77,3.77,0,0,0,3.46,0l.6-.34a3.85,3.85,0,0,0,1.73-3Z" style="fill:#e0e0e0"></path><path d="M149.23,35.18l98.09,56.63a3.85,3.85,0,0,1,1.73,3V231.52c0,1.11-.78,1.56-1.73,1l-98.09-56.63a3.81,3.81,0,0,1-1.73-3V36.18C147.5,35.08,148.27,34.63,149.23,35.18Z" style="fill:#f5f5f5"></path><path d="M161.41,51.6l73.72,42.56a3.81,3.81,0,0,1,1.73,3v5.38c0,1.1-.77,1.55-1.73,1L161.41,61a3.85,3.85,0,0,1-1.73-3V52.6C159.68,51.49,160.46,51,161.41,51.6Z" style="fill:#e0e0e0"></path><ellipse cx="169.84" cy="86.95" rx="8.29" ry="14.36" transform="translate(-20.72 96.56) rotate(-30)" style="fill:#e0e0e0"></ellipse><path d="M169.92,79c-2-1.14-3.56-.22-3.56,2.05a7.84,7.84,0,0,0,3.56,6.17c2,1.14,3.56.22,3.56-2A7.86,7.86,0,0,0,169.92,79Z" style="fill:#407BFF"></path><path d="M170.85,88.89l-2-1.17c-3.24-1.86-5.86-.35-5.86,3.38v.51a20.5,20.5,0,0,0,6.87,7.06c2.65,1.53,5,1.74,6.86.86V99A12.94,12.94,0,0,0,170.85,88.89Z" style="fill:#407BFF"></path><path d="M161.85,103.45l16,9.23a4.65,4.65,0,0,1,2.16,3.6c0,1.29-1,1.78-2.16,1.09l-16-9.22a4.65,4.65,0,0,1-2.17-3.6C159.68,103.25,160.65,102.76,161.85,103.45Z" style="fill:#e0e0e0"></path><path d="M161.85,112.83l16,9.23a4.65,4.65,0,0,1,2.16,3.59c0,1.3-1,1.79-2.16,1.1l-16-9.23a4.64,4.64,0,0,1-2.17-3.6C159.68,112.63,160.65,112.14,161.85,112.83Z" style="fill:#e0e0e0"></path><path d="M161.85,122.2l16,9.23A4.65,4.65,0,0,1,180,135c0,1.29-1,1.78-2.16,1.09l-16-9.22a4.65,4.65,0,0,1-2.17-3.6C159.68,122,160.65,121.51,161.85,122.2Z" style="fill:#e0e0e0"></path><path d="M161.85,131.58l16,9.23A4.65,4.65,0,0,1,180,144.4c0,1.3-1,1.79-2.16,1.1l-16-9.23a4.64,4.64,0,0,1-2.17-3.6C159.68,131.38,160.65,130.89,161.85,131.58Z" style="fill:#e0e0e0"></path><path d="M161.85,145.66l16,9.22a4.8,4.8,0,0,1,2.16,3.75v9.07c0,1.38-1,1.94-2.16,1.25l-16-9.22a4.78,4.78,0,0,1-2.17-3.75v-9.07C159.68,145.52,160.65,145,161.85,145.66Z" style="fill:#407BFF"></path><path d="M194.34,84.68,234.7,108a4.65,4.65,0,0,1,2.16,3.59c0,1.3-1,1.79-2.16,1.1l-40.36-23.3a4.65,4.65,0,0,1-2.16-3.59C192.18,84.48,193.15,84,194.34,84.68Z" style="fill:#407BFF"></path><path d="M194.34,94.06l40.36,23.3a4.65,4.65,0,0,1,2.16,3.59c0,1.3-1,1.79-2.16,1.1l-40.36-23.3a4.65,4.65,0,0,1-2.16-3.59C192.18,93.86,193.15,93.37,194.34,94.06Z" style="fill:#407BFF"></path><path d="M194.34,103.44l40.36,23.3a4.65,4.65,0,0,1,2.16,3.59c0,1.3-1,1.79-2.16,1.1l-40.36-23.3a4.65,4.65,0,0,1-2.16-3.59C192.18,103.24,193.15,102.75,194.34,103.44Z" style="fill:#407BFF"></path></g><g id="freepik--photo-2--inject-2"><path d="M332.45,119.7l3.8-2.19a4.79,4.79,0,0,1,4.33,0l85,49.1a4.78,4.78,0,0,1,2.17,3.75V277.93a4.78,4.78,0,0,1-2.17,3.75l-3.79,2.19a4.79,4.79,0,0,1-4.33,0l-85.05-49.1a4.8,4.8,0,0,1-2.16-3.75V123.45A4.8,4.8,0,0,1,332.45,119.7Z" style="fill:#455a64"></path><path d="M427.78,224.14V170.36a4.37,4.37,0,0,0-.64-2.14l-11.55,6.67V282.77l1.9,1.1a4.79,4.79,0,0,0,4.33,0l3.79-2.19a4.78,4.78,0,0,0,2.17-3.75Z" style="fill:#263238"></path><path d="M332.45,122.2l85,49.1a4.8,4.8,0,0,1,2.16,3.75V282.62c0,1.38-1,1.94-2.16,1.25l-85.05-49.1a4.8,4.8,0,0,1-2.16-3.75V123.45C330.29,122.07,331.26,121.51,332.45,122.2Z" style="fill:#37474f"></path><path d="M411.39,174.77l-72.85-42.06c-1.2-.69-2.16-.13-2.16,1.25v81.78a4.8,4.8,0,0,0,2.16,3.75l72.85,42.06c1.2.69,2.17.13,2.17-1.25V178.52A4.78,4.78,0,0,0,411.39,174.77Z" style="fill:#fff"></path><path d="M353.24,151a15.51,15.51,0,0,1,7,12.15c0,4.48-3.14,6.29-7,4.05a15.49,15.49,0,0,1-7-12.15C346.23,150.56,349.37,148.75,353.24,151Z" style="fill:#407BFF"></path><path d="M371.46,200.76l-13-19.66c-2.11-3.18-5.75-3.35-8.14-.37L336.38,198v17.77a4.78,4.78,0,0,0,2.17,3.75l72.84,42c1.2.69,2.17.13,2.17-1.25v-46.1l-18.1-38.31c-1.63-3.45-4.69-3.69-6.82-.53Z" style="fill:#407BFF"></path></g><g id="freepik--Briefcase--inject-2"><path d="M350.87,362.36,374.7,348.6a9.56,9.56,0,0,0,4.33-7.5V205.69a9.58,9.58,0,0,0-4.33-7.5l-161.94-93.5a9.57,9.57,0,0,0-8.66,0l-23.84,13.76a9.58,9.58,0,0,0-4.33,7.5V261.36a9.58,9.58,0,0,0,4.33,7.5l162,93.5A9.57,9.57,0,0,0,350.87,362.36Z" style="fill:#455a64"></path><path d="M379,205.69a8.9,8.9,0,0,0-1.26-4.27L342.48,221.8V362.48a9.59,9.59,0,0,0,8.38-.12l23.85-13.77A9.55,9.55,0,0,0,379,341.1Z" style="fill:#37474f"></path><path d="M342.21,217l-161.95-93.5c-2.39-1.38-4.33-.26-4.33,2.5V261.36a9.58,9.58,0,0,0,4.33,7.5l162,93.5c2.39,1.38,4.33.26,4.33-2.5V224.45A9.58,9.58,0,0,0,342.21,217Z" style="fill:#37474f"></path><path d="M356.42,208.75a9.58,9.58,0,0,1,4.33,7.5v140.4l4.06-2.34V213.9a9.58,9.58,0,0,0-4.33-7.5l-166.28-96-4.06,2.35Z" style="fill:#263238"></path><path d="M360.48,206.4l-166-95.84-4.19,2.27,166.14,95.92a8.83,8.83,0,0,1,3.06,3.23l4.06-2.34h0A8.78,8.78,0,0,0,360.48,206.4Z" style="fill:#37474f"></path><path d="M335.31,184.83l-2.86-1.65a4.79,4.79,0,0,0-4.33,0l-11,6.34-1.83-.55v2.34h0a1.52,1.52,0,0,0,.9,1.25l3.79,2.19a4.79,4.79,0,0,0,4.33,0l11.92-6.88a1.52,1.52,0,0,0,.89-1.25h0v-2.35Z" style="fill:#263238"></path><path d="M336.25,183l-3.8-2.19a4.79,4.79,0,0,0-4.33,0l-11.91,6.89a1.31,1.31,0,0,0,0,2.49l3.79,2.2a4.79,4.79,0,0,0,4.33,0l11.92-6.89A1.32,1.32,0,0,0,336.25,183Z" style="fill:#455a64"></path><path d="M237.82,128.55,235,126.9a4.81,4.81,0,0,0-4.34,0l-11,6.34-1.83-.55V135h0a1.52,1.52,0,0,0,.9,1.25l3.79,2.19a4.79,4.79,0,0,0,4.33,0l11.92-6.88a1.5,1.5,0,0,0,.89-1.25h0V128Z" style="fill:#263238"></path><path d="M238.76,126.75l-3.8-2.2a4.79,4.79,0,0,0-4.33,0l-11.91,6.89a1.32,1.32,0,0,0,0,2.5l3.79,2.19a4.79,4.79,0,0,0,4.33,0l11.92-6.88A1.32,1.32,0,0,0,238.76,126.75Z" style="fill:#455a64"></path><path d="M269.36,128v14.07l-8.12,4.69V125.3c0-1.11.77-1.55,1.73-1Z" style="fill:#263238"></path><path d="M312,142.91v26.15l-6,3.49-4.06-2.35V148.75a3.85,3.85,0,0,0-1.73-3L269.36,128,263,124.3c-1-.55-1.73-.11-1.73,1v21.45l-4.07-2.35V118.26a2,2,0,0,1,0-.34,3.85,3.85,0,0,1,1.71-2.66l2.57-1.49a3.83,3.83,0,0,1,3.46,0l45.28,26.14A3.84,3.84,0,0,1,312,142.91Z" style="fill:#455a64"></path><path d="M305.92,146.4v26.15l-4.06-2.35V148.75a3.85,3.85,0,0,0-1.73-3L269.36,128,263,124.3c-1-.55-1.73-.11-1.73,1v21.45l-4.07-2.35V118.26a2,2,0,0,1,0-.34c.15-.85.86-1.15,1.71-.66l45.28,26.14A3.86,3.86,0,0,1,305.92,146.4Z" style="fill:#37474f"></path></g><g id="freepik--Folder--inject-2"><path d="M366.85,409.4l4.06-2.35L366.85,290a4.81,4.81,0,0,0-2.17-3.75l-76.91-44.41a7.75,7.75,0,0,1-3-3.61l-2.43-7a7.61,7.61,0,0,0-3-3.58l-36.25-20.28c-1.2-.67-2.19-.1-2.19,1.28V334.2a4.82,4.82,0,0,0,2.17,3.75Z" style="fill:#407BFF"></path><path d="M366.85,409.4l4.06-2.35L366.85,290a4.81,4.81,0,0,0-2.17-3.75l-76.91-44.41a7.75,7.75,0,0,1-3-3.61l-2.43-7a7.61,7.61,0,0,0-3-3.58l-36.25-20.28c-1.2-.67-2.19-.1-2.19,1.28V334.2a4.82,4.82,0,0,0,2.17,3.75Z" style="opacity:0.2"></path><path d="M307.65,211.06l85.9,49.6a3.81,3.81,0,0,1,1.73,3v141.4c0,1.11-.77,1.55-1.73,1l-85.9-49.59a3.84,3.84,0,0,1-1.73-3V212.06C305.92,211,306.69,210.51,307.65,211.06Z" style="fill:#fff"></path><g style="opacity:0.5"><path d="M394.33,406.8a2.09,2.09,0,0,1-1-.3l-85.9-49.6a4.32,4.32,0,0,1-2-3.43V212.06a1.54,1.54,0,0,1,2.48-1.43l85.9,49.59a4.34,4.34,0,0,1,2,3.44v141.4a1.72,1.72,0,0,1-.75,1.56A1.4,1.4,0,0,1,394.33,406.8ZM306.88,211.33a.46.46,0,0,0-.21,0,.8.8,0,0,0-.25.69V353.47A3.33,3.33,0,0,0,307.9,356l85.9,49.6a.77.77,0,0,0,.73.12.78.78,0,0,0,.25-.69V263.66a3.33,3.33,0,0,0-1.48-2.57L307.4,211.5A1,1,0,0,0,306.88,211.33Z" style="fill:#e0e0e0"></path></g><path d="M316.21,230.07l40.35,23.3a4.63,4.63,0,0,1,2.16,3.6c0,1.29-1,1.78-2.16,1.09l-40.35-23.29a4.65,4.65,0,0,1-2.17-3.6C314,229.87,315,229.38,316.21,230.07Z" style="fill:#37474f"></path><path d="M316.21,244.15,385,283.86a4.64,4.64,0,0,1,2.17,3.59c0,1.3-1,1.79-2.16,1.1l-68.79-39.71a4.64,4.64,0,0,1-2.17-3.6C314,244,315,243.46,316.21,244.15Z" style="fill:#e0e0e0"></path><path d="M316.21,258.22,385,297.93a4.64,4.64,0,0,1,2.17,3.59c0,1.3-1,1.79-2.16,1.1l-68.79-39.71a4.64,4.64,0,0,1-2.17-3.6C314,258,315,257.53,316.21,258.22Z" style="fill:#e0e0e0"></path><path d="M316.21,272.29,385,312a4.64,4.64,0,0,1,2.17,3.6c0,1.29-1,1.78-2.16,1.09L316.21,277a4.64,4.64,0,0,1-2.17-3.59C314,272.09,315,271.6,316.21,272.29Z" style="fill:#e0e0e0"></path><path d="M316.21,286.36,385,326.07a4.64,4.64,0,0,1,2.17,3.6c0,1.29-1,1.78-2.16,1.09l-68.79-39.71a4.64,4.64,0,0,1-2.17-3.59C314,286.16,315,285.67,316.21,286.36Z" style="fill:#e0e0e0"></path><path d="M316.21,300.43,385,340.14a4.65,4.65,0,0,1,2.17,3.6c0,1.3-1,1.79-2.16,1.1l-68.79-39.72a4.64,4.64,0,0,1-2.17-3.59C314,300.23,315,299.74,316.21,300.43Z" style="fill:#e0e0e0"></path><path d="M316.21,314.51,385,354.22a4.64,4.64,0,0,1,2.17,3.59c0,1.3-1,1.79-2.16,1.1L316.21,319.2a4.64,4.64,0,0,1-2.17-3.6C314,314.31,315,313.82,316.21,314.51Z" style="fill:#e0e0e0"></path><path d="M316.21,328.58,385,368.29a4.64,4.64,0,0,1,2.17,3.59c0,1.3-1,1.79-2.16,1.1l-68.79-39.71a4.64,4.64,0,0,1-2.17-3.6C314,328.38,315,327.89,316.21,328.58Z" style="fill:#e0e0e0"></path><path d="M295.46,218.09l85.9,49.6a3.82,3.82,0,0,1,1.74,3v141.4c0,1.1-.78,1.55-1.74,1l-85.9-49.6a3.83,3.83,0,0,1-1.73-3V219.09C293.73,218,294.51,217.54,295.46,218.09Z" style="fill:#fff"></path><path d="M382.14,413.82a2.09,2.09,0,0,1-1-.3l-85.9-49.59a4.32,4.32,0,0,1-2-3.44V219.09a1.55,1.55,0,0,1,2.48-1.43l85.9,49.59a4.31,4.31,0,0,1,2,3.44v141.4a1.7,1.7,0,0,1-.76,1.55A1.4,1.4,0,0,1,382.14,413.82ZM294.69,218.35a.39.39,0,0,0-.2.05.77.77,0,0,0-.26.69v141.4a3.33,3.33,0,0,0,1.48,2.57l85.9,49.6a.58.58,0,0,0,1-.57V270.69a3.32,3.32,0,0,0-1.49-2.57l-85.9-49.6A1.09,1.09,0,0,0,294.69,218.35Z" style="fill:#e0e0e0"></path><path d="M304,237.1l40.35,23.3a4.64,4.64,0,0,1,2.17,3.6c0,1.29-1,1.78-2.17,1.09L304,241.79a4.64,4.64,0,0,1-2.17-3.59C301.85,236.9,302.82,236.41,304,237.1Z" style="fill:#e0e0e0"></path><path d="M304,251.17l68.79,39.71a4.67,4.67,0,0,1,2.16,3.6c0,1.3-1,1.79-2.16,1.1L304,255.86a4.64,4.64,0,0,1-2.17-3.59C301.85,251,302.82,250.48,304,251.17Z" style="fill:#e0e0e0"></path><path d="M304,265.25,372.81,305a4.65,4.65,0,0,1,2.16,3.59c0,1.3-1,1.79-2.16,1.1L304,269.94a4.64,4.64,0,0,1-2.17-3.6C301.85,265.05,302.82,264.56,304,265.25Z" style="fill:#e0e0e0"></path><path d="M304,279.32,372.81,319a4.65,4.65,0,0,1,2.16,3.59c0,1.3-1,1.79-2.16,1.1L304,284a4.64,4.64,0,0,1-2.17-3.6C301.85,279.12,302.82,278.63,304,279.32Z" style="fill:#e0e0e0"></path><path d="M304,293.39l68.79,39.71a4.65,4.65,0,0,1,2.16,3.6c0,1.29-1,1.78-2.16,1.09L304,298.08a4.64,4.64,0,0,1-2.17-3.59C301.85,293.19,302.82,292.7,304,293.39Z" style="fill:#e0e0e0"></path><path d="M304,307.46l68.79,39.71a4.65,4.65,0,0,1,2.16,3.6c0,1.29-1,1.78-2.16,1.09L304,312.15a4.64,4.64,0,0,1-2.17-3.59C301.85,307.26,302.82,306.77,304,307.46Z" style="fill:#e0e0e0"></path><path d="M304,321.53l68.79,39.71a4.65,4.65,0,0,1,2.16,3.6c0,1.3-1,1.79-2.16,1.1L304,326.22a4.64,4.64,0,0,1-2.17-3.59C301.85,321.33,302.82,320.84,304,321.53Z" style="fill:#e0e0e0"></path><path d="M304,335.61l68.79,39.71a4.65,4.65,0,0,1,2.16,3.59c0,1.3-1,1.79-2.16,1.1L304,340.3a4.64,4.64,0,0,1-2.17-3.6C301.85,335.41,302.82,334.92,304,335.61Z" style="fill:#e0e0e0"></path><path d="M366.85,409.4,347,301.63a6.2,6.2,0,0,0-2.62-3.71l-121.59-70.2c-1.19-.69-2-.14-1.71,1.21l19.4,105.31a6.2,6.2,0,0,0,2.62,3.71Z" style="fill:#407BFF"></path></g><g id="freepik--photo-1--inject-2"><path d="M216.55,278.22v70a4.78,4.78,0,0,0,2.17,3.75l48.47,28a4.07,4.07,0,0,0,6.23-3.6V306.36a4.8,4.8,0,0,0-2.16-3.75l-48.48-28a4.07,4.07,0,0,0-6.23,3.59Z" style="fill:#455a64"></path><path d="M273.42,341.39v-35a4.43,4.43,0,0,0-.63-2.13l-6.1,3.52v72l.5.29a4.64,4.64,0,0,0,4.2.07h0a4.63,4.63,0,0,0,2-3.67Z" style="fill:#263238"></path><path d="M218.72,277l48.47,28a4.78,4.78,0,0,1,2.17,3.75v70.05c0,1.38-1,1.94-2.17,1.25l-48.47-28a4.78,4.78,0,0,1-2.17-3.75v-70C216.55,276.84,217.52,276.28,218.72,277Z" style="fill:#37474f"></path><path d="M222.78,284l40.35,23.29a4.8,4.8,0,0,1,2.17,3.75v51.29c0,1.38-1,1.94-2.17,1.25l-40.35-23.3a4.78,4.78,0,0,1-2.17-3.75V285.26C220.61,283.88,221.58,283.32,222.78,284Z" style="fill:#fff"></path><path d="M230.38,296a10.6,10.6,0,0,1,4.79,8.31c0,3.06-2.14,4.3-4.79,2.77a10.61,10.61,0,0,1-4.8-8.31C225.58,295.69,227.73,294.45,230.38,296Z" style="fill:#407BFF"></path><path d="M250.87,314.21l-10,14.7-7.55-11.38a2.75,2.75,0,0,0-4.72-.22l-8,10v9.22a4.78,4.78,0,0,0,2.17,3.75l40.35,23.3c1.2.69,2.17.13,2.17-1.25V336.7l-10.48-22.18C253.88,312.52,252.11,312.38,250.87,314.21Z" style="fill:#407BFF"></path><path d="M250.87,314.21l-10,14.7-7.55-11.38a2.75,2.75,0,0,0-4.72-.22l-8,10v9.22a4.78,4.78,0,0,0,2.17,3.75l40.35,23.3c1.2.69,2.17.13,2.17-1.25V336.7l-10.48-22.18C253.88,312.52,252.11,312.38,250.87,314.21Z" style="opacity:0.2"></path></g><g id="freepik--Certificate--inject-2"><path d="M63.92,265.34A105.6,105.6,0,0,0,115,174.89V139.37c0-1.1.78-1.55,1.73-1l90,51.94a3.85,3.85,0,0,1,1.73,3v35.52A105.61,105.61,0,0,1,157.73,319a4.14,4.14,0,0,1-4.23,0L63.93,267.36A1.07,1.07,0,0,1,63.92,265.34Z" style="fill:#fff"></path><path d="M155.61,320.14a4.65,4.65,0,0,1-2.36-.64L63.68,267.79a1.56,1.56,0,0,1,0-2.88h0a105.65,105.65,0,0,0,50.84-90V139.37a1.71,1.71,0,0,1,.76-1.55,1.68,1.68,0,0,1,1.72.12l90,51.94a4.32,4.32,0,0,1,2,3.43v35.52A106.72,106.72,0,0,1,158,319.47,4.51,4.51,0,0,1,155.61,320.14ZM64.18,265.77c-.3.18-.47.39-.47.59s.17.39.47.56l89.57,51.72a3.67,3.67,0,0,0,3.72,0,105.72,105.72,0,0,0,50.46-89.79V193.31a3.35,3.35,0,0,0-1.48-2.57l-90-51.94a.78.78,0,0,0-.72-.12.77.77,0,0,0-.26.69v35.52a106.7,106.7,0,0,1-51.32,90.88Z" style="fill:#e0e0e0"></path><path d="M170,183.18l24.11,13.92a4.65,4.65,0,0,1,2.16,3.59c0,1.3-1,1.79-2.16,1.1L170,187.87a4.65,4.65,0,0,1-2.16-3.6C167.81,183,168.78,182.49,170,183.18Z" style="fill:#e0e0e0"></path><path d="M155.62,196c0,1.29-1,1.78-2.17,1.09l-24.1-13.91a4.65,4.65,0,0,1-2.16-3.59c0-1.3,1-1.79,2.16-1.1l24.1,13.91A4.64,4.64,0,0,1,155.62,196Z" style="fill:#e0e0e0"></path><path d="M195.06,237.52c-.18,1.19-1.32,1.59-2.52.9l-64.71-37.36a3.7,3.7,0,0,1-1.82-3.41c.18-1.19,1.27-1.6,2.46-.91l64.73,37.37A3.73,3.73,0,0,1,195.06,237.52Z" style="fill:#e0e0e0"></path><path d="M192.39,250.06c-.32,1.11-1.56,1.45-2.76.76l-64.71-37.37a3.13,3.13,0,0,1-1.58-3.26c.31-1.12,1.51-1.47,2.7-.78l64.72,37.37A3.18,3.18,0,0,1,192.39,250.06Z" style="fill:#e0e0e0"></path><path d="M188.36,261.8c-.43,1.05-1.76,1.33-3,.64l-64.72-37.36a2.69,2.69,0,0,1-1.36-3.14,1.93,1.93,0,0,1,2.91-.66L187,258.65A2.73,2.73,0,0,1,188.36,261.8Z" style="fill:#e0e0e0"></path><path d="M183.08,272.83a2.28,2.28,0,0,1-3.17.51L115.2,236a2.34,2.34,0,0,1-1.16-3,2.22,2.22,0,0,1,3.12-.54l64.72,37.36A2.37,2.37,0,0,1,183.08,272.83Z" style="fill:#e0e0e0"></path><path d="M145.71,270a2.72,2.72,0,0,1-3.43.36L106,249.43a2,2,0,0,1-.89-2.86,2.68,2.68,0,0,1,3.4-.39l36.29,21C146,267.83,146.41,269.13,145.71,270Z" style="fill:#e0e0e0"></path><path d="M132.46,289.41s-19,12.54-41.83,13.41c4.65,2.69,15.14,3.8,23.24,2.69,0,0-1.13,4.71-9.3,10.73,0,0,13.3,3.59,37.19-21.47Z" style="fill:#407BFF"></path><path d="M152.56,294.12c-4.07,4.14-12.28,4.49-17.89,1.25s-6.49-8.83-2.42-13,11.53-5.22,17.14-2S156.63,290,152.56,294.12Z" style="fill:#407BFF"></path><path d="M152.56,294.12c-4.07,4.14-12.28,4.49-17.89,1.25s-6.49-8.83-2.42-13,11.53-5.22,17.14-2S156.63,290,152.56,294.12Z" style="opacity:0.2"></path><path d="M152.56,292.87c-4.07,4.14-12.28,4.48-17.89,1.25s-6.49-8.84-2.42-13,11.53-5.23,17.14-2S156.63,288.73,152.56,292.87Z" style="fill:#407BFF"></path><path d="M143.13,293.29a14.14,14.14,0,0,1-7-1.77c-2-1.15-3.2-2.65-3.41-4.24a4.93,4.93,0,0,1,1.62-4,11,11,0,0,1,7.77-3,11.42,11.42,0,0,1,5.74,1.49,7.4,7.4,0,0,1,3.89,5.12,4.51,4.51,0,0,1-1.36,3.89A10.23,10.23,0,0,1,143.13,293.29Z" style="fill:#407BFF"></path><path d="M143.13,293.29a14.14,14.14,0,0,1-7-1.77c-2-1.15-3.2-2.65-3.41-4.24a4.93,4.93,0,0,1,1.62-4,11,11,0,0,1,7.77-3,11.42,11.42,0,0,1,5.74,1.49,7.4,7.4,0,0,1,3.89,5.12,4.51,4.51,0,0,1-1.36,3.89A10.23,10.23,0,0,1,143.13,293.29Z" style="opacity:0.30000000000000004"></path><path d="M147.89,283a11.52,11.52,0,0,0-5.74-1.49,11,11,0,0,0-7.77,3,5.63,5.63,0,0,0-1.6,2.88,6.29,6.29,0,0,0,3.39,4.13,14.14,14.14,0,0,0,7,1.77,10.23,10.23,0,0,0,7.29-2.52,4.65,4.65,0,0,0,1.36-2.66A7.45,7.45,0,0,0,147.89,283Z" style="fill:#407BFF"></path><path d="M147.89,283a11.52,11.52,0,0,0-5.74-1.49,11,11,0,0,0-7.77,3,5.63,5.63,0,0,0-1.6,2.88,6.29,6.29,0,0,0,3.39,4.13,14.14,14.14,0,0,0,7,1.77,10.23,10.23,0,0,0,7.29-2.52,4.65,4.65,0,0,0,1.36-2.66A7.45,7.45,0,0,0,147.89,283Z" style="opacity:0.2"></path></g><g id="freepik--Character--inject-2"><circle cx="182.65" cy="260.36" r="7.53" transform="translate(-114.7 373.22) rotate(-75.74)" style="fill:#263238"></circle><rect x="195.37" y="387.73" width="5.3" height="9.08" style="fill:#ffa8a7"></rect><polygon points="182.29 387.25 176.99 387.43 176.72 377.82 182.29 377.64 182.29 387.25" style="fill:#ffa8a7"></polygon><path d="M200.32,309.94c0,5.06.66,41.58.66,41.58.12,1.46,1.49,4.15,1.19,9.74-.4,7.6-1.27,31-1.27,31a7,7,0,0,1-5.91.11s-4.67-31.09-5.63-38.62c-.82-6.58-2.23-24.44-2.23-24.44l-2.87,21.47a30.29,30.29,0,0,1,.65,8.42c-.25,3.49-2.29,25.06-2.29,25.06a7.25,7.25,0,0,1-6.12.47s-2.68-30.76-2.74-33.95c-.07-3.65,1.76-40.85,1.76-40.85Z" style="fill:#37474f"></path><path d="M198.06,281.17s2,1.2,2,6v10.39l.15,19.61a23.56,23.56,0,0,1-25.34-1.68s.39-25.21.39-29.34,2.3-9.5,8.64-9.87l8.18,1.9Z" style="fill:#fff"></path><path d="M175.27,302.85c2.46-10.33,3.27-20.66,3.69-23.32l-6.81,10.88s-1.51,8.45-2.28,12.93a86.55,86.55,0,0,1-4.24,14.1,4.87,4.87,0,0,1-1.91,1.55,13.5,13.5,0,0,0-3.21,2.43c-.88.74-1.58.87-1.51,1.14a1.3,1.3,0,0,0,1.6.78,9.13,9.13,0,0,0,2-.81,12.22,12.22,0,0,1-2.34,3.13c-2.14,2.09-2.39,3.5,1.41,4,2.38.29,4.45-1,6.84-6a42.73,42.73,0,0,0,2.35-5.7C172.39,312.83,174.53,306,175.27,302.85Z" style="fill:#ffa8a7"></path><path d="M180.73,276.3c-2.29-.37-3.87-.17-5.44,1.52-1,1.06-2,2.82-3.72,13.4-1.49,9.2-5.74,24.39-5.74,24.39a6.44,6.44,0,0,0,5.79,2.09l7.48-27.51Z" style="fill:#37474f"></path><path d="M184.16,276.74a11.39,11.39,0,0,0-3.64,5.64c-.78,3.37-.91,40.94-.91,40.94s-4-.74-5.85-2.2V286.78C173.76,281.86,174.86,274.38,184.16,276.74Z" style="fill:#37474f"></path><path d="M192.34,278.64s-4.44,4.61-4.54,15.86-.28,31-.28,31,7.82,1.59,13.4-1.74c0,0-.63-28.18-.74-32.41-.12-4.84,1.29-8.95-1.43-10.31A41.16,41.16,0,0,0,192.34,278.64Z" style="fill:#37474f"></path><path d="M195.66,265.72a64.74,64.74,0,0,1-1.71,6.67,2.61,2.61,0,0,1-1.5,1.21l.08-4Z" style="fill:#263238"></path><path d="M194.13,257.51a2.79,2.79,0,0,1,2.33.82c1,1,.45,4.24-.8,7.39l-2.3.26Z" style="fill:#263238"></path><path d="M192.67,266c.46.28,1.12-.61,1.69-1.2a2,2,0,0,1,3.34.54c1,2-.81,4.61-2.27,5.07-2.52.79-2.9-.82-2.9-.82l-.19,9.07-8.72,5.75a12.71,12.71,0,0,1,.53-6v-2.76a15.86,15.86,0,0,1-3.39.18c-1.85-.29-3-1.75-3.58-3.75-.9-3.22-1.24-5.82-.48-12.15.84-6.93,8.91-7,13.26-4.26S192.67,266,192.67,266Z" style="fill:#ffa8a7"></path><path d="M183.62,284.39l8.75-7.12,0-1.14s2,.4,2.3,3.24l-5.31,8.09-2.25-4.21Z" style="fill:#f0f0f0"></path><path d="M184.16,275.64a4.1,4.1,0,0,0-2.72,1.63c-.83,1.38-2.34,7.12-2.34,7.12l2.82-2.18,1.7,2.18a18,18,0,0,1,.53-6Z" style="fill:#f0f0f0"></path><path d="M192.67,266.76c.23,0,1.11-1.46,1.69-2,.79-.73-.23-7.27-.23-7.27a3.1,3.1,0,0,0-.77-3.31c-1.09-1.2-2.91-1.34-6-1.82-1.63-.26-4.1-.72-5.72-1-2-.36-3.55-.74-4.93.45a3.47,3.47,0,0,0-.95,3.86,3.27,3.27,0,0,0,.55.82,3.23,3.23,0,0,0,1.4,1s.85.75,3.8,1.11a42.9,42.9,0,0,0,8.16-.16c.86-.11,1,.71,1.5,3C191.56,263.37,191.89,266.74,192.67,266.76Z" style="fill:#263238"></path><path d="M194.12,258l2.79-1.5a1.54,1.54,0,0,0-2.11-.7A1.68,1.68,0,0,0,194.12,258Z" style="fill:#263238"></path><path d="M184.16,275.64a31.64,31.64,0,0,0,5.58-1.6,4.73,4.73,0,0,0,2-2,6.57,6.57,0,0,1-1.13,2.33c-1.06,1.35-6.44,2.34-6.44,2.34Z" style="fill:#f28f8f"></path><path d="M185.15,265a.83.83,0,1,0,1.66,0,.83.83,0,1,0-1.66,0Z" style="fill:#263238"></path><path d="M186,261.82l1.77,1a1.06,1.06,0,0,0-.41-1.41A1,1,0,0,0,186,261.82Z" style="fill:#263238"></path><path d="M184.53,270.67l-1.88.71a1,1,0,0,0,1.28.62A1,1,0,0,0,184.53,270.67Z" style="fill:#f28f8f"></path><path d="M177.77,262.51l1.62-1.24a1,1,0,0,0-1.41-.22A1.08,1.08,0,0,0,177.77,262.51Z" style="fill:#263238"></path><path d="M178.27,264.71a.83.83,0,1,0,.83-.86A.84.84,0,0,0,178.27,264.71Z" style="fill:#263238"></path><polygon points="182.49 263.93 182.21 268.91 179.62 268.02 182.49 263.93" style="fill:#f28f8f"></polygon><path d="M195.37,394.19v-.76c-.51.22-1.69,4.72-3.79,6.64-1.67,1.52-4,3.29-4.54,5s3.18,2.74,4.74,2.46c1.82-.32,5-1.6,5.76-2.78s1.16-2.93,1.8-3.8,2.12-1.84,2.47-2.85a6.39,6.39,0,0,0-.31-2.78c-.24-.94-.51-2-.83-1.88V394a4.18,4.18,0,0,1-2.65.9C197.24,394.93,195.36,394.78,195.37,394.19Z" style="fill:#263238"></path><path d="M176.93,385.79c-.27,0-.5.4-1.1,1.06a11.79,11.79,0,0,1-3.12,2.24c-2,1-5.85,2.52-7.6,3.31-1.09.49-1,1.81.09,2.56s3.85,1.29,7.12.56c1.79-.4,4.1-2,5.57-1.95s4.22.06,5.3-.68.65-2.35.34-3.72-.75-3.82-1.24-3.72V386c-.64,1-3.93,1.36-5.33.65Z" style="fill:#263238"></path><path d="M187.13,329.32a19.55,19.55,0,0,1-7.38-4.23s1.42,2.67,5.66,5.15L184.5,349Z" style="fill:#263238"></path><path d="M186.18,283.56c-.3-.72-1.34-1.05-2.32-1.07a1.48,1.48,0,0,0-1.5,1.54,6.48,6.48,0,0,0,.51,2.39,3.63,3.63,0,0,1,2.21.2A7,7,0,0,0,186.18,283.56Z" style="fill:#263238"></path><path d="M182.87,286.42s-1.84,15.13-1.8,16,1.93,6.13,2.9,6.13,2.84-4.71,2.89-5.45-1.78-16.5-1.78-16.5A1.89,1.89,0,0,0,182.87,286.42Z" style="fill:#263238"></path><path d="M195.22,368.27,191.33,366a1.54,1.54,0,0,1-.7-1.22V342.74a1.57,1.57,0,0,1,.7-1.23l26.39-15.23a1.55,1.55,0,0,1,1.42,0l3.88,2.24a1.55,1.55,0,0,1,.71,1.22v22.07A1.57,1.57,0,0,1,223,353l-26.39,15.24A1.59,1.59,0,0,1,195.22,368.27Z" style="fill:#407BFF"></path><path d="M190.63,342.74a1.52,1.52,0,0,1,.2-.7l5.76,3.32v22.93a1.6,1.6,0,0,1-1.37,0L191.33,366a1.54,1.54,0,0,1-.7-1.22Z" style="fill:#f28f8f"></path><path d="M190.63,342.74a1.52,1.52,0,0,1,.2-.7l5.76,3.32v22.93a1.6,1.6,0,0,1-1.37,0L191.33,366a1.54,1.54,0,0,1-.7-1.22Z" style="fill:#407BFF"></path><path d="M190.63,342.74a1.52,1.52,0,0,1,.2-.7l5.76,3.32v22.93a1.6,1.6,0,0,1-1.37,0L191.33,366a1.54,1.54,0,0,1-.7-1.22Z" style="opacity:0.2"></path><path d="M196.63,344.57,223,329.33c.39-.22.71,0,.71.41v22.07A1.57,1.57,0,0,1,223,353l-26.39,15.24c-.39.22-.71,0-.71-.41V345.79A1.57,1.57,0,0,1,196.63,344.57Z" style="fill:#407BFF"></path><path d="M194.31,343.23a1.57,1.57,0,0,0-.7,1.23v22.88L193,367V344.07a1.56,1.56,0,0,1,.7-1.22l27.1-15.64.66.38Z" style="fill:#407BFF"></path><path d="M194.31,343.23a1.57,1.57,0,0,0-.7,1.23v22.88L193,367V344.07a1.56,1.56,0,0,1,.7-1.22l27.1-15.64.66.38Z" style="opacity:0.30000000000000004"></path><path d="M193.65,342.85l27-15.62.69.37-27.08,15.63a1.6,1.6,0,0,0-.5.53l-.66-.38h0A1.51,1.51,0,0,1,193.65,342.85Z" style="fill:#407BFF"></path><path d="M193.65,342.85l27-15.62.69.37-27.08,15.63a1.6,1.6,0,0,0-.5.53l-.66-.38h0A1.51,1.51,0,0,1,193.65,342.85Z" style="opacity:0.2"></path><path d="M197.75,339.34l.47-.27a.78.78,0,0,1,.7,0l1.79,1,.3-.09v.38h0a.26.26,0,0,1-.14.21l-.62.35a.75.75,0,0,1-.71,0l-1.94-1.12a.24.24,0,0,1-.15-.2h0v-.38Z" style="fill:#407BFF"></path><path d="M197.75,339.34l.47-.27a.78.78,0,0,1,.7,0l1.79,1,.3-.09v.38h0a.26.26,0,0,1-.14.21l-.62.35a.75.75,0,0,1-.71,0l-1.94-1.12a.24.24,0,0,1-.15-.2h0v-.38Z" style="opacity:0.2"></path><path d="M197.6,339l.62-.35a.73.73,0,0,1,.7,0l2,1.12a.21.21,0,0,1,0,.4l-.62.36a.81.81,0,0,1-.71,0l-1.94-1.12A.22.22,0,0,1,197.6,339Z" style="fill:#407BFF"></path><path d="M212.75,331.34l.47-.27a.78.78,0,0,1,.7,0l1.79,1,.3-.09v.38h0a.26.26,0,0,1-.14.21l-.62.35a.75.75,0,0,1-.71,0l-1.94-1.12a.24.24,0,0,1-.15-.2h0v-.38Z" style="fill:#407BFF"></path><path d="M212.75,331.34l.47-.27a.78.78,0,0,1,.7,0l1.79,1,.3-.09v.38h0a.26.26,0,0,1-.14.21l-.62.35a.75.75,0,0,1-.71,0l-1.94-1.12a.24.24,0,0,1-.15-.2h0v-.38Z" style="opacity:0.2"></path><path d="M212.6,331l.62-.35a.73.73,0,0,1,.7,0l2,1.12a.21.21,0,0,1,0,.4l-.62.36a.81.81,0,0,1-.71,0l-1.94-1.12A.22.22,0,0,1,212.6,331Z" style="fill:#407BFF"></path><path d="M208.5,330.07v2.3l1.32.76v-3.49c0-.19-.12-.26-.28-.17Z" style="fill:#407BFF"></path><path d="M208.5,330.07v2.3l1.32.76v-3.49c0-.19-.12-.26-.28-.17Z" style="opacity:0.30000000000000004"></path><path d="M201.56,332.51v4.26l1,.57.66-.39v-3.49a.62.62,0,0,1,.29-.49l5-2.9,1-.6c.16-.09.28,0,.28.17v3.49l.67-.38v-4.26a.13.13,0,0,0,0-.06.64.64,0,0,0-.28-.43l-.42-.24a.61.61,0,0,0-.56,0L201.84,332A.64.64,0,0,0,201.56,332.51Z" style="fill:#407BFF"></path><path d="M202.54,333.07v4.27l.66-.39v-3.49a.62.62,0,0,1,.29-.49l5-2.9,1-.6c.16-.09.28,0,.28.17v3.49l.67-.38v-4.26a.13.13,0,0,0,0-.06c0-.14-.14-.18-.28-.1l-7.38,4.26A.64.64,0,0,0,202.54,333.07Z" style="fill:#407BFF"></path><path d="M202.54,333.07v4.27l.66-.39v-3.49a.62.62,0,0,1,.29-.49l5-2.9,1-.6c.16-.09.28,0,.28.17v3.49l.67-.38v-4.26a.13.13,0,0,0,0-.06c0-.14-.14-.18-.28-.1l-7.38,4.26A.64.64,0,0,0,202.54,333.07Z" style="opacity:0.2"></path><path d="M208.25,322.5s0,1.32,0,1.89a40.47,40.47,0,0,1,.77,5.25c.14.62-.72,1.85-2.14,2.52-.61.29-1.67,1.27-2.15,1.32a3.83,3.83,0,0,1-1.24-.51l.6-.35s.83-1.21-.08-1.85l-1.8,1a4.43,4.43,0,0,1,0-1.64c.17-.9.19-2.06.33-3a6.2,6.2,0,0,1,1-2.07l-.3-3Z" style="fill:#ffa8a7"></path><path d="M197.09,280.27a20.94,20.94,0,0,1,4.47,2.22c1.11.89,7.59,19.45,7.84,21.12s-.71,19.25-.71,19.25a6,6,0,0,1-5.88.38l-1-17.62-5.58-14.51S194.11,285,197.09,280.27Z" style="fill:#37474f"></path></g></svg>