<svg width="21" height="19" viewBox="0 0 21 19" fill="none" xmlns="http://www.w3.org/2000/svg">
<path d="M10.3116 0C4.62992 0 0 4.2206 0 9.4C0 14.5794 4.62992 18.8 10.3116 18.8C15.9933 18.8 20.6232 14.5794 20.6232 9.4C20.6232 4.2206 15.9933 0 10.3116 0ZM13.7763 11.562C14.0754 11.8346 14.0754 12.2858 13.7763 12.5584C13.6216 12.6994 13.4257 12.7652 13.2298 12.7652C13.0339 12.7652 12.838 12.6994 12.6833 12.5584L10.3116 10.3964L7.93994 12.5584C7.78527 12.6994 7.58935 12.7652 7.39343 12.7652C7.19751 12.7652 7.00159 12.6994 6.84691 12.5584C6.54788 12.2858 6.54788 11.8346 6.84691 11.562L9.21858 9.4L6.84691 7.238C6.54788 6.9654 6.54788 6.5142 6.84691 6.2416C7.14595 5.969 7.64091 5.969 7.93994 6.2416L10.3116 8.4036L12.6833 6.2416C12.9823 5.969 13.4773 5.969 13.7763 6.2416C14.0754 6.5142 14.0754 6.9654 13.7763 7.238L11.4046 9.4L13.7763 11.562Z" fill="#898989"/>
</svg>
