<svg width="32" height="32" viewBox="0 0 32 32" fill="none" xmlns="http://www.w3.org/2000/svg">
<path opacity="0.4" d="M27.1767 11.2866C27.1767 13.6245 26.4901 15.769 25.3084 17.5587C24.4425 18.8627 23.3162 19.9695 22.0018 20.8081C20.6873 21.6467 19.2137 22.1985 17.6756 22.4281C17.1327 22.5248 16.5738 22.5732 15.9989 22.5732C15.4241 22.5732 14.8652 22.5248 14.3223 22.4281C12.7842 22.1985 11.3106 21.6467 9.99612 20.8081C8.68165 19.9695 7.55534 18.8627 6.68946 17.5587C5.46359 15.7018 4.81319 13.5183 4.82118 11.2866C4.82118 5.04672 9.81924 0 15.9989 0C22.1786 0 27.1767 5.04672 27.1767 11.2866Z" fill="#3EAEFF"/>
<path d="M30.7695 26.5525L28.1348 27.1813C27.5439 27.3264 27.0809 27.7779 26.9531 28.3745L26.3942 30.7447C26.3257 31.0356 26.1783 31.3016 25.9687 31.5128C25.759 31.7241 25.4953 31.8723 25.207 31.9408C24.9187 32.0094 24.6172 31.9957 24.3362 31.9012C24.0552 31.8067 23.8057 31.6352 23.6157 31.4057L15.9989 22.5699L8.38205 31.4219C8.19206 31.6513 7.94261 31.8228 7.6616 31.9173C7.38059 32.0118 7.07909 32.0256 6.7908 31.957C6.50251 31.8884 6.2388 31.7402 6.02914 31.5289C5.81948 31.3177 5.67213 31.0517 5.60358 30.7608L5.04469 28.3906C4.97676 28.1006 4.83025 27.8354 4.62157 27.6247C4.41288 27.414 4.15024 27.266 3.86304 27.1974L1.22828 26.5686C0.952233 26.5018 0.69873 26.3621 0.493732 26.1638C0.288735 25.9656 0.139608 25.7158 0.0616238 25.4402C-0.0163607 25.1646 -0.0204012 24.8731 0.0499162 24.5954C0.120234 24.3177 0.262382 24.0638 0.461806 23.8598L6.68942 17.5716C7.55536 18.8755 8.6817 19.9823 9.99615 20.8208C11.3106 21.6594 12.7841 22.2112 14.3222 22.4409C14.8652 22.5377 15.424 22.5861 15.9989 22.5861C16.5738 22.5861 17.1326 22.5377 17.6756 22.4409C20.8532 21.9734 23.5838 20.1514 25.3084 17.5716L31.536 23.8598C32.4142 24.7305 31.9831 26.2623 30.7695 26.5525ZM16.9251 6.41719L17.8672 8.31979C17.9949 8.57777 18.3303 8.83575 18.6337 8.88412L20.3423 9.17434C21.4281 9.35171 21.6836 10.1579 20.9011 10.948L19.5758 12.2862C19.3522 12.512 19.2245 12.9473 19.3043 13.2698L19.6876 14.9305C19.991 16.2365 19.3043 16.7525 18.1546 16.0592L16.5578 15.1079C16.3956 15.0205 16.2146 14.9748 16.0308 14.9748C15.847 14.9748 15.666 15.0205 15.5039 15.1079L13.9071 16.0592C12.7573 16.7364 12.0707 16.2365 12.3741 14.9305L12.7573 13.2698C12.8212 12.9634 12.7094 12.512 12.4859 12.2862L11.1605 10.948C10.3781 10.1579 10.6336 9.36783 11.7194 9.17434L13.428 8.88412C13.7154 8.83575 14.0508 8.57777 14.1785 8.31979L15.1206 6.41719C15.5837 5.38527 16.4141 5.38527 16.9251 6.41719Z" fill="#3EAEFF"/>
</svg>
