<svg width="14" height="14" viewBox="0 0 14 14" fill="none" xmlns="http://www.w3.org/2000/svg">
<path d="M13 13.19L11.8 11.99M6.7 12.59C7.44853 12.59 8.18974 12.4426 8.8813 12.1561C9.57285 11.8697 10.2012 11.4498 10.7305 10.9205C11.2598 10.3912 11.6797 9.76285 11.9661 9.0713C12.2526 8.37974 12.4 7.63854 12.4 6.89C12.4 6.14147 12.2526 5.40026 11.9661 4.70871C11.6797 4.01715 11.2598 3.38879 10.7305 2.85949C10.2012 2.3302 9.57285 1.91034 8.8813 1.62389C8.18974 1.33744 7.44853 1.19 6.7 1.19C5.18827 1.19 3.73845 1.79054 2.66949 2.85949C1.60053 3.92845 1 5.37827 1 6.89C1 8.40174 1.60053 9.85155 2.66949 10.9205C3.73845 11.9895 5.18827 12.59 6.7 12.59Z" stroke="black" stroke-linecap="round" stroke-linejoin="round"/>
</svg>
