<svg width="20" height="20" viewBox="0 0 20 20" fill="none" xmlns="http://www.w3.org/2000/svg">
<path opacity="0.4" d="M14.19 0H5.81C2.17 0 0 2.17 0 5.81V14.18C0 17.83 2.17 20 5.81 20H14.18C17.82 20 19.99 17.83 19.99 14.19V5.81C20 2.17 17.83 0 14.19 0Z" fill="#9038FF"/>
<path d="M14.6602 9.25L13.0402 10.27L9.74023 6.97998L10.7702 5.34998C11.2402 4.60998 12.2002 4.56998 12.9002 5.26998L14.7502 7.11998C15.4102 7.76998 15.3702 8.8 14.6602 9.25Z" fill="#9038FF"/>
<path opacity="0.6" d="M11.5796 14.6202L6.50958 15.2202C6.28958 15.2502 6.08958 15.2402 5.89958 15.1802C5.34958 15.0602 4.95958 14.6702 4.83958 14.1202C4.77958 13.9302 4.76958 13.7302 4.79958 13.5102L5.38958 8.4402C5.54958 7.17017 6.00958 6.76017 7.34958 6.84017L9.7396 6.98017L13.0396 10.2702L13.1796 12.6702C13.3096 14.0102 12.8496 14.4702 11.5796 14.6202Z" fill="#9038FF"/>
<path d="M7.87984 13.1999L5.89984 15.1799C5.34984 15.0599 4.95984 14.6699 4.83984 14.1199L6.80984 12.1399C7.10984 11.8499 7.57984 11.8499 7.87984 12.1399C8.1698 12.4299 8.1698 12.9099 7.87984 13.1999Z" fill="#9038FF"/>
</svg>
