<svg width="20" height="18" viewBox="0 0 20 18" fill="none" xmlns="http://www.w3.org/2000/svg">
<path d="M19.25 5.72C16.94 2.09 13.56 0 10 0C8.22 0 6.49 0.52 4.91 1.49C3.33 2.47 1.91 3.9 0.75 5.72C-0.25 7.29 -0.25 9.84 0.75 11.41C3.06 15.05 6.44 17.13 10 17.13C11.78 17.13 13.51 16.61 15.09 15.64C16.67 14.66 18.09 13.23 19.25 11.41C20.25 9.85 20.25 7.29 19.25 5.72ZM10 12.61C7.76 12.61 5.96 10.8 5.96 8.57C5.96 6.34 7.76 4.53 10 4.53C12.24 4.53 14.04 6.34 14.04 8.57C14.04 10.8 12.24 12.61 10 12.61Z" fill="#8D8D8D"/>
<path d="M9.99807 5.71001C9.24087 5.71001 8.51469 6.0108 7.97928 6.54622C7.44386 7.08163 7.14307 7.80781 7.14307 8.56501C7.14307 9.3222 7.44386 10.0484 7.97928 10.5838C8.51469 11.1192 9.24087 11.42 9.99807 11.42C11.5681 11.42 12.8581 10.14 12.8581 8.57001C12.8581 7.00001 11.5681 5.71001 9.99807 5.71001Z" fill="#8D8D8D"/>
</svg>
