<svg width="19" height="20" viewBox="0 0 19 20" fill="none" xmlns="http://www.w3.org/2000/svg">
<path opacity="0.4" d="M19 6.37V13.82C19 13.97 18.95 14.12 18.82 14.25C17.37 15.71 14.79 18.31 13.31 19.8C13.18 19.94 13.01 20 12.84 20H4.87C2.18 20 0 17.82 0 15.13V6.37C0 3.68 2.18 1.5 4.87 1.5H14.13C16.82 1.5 19 3.68 19 6.37Z" fill="#9038FF"/>
<path d="M5.78906 4.29C5.36906 4.29 5.03906 3.95 5.03906 3.54V0.75C5.03906 0.34 5.36906 0 5.78906 0C6.20906 0 6.53906 0.34 6.53906 0.75V3.53C6.53906 3.95 6.20906 4.29 5.78906 4.29Z" fill="#9038FF"/>
<path d="M13.2109 4.29C12.7909 4.29 12.4609 3.95 12.4609 3.54V0.75C12.4609 0.33 12.8009 0 13.2109 0C13.6309 0 13.9609 0.34 13.9609 0.75V3.53C13.9609 3.95 13.6309 4.29 13.2109 4.29Z" fill="#9038FF"/>
<path d="M12.2794 10.71H4.85938C4.43938 10.71 4.10938 10.37 4.10938 9.95999C4.10938 9.54999 4.44938 9.20999 4.85938 9.20999H12.2794C12.6994 9.20999 13.0294 9.54999 13.0294 9.95999C13.0294 10.37 12.6994 10.71 12.2794 10.71Z" fill="#9038FF"/>
<path d="M9.4994 14.4199H4.85938C4.43938 14.4199 4.10938 14.0799 4.10938 13.6699C4.10938 13.2499 4.44938 12.9199 4.85938 12.9199H9.4994C9.9194 12.9199 10.2494 13.2599 10.2494 13.6699C10.2494 14.0799 9.9194 14.4199 9.4994 14.4199Z" fill="#9038FF"/>
<path d="M18.9995 13.8202C18.9995 13.9702 18.9495 14.1202 18.8195 14.2502C17.3695 15.7102 14.7895 18.3102 13.3095 19.8002C13.1795 19.9402 13.0095 20.0002 12.8395 20.0002C12.5095 20.0002 12.1895 19.7402 12.1895 19.3602V15.8602C12.1895 14.4002 13.4295 13.1902 14.9495 13.1902C15.8995 13.1802 17.2195 13.1802 18.3495 13.1802C18.7395 13.1802 18.9995 13.4902 18.9995 13.8202Z" fill="#9038FF"/>
</svg>
