<svg width="20" height="20" viewBox="0 0 20 20" fill="none" xmlns="http://www.w3.org/2000/svg">
<path opacity="0.4" d="M14.19 0H5.81C2.17 0 0 2.17 0 5.81V14.18C0 17.83 2.17 20 5.81 20H14.18C17.82 20 19.99 17.83 19.99 14.19V5.81C20 2.17 17.83 0 14.19 0Z" fill="#1E88E5"/>
<path d="M13.5302 12.2101C13.3402 12.2101 13.1502 12.1401 13.0002 11.9901L10.0002 8.9901L7.00016 11.9901C6.71016 12.2801 6.23016 12.2801 5.94016 11.9901C5.65016 11.7001 5.65016 11.2201 5.94016 10.9301L9.4702 7.40012C9.7602 7.11012 10.2402 7.11012 10.5302 7.40012L14.0602 10.9301C14.3502 11.2201 14.3502 11.7001 14.0602 11.9901C13.9102 12.1401 13.7202 12.2101 13.5302 12.2101Z" fill="#1E88E5"/>
</svg>
