<!DOCTYPE svg PUBLIC "-//W3C//DTD SVG 1.1//EN" "http://www.w3.org/Graphics/SVG/1.1/DTD/svg11.dtd">
<!-- Uploaded to: SVG Repo, www.svgrepo.com, Transformed by: SVG Repo Mixer Tools -->
<svg version="1.1" id="Icons" xmlns="http://www.w3.org/2000/svg" xmlns:xlink="http://www.w3.org/1999/xlink" viewBox="0 0 32 32" xml:space="preserve" width="800px" height="800px" fill="#1E88E5FF" stroke="#1E88E5FF">
<g id="SVGRepo_bgCarrier" stroke-width="0"/>
<g id="SVGRepo_tracerCarrier" stroke-linecap="round" stroke-linejoin="round"/>
<g id="SVGRepo_iconCarrier"> <style type="text/css"> .st0{fill:none;stroke:#000000;stroke-width:2;stroke-linecap:round;stroke-linejoin:round;stroke-miterlimit:10;} </style> <g> <path d="M17,8H6c-1.7,0-3,1.3-3,3v10c0,1.7,1.3,3,3,3h11c1.7,0,3-1.3,3-3V11C20,9.3,18.7,8,17,8z"/> <path d="M28.5,8.1c-0.3-0.2-0.7-0.2-1,0l-5,3C22.2,11.3,22,11.6,22,12v8c0,0.4,0.2,0.7,0.5,0.9l5,3C27.6,24,27.8,24,28,24 c0.2,0,0.3,0,0.5-0.1c0.3-0.2,0.5-0.5,0.5-0.9V9C29,8.6,28.8,8.3,28.5,8.1z"/> </g> </g>
</svg>