<svg width="21" height="20" viewBox="0 0 21 20" fill="none" xmlns="http://www.w3.org/2000/svg">
<path d="M19.33 6.01002L12.78 0.770018C11.5 -0.249982 9.5 -0.259982 8.22996 0.760018L1.67996 6.01002C0.739963 6.76002 0.169963 8.26 0.369963 9.44L1.62996 16.98C1.91996 18.67 3.48996 20 5.19996 20H15.8C17.49 20 19.09 18.64 19.38 16.97L20.64 9.43C20.82 8.26 20.25 6.76002 19.33 6.01002ZM11.25 16C11.25 16.41 10.91 16.75 10.5 16.75C10.09 16.75 9.75 16.41 9.75 16V13C9.75 12.59 10.09 12.25 10.5 12.25C10.91 12.25 11.25 12.59 11.25 13V16Z" fill="#292D32"/>
</svg>
