<svg width="21" height="22" viewBox="0 0 21 22" fill="none" xmlns="http://www.w3.org/2000/svg">
<path d="M14.5 0.96875H6.5C2.5 0.96875 0.5 2.96875 0.5 6.96875V11.9688C0.5 16.9688 2.5 17.9688 6.5 17.9688H7C7.28 17.9688 7.64 18.1488 7.8 18.3688L9.3 20.3688C9.96 21.2488 11.04 21.2488 11.7 20.3688L13.2 18.3688C13.39 18.1188 13.69 17.9688 14 17.9688H14.5C18.5 17.9688 20.5 15.9688 20.5 11.9688V6.96875C20.5 2.96875 18.5 0.96875 14.5 0.96875ZM7.03 11.1687C7.32 11.4587 7.32 11.9387 7.03 12.2287C6.88 12.3787 6.69 12.4487 6.5 12.4487C6.31 12.4487 6.12 12.3787 5.97 12.2287L3.97 10.2287C3.68 9.9387 3.68 9.4587 3.97 9.1687L5.97 7.16875C6.26 6.87875 6.74 6.87875 7.03 7.16875C7.32 7.45875 7.32 7.93875 7.03 8.22875L5.56 9.6987L7.03 11.1687ZM12.19 7.65875L10.19 12.3287C10.07 12.6087 9.79 12.7787 9.5 12.7787C9.4 12.7787 9.3 12.7587 9.2 12.7188C8.82 12.5588 8.64 12.1187 8.81 11.7287L10.81 7.05875C10.97 6.67875 11.41 6.49875 11.8 6.66875C12.18 6.83875 12.35 7.27875 12.19 7.65875ZM17.03 10.2287L15.03 12.2287C14.88 12.3787 14.69 12.4487 14.5 12.4487C14.31 12.4487 14.12 12.3787 13.97 12.2287C13.68 11.9387 13.68 11.4587 13.97 11.1687L15.44 9.6987L13.97 8.22875C13.68 7.93875 13.68 7.45875 13.97 7.16875C14.26 6.87875 14.74 6.87875 15.03 7.16875L17.03 9.1687C17.32 9.4587 17.32 9.9387 17.03 10.2287Z" fill="#292D32"/>
</svg>
