<svg width="21" height="20" viewBox="0 0 21 20" fill="none" xmlns="http://www.w3.org/2000/svg">
<path d="M20.5 6.52V1.98C20.5 0.57 19.86 0 18.27 0H14.23C12.64 0 12 0.57 12 1.98V6.51C12 7.93 12.64 8.49 14.23 8.49H18.27C19.86 8.5 20.5 7.93 20.5 6.52Z" fill="#292D32"/>
<path d="M20.5 17.77V13.73C20.5 12.14 19.86 11.5 18.27 11.5H14.23C12.64 11.5 12 12.14 12 13.73V17.77C12 19.36 12.64 20 14.23 20H18.27C19.86 20 20.5 19.36 20.5 17.77Z" fill="#292D32"/>
<path d="M9 6.52V1.98C9 0.57 8.36 0 6.77 0H2.73C1.14 0 0.5 0.57 0.5 1.98V6.51C0.5 7.93 1.14 8.49 2.73 8.49H6.77C8.36 8.5 9 7.93 9 6.52Z" fill="#292D32"/>
<path d="M9 17.77V13.73C9 12.14 8.36 11.5 6.77 11.5H2.73C1.14 11.5 0.5 12.14 0.5 13.73V17.77C0.5 19.36 1.14 20 2.73 20H6.77C8.36 20 9 19.36 9 17.77Z" fill="#292D32"/>
</svg>
