<svg width="11" height="10" viewBox="0 0 11 10" fill="none" xmlns="http://www.w3.org/2000/svg">
<path d="M1.37499 0H7.21632L10.3125 2.80376V9.37501C10.3125 9.72031 10.0045 10 9.62498 10H1.37499C0.995483 10 0.6875 9.72031 0.6875 9.37501V0.624994C0.6875 0.279694 0.995519 0 1.37499 0Z" fill="#E2574C"/>
<path d="M10.3025 2.81247H7.90624C7.52673 2.81247 7.21875 2.53249 7.21875 2.18748V0.00622559L10.3025 2.81247Z" fill="#B53629"/>
<path d="M7.73367 4.73841C7.84884 4.73841 7.90521 4.64716 7.90521 4.55873C7.90521 4.46716 7.84642 4.37872 7.73367 4.37872H7.07779C6.94957 4.37872 6.87808 4.47527 6.87808 4.58185V6.04715C6.87808 6.17778 6.95989 6.25028 7.07057 6.25028C7.18058 6.25028 7.26275 6.17778 7.26275 6.04715V5.64498H7.65944C7.7825 5.64498 7.84403 5.5534 7.84403 5.46248C7.84403 5.37343 7.7825 5.28496 7.65944 5.28496H7.26275V4.73841H7.73367ZM5.51682 4.37872H5.03694C4.90665 4.37872 4.81418 4.45998 4.81418 4.58059V6.04841C4.81418 6.19809 4.9472 6.24497 5.04242 6.24497H5.54602C6.14207 6.24497 6.53567 5.88842 6.53567 5.33809C6.53535 4.75623 6.1648 4.37872 5.51682 4.37872ZM5.53987 5.88312H5.24732V4.74061H5.51099C5.9101 4.74061 6.08367 4.98406 6.08367 5.31998C6.08367 5.63437 5.91316 5.88312 5.53987 5.88312ZM3.78192 4.37872H3.30652C3.17211 4.37872 3.09717 4.45933 3.09717 4.58185V6.04715C3.09717 6.17778 3.1831 6.25028 3.29859 6.25028C3.41408 6.25028 3.50001 6.17778 3.50001 6.04715V5.61933H3.79803C4.16584 5.61933 4.46938 5.38245 4.46938 5.00152C4.46942 4.62873 4.17655 4.37872 3.78192 4.37872ZM3.77403 5.27562H3.50005V4.7228H3.77403C3.94315 4.7228 4.05075 4.84279 4.05075 4.99935C4.05039 5.15562 3.94315 5.27562 3.77403 5.27562Z" fill="white"/>
</svg>
