<svg width="22" height="22" viewBox="0 0 22 22" fill="none" xmlns="http://www.w3.org/2000/svg">
<path d="M2.35001 1H11.25C11.99 1 12.6 1.61 12.6 2.35V3.83C12.6 4.37 12.26 5.04 11.93 5.38L9.03001 7.94C8.63001 8.28 8.36001 8.95 8.36001 9.49V12.39C8.36001 12.79 8.09001 13.33 7.75001 13.54L6.81001 14.15C5.93001 14.69 4.72001 14.08 4.72001 13V9.43C4.72001 8.96 4.45001 8.35 4.18001 8.01L1.62001 5.31C1.28001 4.97 1.01001 4.37 1.01001 3.96V2.41C1.00001 1.61 1.61001 1 2.35001 1Z" stroke="black" stroke-width="1.5" stroke-miterlimit="10" stroke-linecap="round" stroke-linejoin="round"/>
<path d="M1 11V14C1 19 3 21 8 21H14C19 21 21 19 21 14V7.99999C21 4.87999 20.22 2.91999 18.41 1.89999C17.9 1.60999 16.88 1.38999 15.95 1.23999M12 12H17M10 16H17" stroke="black" stroke-width="1.5" stroke-linecap="round" stroke-linejoin="round"/>
</svg>
