<svg width="19" height="20" viewBox="0 0 19 20" fill="none" xmlns="http://www.w3.org/2000/svg">
<path d="M18.7206 16.24L17.7806 15.3C18.2706 14.56 18.5606 13.67 18.5606 12.71C18.5606 10.11 16.4506 8 13.8506 8C11.2506 8 9.14062 10.11 9.14062 12.71C9.14062 15.31 11.2506 17.42 13.8506 17.42C14.8106 17.42 15.6906 17.13 16.4406 16.64L17.3806 17.58C17.5706 17.77 17.8106 17.86 18.0606 17.86C18.3106 17.86 18.5506 17.77 18.7406 17.58C19.0906 17.22 19.0906 16.62 18.7206 16.24Z" fill="#292D32"/>
<path d="M17.5799 2.02V4.24C17.5799 5.05 17.0799 6.06 16.5799 6.57L16.3999 6.73C16.2599 6.86 16.0499 6.89 15.8699 6.83C15.6699 6.76 15.4699 6.71 15.2699 6.66C14.8299 6.55 14.3599 6.5 13.8799 6.5C10.4299 6.5 7.62992 9.3 7.62992 12.75C7.62992 13.89 7.93992 15.01 8.5299 15.97C9.0299 16.81 9.7299 17.51 10.4899 17.98C10.7199 18.13 10.8099 18.45 10.6099 18.63C10.5399 18.69 10.4699 18.74 10.3999 18.79L8.9999 19.7C7.69992 20.51 5.90992 19.6 5.90992 17.98V12.63C5.90992 11.92 5.50992 11.01 5.10992 10.51L1.31992 6.47C0.819922 5.96 0.419922 5.05 0.419922 4.45V2.12C0.419922 0.91 1.31992 0 2.40992 0H15.5899C16.6799 0 17.5799 0.91 17.5799 2.02Z" fill="#292D32"/>
</svg>
