<svg width="12" height="15" viewBox="0 0 12 15" fill="none" xmlns="http://www.w3.org/2000/svg">
<path d="M6.19869 1.81665C4.06002 1.81665 2.32195 3.55472 2.32195 5.69339V7.56069C2.32195 7.95482 2.15395 8.55572 1.95366 8.8917L1.21061 10.1258C0.751867 10.8882 1.06847 11.7346 1.90843 12.0189C4.69322 12.9494 7.69769 12.9494 10.4825 12.0189C11.2643 11.7605 11.6067 10.8365 11.1803 10.1258L10.4373 8.8917C10.2434 8.55572 10.0754 7.95482 10.0754 7.56069V5.69339C10.0754 3.56118 8.33089 1.81665 6.19869 1.81665Z" stroke="black" stroke-miterlimit="10" stroke-linecap="round"/>
<path d="M7.39407 2.00412C6.61272 1.78159 5.78477 1.78159 5.00342 2.00412C5.19079 1.52599 5.656 1.19 6.19875 1.19C6.74149 1.19 7.2067 1.52599 7.39407 2.00412Z" stroke="black" stroke-miterlimit="10" stroke-linecap="round" stroke-linejoin="round"/>
<path d="M8.13705 12.2516C8.13705 13.3178 7.26479 14.19 6.19868 14.19C5.66886 14.19 5.17781 13.9703 4.8289 13.6214C4.46588 13.2579 4.26147 12.7654 4.26031 12.2516" stroke="black" stroke-miterlimit="10"/>
</svg>
